<?xml version="1.0" encoding="UTF-8" standalone="no"?>
<!-- Created with Inkscape (http://www.inkscape.org/) -->

<svg
   xmlns:dc="http://purl.org/dc/elements/1.1/"
   xmlns:cc="http://creativecommons.org/ns#"
   xmlns:rdf="http://www.w3.org/1999/02/22-rdf-syntax-ns#"
   xmlns:svg="http://www.w3.org/2000/svg"
   xmlns="http://www.w3.org/2000/svg"
   xmlns:sodipodi="http://sodipodi.sourceforge.net/DTD/sodipodi-0.dtd"
   xmlns:inkscape="http://www.inkscape.org/namespaces/inkscape"
   version="1.1"
   id="svg2"
   xml:space="preserve"
   width="1587.4"
   height="1122.52"
   viewBox="0 0 1587.4 1122.52"
   sodipodi:docname="banner_no_text.svg"
   inkscape:version="0.92.2 5c3e80d, 2017-08-06"
   inkscape:export-filename="/home/seb/dlang/d-artwork/banner/banner.png"
   inkscape:export-xdpi="120.92791"
   inkscape:export-ydpi="120.92791"><metadata
     id="metadata8"><rdf:RDF><cc:Work
         rdf:about=""><dc:format>image/svg+xml</dc:format><dc:type
           rdf:resource="http://purl.org/dc/dcmitype/StillImage" /><dc:title></dc:title></cc:Work></rdf:RDF></metadata><defs
     id="defs6"><clipPath
       clipPathUnits="userSpaceOnUse"
       id="clipPath20"><path
         d="M 0,1190.551 H 841.89 V 0 H 0 Z"
         id="path18"
         inkscape:connector-curvature="0" /></clipPath><clipPath
       clipPathUnits="userSpaceOnUse"
       id="clipPath778"><path
         d="m 458.055,787.372 -97.104,-53.483 137.137,-248.985 97.104,53.482 c 78.253,43.1 102.345,127.3 63.75,197.371 v 0 l -0.392,0.713 c -25.492,46.284 -70.648,72.437 -120.915,72.439 v 0 c -25.835,0.002 -53.015,-6.905 -79.58,-21.537 m 27.824,-91.089 24.165,13.311 c 25.587,14.093 52.579,5.933 66.448,-19.248 v 0 l 0.223,-0.406 c 13.869,-25.18 6.116,-51.948 -19.471,-66.041 v 0 l -24.165,-13.31 z"
         id="path776"
         inkscape:connector-curvature="0" /></clipPath><clipPath
       clipPathUnits="userSpaceOnUse"
       id="clipPath1214"><path
         d="M 0,1190.551 H 841.89 V 0 H 0 Z"
         id="path1212"
         inkscape:connector-curvature="0" /></clipPath></defs><sodipodi:namedview
     pagecolor="#ffffff"
     bordercolor="#666666"
     borderopacity="1"
     objecttolerance="10"
     gridtolerance="10"
     guidetolerance="10"
     inkscape:pageopacity="0"
     inkscape:pageshadow="2"
     inkscape:window-width="1920"
     inkscape:window-height="1080"
     id="namedview4"
     showgrid="false"
     inkscape:zoom="0.59468312"
     inkscape:cx="566.6052"
     inkscape:cy="669.18713"
     inkscape:window-x="0"
     inkscape:window-y="0"
     inkscape:window-maximized="0"
     inkscape:current-layer="g10" /><g
     id="g10"
     inkscape:groupmode="layer"
     inkscape:label="dconf_poster"
     transform="matrix(1.3333333,0,0,-1.3333333,0,1122.52)"><path
       inkscape:connector-curvature="0"
       id="path12"
       style="fill:#522260;fill-opacity:1;fill-rule:nonzero;stroke:none"
       d="M 0,-1.4296875e-5 V 841.88998 H 1190.552 V -1.4296875e-5 Z" /><g
       id="g1762"
       transform="matrix(0,-1.0269324,1.0269324,0,-22.243972,842.23962)"><g
         transform="translate(782.9388,96.7543)"
         id="g252"><path
           inkscape:connector-curvature="0"
           id="path254"
           style="fill:#ffffff;fill-opacity:1;fill-rule:nonzero;stroke:none"
           d="m 0,0 c -1.914,-0.001 -3.465,-1.425 -3.463,-3.18 v -0.005 c 10e-4,-1.753 1.554,-3.175 3.469,-3.174 1.914,0.002 3.464,1.425 3.463,3.179 v 0.006 C 3.467,-1.42 1.914,0.002 0,0" /></g><g
         transform="translate(86.6965,754.4847)"
         id="g256"><path
           inkscape:connector-curvature="0"
           id="path258"
           style="fill:#ffffff;fill-opacity:1;fill-rule:nonzero;stroke:none"
           d="m 0,0 c -0.738,0 -1.337,0.599 -1.337,1.337 0,0.738 0.599,1.336 1.337,1.336 0.738,0 1.337,-0.598 1.337,-1.336 C 1.337,0.599 0.738,0 0,0" /></g><g
         transform="translate(93.36,482.2777)"
         id="g260"><path
           inkscape:connector-curvature="0"
           id="path262"
           style="fill:#ffffff;fill-opacity:1;fill-rule:nonzero;stroke:none"
           d="m 0,0 c -0.738,0 -1.337,0.598 -1.337,1.336 0,0.738 0.599,1.337 1.337,1.337 0.738,0 1.337,-0.599 1.337,-1.337 C 1.337,0.598 0.738,0 0,0" /></g><g
         transform="translate(220.4866,512.0052)"
         id="g264"><path
           inkscape:connector-curvature="0"
           id="path266"
           style="fill:#ffffff;fill-opacity:1;fill-rule:nonzero;stroke:none"
           d="m 0,0 c -0.738,0 -1.337,0.599 -1.337,1.337 0,0.737 0.599,1.336 1.337,1.336 0.738,0 1.337,-0.599 1.337,-1.336 C 1.337,0.599 0.738,0 0,0" /></g><g
         transform="translate(162.5822,599.8412)"
         id="g268"><path
           inkscape:connector-curvature="0"
           id="path270"
           style="fill:#ffffff;fill-opacity:1;fill-rule:nonzero;stroke:none"
           d="m 0,0 c -0.738,0 -1.337,0.598 -1.337,1.336 0,0.738 0.599,1.337 1.337,1.337 0.738,0 1.337,-0.599 1.337,-1.337 C 1.337,0.598 0.738,0 0,0" /></g><g
         transform="translate(220.2444,605.0326)"
         id="g272"><path
           inkscape:connector-curvature="0"
           id="path274"
           style="fill:#ffffff;fill-opacity:1;fill-rule:nonzero;stroke:none"
           d="m 0,0 c -0.738,0 -1.337,0.599 -1.337,1.337 0,0.738 0.599,1.336 1.337,1.336 0.738,0 1.337,-0.598 1.337,-1.336 C 1.337,0.599 0.738,0 0,0" /></g><g
         transform="translate(296.0923,595.2875)"
         id="g276"><path
           inkscape:connector-curvature="0"
           id="path278"
           style="fill:#ffffff;fill-opacity:1;fill-rule:nonzero;stroke:none"
           d="m 0,0 c -0.738,0 -1.337,0.599 -1.337,1.337 0,0.737 0.599,1.336 1.337,1.336 0.738,0 1.337,-0.599 1.337,-1.336 C 1.337,0.599 0.738,0 0,0" /></g><g
         transform="translate(168.3472,662.0941)"
         id="g280"><path
           inkscape:connector-curvature="0"
           id="path282"
           style="fill:#ffffff;fill-opacity:1;fill-rule:nonzero;stroke:none"
           d="m 0,0 c -0.738,0 -1.337,0.599 -1.337,1.337 0,0.738 0.599,1.337 1.337,1.337 0.738,0 1.337,-0.599 1.337,-1.337 C 1.337,0.599 0.738,0 0,0" /></g><g
         transform="translate(76.2178,675.6947)"
         id="g284"><path
           inkscape:connector-curvature="0"
           id="path286"
           style="fill:#ffffff;fill-opacity:1;fill-rule:nonzero;stroke:none"
           d="m 0,0 c -0.738,0 -1.337,0.599 -1.337,1.337 0,0.738 0.599,1.336 1.337,1.336 0.738,0 1.337,-0.598 1.337,-1.336 C 1.337,0.599 0.738,0 0,0" /></g><g
         transform="translate(55.4821,611.6605)"
         id="g288"><path
           inkscape:connector-curvature="0"
           id="path290"
           style="fill:#ffffff;fill-opacity:1;fill-rule:nonzero;stroke:none"
           d="m 0,0 c -0.738,0 -1.337,0.599 -1.337,1.337 0,0.738 0.599,1.337 1.337,1.337 0.738,0 1.337,-0.599 1.337,-1.337 C 1.337,0.599 0.738,0 0,0" /></g><g
         transform="translate(352.4072,1037.2035)"
         id="g292"><path
           inkscape:connector-curvature="0"
           id="path294"
           style="fill:#ffffff;fill-opacity:1;fill-rule:nonzero;stroke:none"
           d="m 0,0 c -0.738,0 -1.337,0.598 -1.337,1.336 0,0.738 0.599,1.337 1.337,1.337 0.738,0 1.337,-0.599 1.337,-1.337 C 1.337,0.598 0.738,0 0,0" /></g><g
         transform="translate(231.9956,1098.6859)"
         id="g296"><path
           inkscape:connector-curvature="0"
           id="path298"
           style="fill:#ffffff;fill-opacity:1;fill-rule:nonzero;stroke:none"
           d="m 0,0 c -0.738,0 -1.337,0.599 -1.337,1.336 0,0.738 0.599,1.337 1.337,1.337 0.738,0 1.337,-0.599 1.337,-1.337 C 1.337,0.599 0.738,0 0,0" /></g><g
         transform="translate(173.3445,1119.0746)"
         id="g300"><path
           inkscape:connector-curvature="0"
           id="path302"
           style="fill:#ffffff;fill-opacity:1;fill-rule:nonzero;stroke:none"
           d="m 0,0 c -0.738,0 -1.337,0.599 -1.337,1.337 0,0.737 0.599,1.336 1.337,1.336 0.738,0 1.337,-0.599 1.337,-1.336 C 1.337,0.599 0.738,0 0,0" /></g><g
         transform="translate(157.9857,841.0765)"
         id="g304"><path
           inkscape:connector-curvature="0"
           id="path306"
           style="fill:#ffffff;fill-opacity:1;fill-rule:nonzero;stroke:none"
           d="m 0,0 c -0.738,0 -1.337,0.599 -1.337,1.337 0,0.738 0.599,1.337 1.337,1.337 0.738,0 1.337,-0.599 1.337,-1.337 C 1.337,0.599 0.738,0 0,0" /></g><g
         transform="translate(62.9865,1153.6361)"
         id="g308"><path
           inkscape:connector-curvature="0"
           id="path310"
           style="fill:#ffffff;fill-opacity:1;fill-rule:nonzero;stroke:none"
           d="m 0,0 c -0.738,0 -1.337,0.598 -1.337,1.336 0,0.738 0.599,1.337 1.337,1.337 0.738,0 1.337,-0.599 1.337,-1.337 C 1.337,0.598 0.738,0 0,0" /></g><g
         transform="translate(44.5501,1062.9554)"
         id="g312"><path
           inkscape:connector-curvature="0"
           id="path314"
           style="fill:#ffffff;fill-opacity:1;fill-rule:nonzero;stroke:none"
           d="m 0,0 c -0.738,0 -1.337,0.599 -1.337,1.337 0,0.738 0.599,1.337 1.337,1.337 0.738,0 1.337,-0.599 1.337,-1.337 C 1.337,0.599 0.738,0 0,0" /></g><g
         transform="translate(74.8811,1023.4281)"
         id="g316"><path
           inkscape:connector-curvature="0"
           id="path318"
           style="fill:#ffffff;fill-opacity:1;fill-rule:nonzero;stroke:none"
           d="m 0,0 c -0.738,0 -1.337,0.599 -1.337,1.337 0,0.738 0.599,1.336 1.337,1.336 0.738,0 1.337,-0.598 1.337,-1.336 C 1.337,0.599 0.738,0 0,0" /></g><g
         transform="translate(47.2233,963.559)"
         id="g320"><path
           inkscape:connector-curvature="0"
           id="path322"
           style="fill:#ffffff;fill-opacity:1;fill-rule:nonzero;stroke:none"
           d="m 0,0 c -0.738,0 -1.337,0.599 -1.337,1.337 0,0.738 0.599,1.336 1.337,1.336 0.738,0 1.337,-0.598 1.337,-1.336 C 1.337,0.599 0.738,0 0,0" /></g><g
         transform="translate(191.5531,719.9144)"
         id="g324"><path
           inkscape:connector-curvature="0"
           id="path326"
           style="fill:#ffffff;fill-opacity:1;fill-rule:nonzero;stroke:none"
           d="m 0,0 c -0.738,0 -1.337,0.599 -1.337,1.337 0,0.738 0.599,1.337 1.337,1.337 0.738,0 1.337,-0.599 1.337,-1.337 C 1.337,0.599 0.738,0 0,0" /></g><g
         transform="translate(364.3708,701.1039)"
         id="g328"><path
           inkscape:connector-curvature="0"
           id="path330"
           style="fill:#ffffff;fill-opacity:1;fill-rule:nonzero;stroke:none"
           d="m 0,0 c -0.738,0 -1.337,0.599 -1.337,1.337 0,0.738 0.599,1.336 1.337,1.336 0.738,0 1.337,-0.598 1.337,-1.336 C 1.337,0.599 0.738,0 0,0" /></g><g
         transform="translate(307.4779,625.0853)"
         id="g332"><path
           inkscape:connector-curvature="0"
           id="path334"
           style="fill:#ffffff;fill-opacity:1;fill-rule:nonzero;stroke:none"
           d="m 0,0 c -0.738,0 -1.337,0.599 -1.337,1.337 0,0.738 0.599,1.337 1.337,1.337 0.738,0 1.337,-0.599 1.337,-1.337 C 1.337,0.599 0.738,0 0,0" /></g><g
         transform="translate(316.6368,848.4847)"
         id="g336"><path
           inkscape:connector-curvature="0"
           id="path338"
           style="fill:#ffffff;fill-opacity:1;fill-rule:nonzero;stroke:none"
           d="m 0,0 c -0.738,0 -1.337,0.599 -1.337,1.337 0,0.738 0.599,1.336 1.337,1.336 0.738,0 1.337,-0.598 1.337,-1.336 C 1.337,0.599 0.738,0 0,0" /></g><g
         transform="translate(241.091,687.1478)"
         id="g340"><path
           inkscape:connector-curvature="0"
           id="path342"
           style="fill:#ffffff;fill-opacity:1;fill-rule:nonzero;stroke:none"
           d="m 0,0 c -0.738,0 -1.337,0.599 -1.337,1.337 0,0.738 0.599,1.337 1.337,1.337 0.738,0 1.337,-0.599 1.337,-1.337 C 1.337,0.599 0.738,0 0,0" /></g><g
         transform="translate(245.3584,791.5785)"
         id="g344"><path
           inkscape:connector-curvature="0"
           id="path346"
           style="fill:#ffffff;fill-opacity:1;fill-rule:nonzero;stroke:none"
           d="m 0,0 c -0.738,0 -1.337,0.598 -1.337,1.336 0,0.738 0.599,1.337 1.337,1.337 0.738,0 1.337,-0.599 1.337,-1.337 C 1.337,0.598 0.738,0 0,0" /></g><g
         transform="translate(407.0233,813.6293)"
         id="g348"><path
           inkscape:connector-curvature="0"
           id="path350"
           style="fill:#ffffff;fill-opacity:1;fill-rule:nonzero;stroke:none"
           d="m 0,0 c -0.738,0 -1.337,0.598 -1.337,1.336 0,0.738 0.599,1.337 1.337,1.337 0.738,0 1.337,-0.599 1.337,-1.337 C 1.337,0.598 0.738,0 0,0" /></g><g
         transform="translate(360.2943,951.0131)"
         id="g352"><path
           inkscape:connector-curvature="0"
           id="path354"
           style="fill:#ffffff;fill-opacity:1;fill-rule:nonzero;stroke:none"
           d="m 0,0 c -0.738,0 -1.337,0.598 -1.337,1.336 0,0.738 0.599,1.337 1.337,1.337 0.738,0 1.337,-0.599 1.337,-1.337 C 1.337,0.598 0.738,0 0,0" /></g><g
         transform="translate(179.595,949.6761)"
         id="g356"><path
           inkscape:connector-curvature="0"
           id="path358"
           style="fill:#ffffff;fill-opacity:1;fill-rule:nonzero;stroke:none"
           d="m 0,0 c -0.738,0 -1.337,0.599 -1.337,1.337 0,0.738 0.599,1.336 1.337,1.336 0.738,0 1.337,-0.598 1.337,-1.336 C 1.337,0.599 0.738,0 0,0" /></g><g
         transform="translate(317.9734,755.8217)"
         id="g360"><path
           inkscape:connector-curvature="0"
           id="path362"
           style="fill:#ffffff;fill-opacity:1;fill-rule:nonzero;stroke:none"
           d="m 0,0 c -0.738,0 -1.337,0.598 -1.337,1.336 0,0.738 0.599,1.337 1.337,1.337 0.738,0 1.337,-0.599 1.337,-1.337 C 1.337,0.598 0.738,0 0,0" /></g><g
         transform="translate(330.9788,1157.4496)"
         id="g364"><path
           inkscape:connector-curvature="0"
           id="path366"
           style="fill:#ffffff;fill-opacity:1;fill-rule:nonzero;stroke:none"
           d="m 0,0 c -0.738,0 -1.337,0.599 -1.337,1.337 0,0.738 0.599,1.336 1.337,1.336 0.738,0 1.337,-0.598 1.337,-1.336 C 1.337,0.599 0.738,0 0,0" /></g><g
         transform="translate(292.6261,1126.3842)"
         id="g368"><path
           inkscape:connector-curvature="0"
           id="path370"
           style="fill:#ffffff;fill-opacity:1;fill-rule:nonzero;stroke:none"
           d="m 0,0 c -0.738,0 -1.337,0.599 -1.337,1.336 0,0.738 0.599,1.337 1.337,1.337 0.738,0 1.337,-0.599 1.337,-1.337 C 1.337,0.599 0.738,0 0,0" /></g><g
         transform="translate(147.9717,511.6625)"
         id="g372"><path
           inkscape:connector-curvature="0"
           id="path374"
           style="fill:#ffffff;fill-opacity:1;fill-rule:nonzero;stroke:none"
           d="M 0,0 C 0,0.738 0.599,1.337 1.337,1.337 2.075,1.337 2.673,0.738 2.673,0 2.673,-0.738 2.075,-1.336 1.337,-1.336 0.599,-1.336 0,-0.738 0,0" /></g><g
         transform="translate(704.3031,1017.5863)"
         id="g376"><path
           inkscape:connector-curvature="0"
           id="path378"
           style="fill:#ffffff;fill-opacity:1;fill-rule:nonzero;stroke:none"
           d="m 0,0 c -0.738,0 -1.337,0.599 -1.337,1.337 0,0.738 0.599,1.336 1.337,1.336 0.738,0 1.337,-0.598 1.337,-1.336 C 1.337,0.599 0.738,0 0,0" /></g><g
         transform="translate(126.0001,396.1498)"
         id="g380"><path
           inkscape:connector-curvature="0"
           id="path382"
           style="fill:#ffffff;fill-opacity:1;fill-rule:nonzero;stroke:none"
           d="M 0,0 C 0,0.738 0.598,1.337 1.337,1.337 2.075,1.337 2.673,0.738 2.673,0 2.673,-0.738 2.075,-1.336 1.337,-1.336 0.598,-1.336 0,-0.738 0,0" /></g><g
         transform="translate(25.4214,507.1107)"
         id="g384"><path
           inkscape:connector-curvature="0"
           id="path386"
           style="fill:#ffffff;fill-opacity:1;fill-rule:nonzero;stroke:none"
           d="M 0,0 C 0,0.738 0.598,1.337 1.337,1.337 2.075,1.337 2.673,0.738 2.673,0 2.673,-0.737 2.075,-1.336 1.337,-1.336 0.598,-1.336 0,-0.737 0,0" /></g><g
         transform="translate(59.9019,421.2768)"
         id="g388"><path
           inkscape:connector-curvature="0"
           id="path390"
           style="fill:#ffffff;fill-opacity:1;fill-rule:nonzero;stroke:none"
           d="M 0,0 C 0,0.738 0.598,1.336 1.337,1.336 2.075,1.336 2.673,0.738 2.673,0 2.673,-0.738 2.075,-1.337 1.337,-1.337 0.598,-1.337 0,-0.738 0,0" /></g><g
         transform="translate(550.36,1033.1439)"
         id="g392"><path
           inkscape:connector-curvature="0"
           id="path394"
           style="fill:#ffffff;fill-opacity:1;fill-rule:nonzero;stroke:none"
           d="m 0,0 c -0.738,0 -1.337,0.599 -1.337,1.337 0,0.738 0.599,1.337 1.337,1.337 0.738,0 1.337,-0.599 1.337,-1.337 C 1.337,0.599 0.738,0 0,0" /></g><g
         transform="translate(605.7448,1145.8119)"
         id="g396"><path
           inkscape:connector-curvature="0"
           id="path398"
           style="fill:#ffffff;fill-opacity:1;fill-rule:nonzero;stroke:none"
           d="m 0,0 c -0.738,0 -1.336,0.598 -1.336,1.336 0,0.738 0.598,1.337 1.336,1.337 0.738,0 1.337,-0.599 1.337,-1.337 C 1.337,0.598 0.738,0 0,0" /></g><g
         transform="translate(712.3905,1156.309)"
         id="g400"><path
           inkscape:connector-curvature="0"
           id="path402"
           style="fill:#ffffff;fill-opacity:1;fill-rule:nonzero;stroke:none"
           d="m 0,0 c -0.738,0 -1.337,0.599 -1.337,1.337 0,0.738 0.599,1.336 1.337,1.336 0.738,0 1.337,-0.598 1.337,-1.336 C 1.337,0.599 0.738,0 0,0" /></g><g
         transform="translate(613.3248,1063.6625)"
         id="g404"><path
           inkscape:connector-curvature="0"
           id="path406"
           style="fill:#ffffff;fill-opacity:1;fill-rule:nonzero;stroke:none"
           d="m 0,0 c -0.738,0 -1.337,0.599 -1.337,1.337 0,0.738 0.599,1.337 1.337,1.337 0.738,0 1.337,-0.599 1.337,-1.337 C 1.337,0.599 0.738,0 0,0" /></g><g
         transform="translate(549.0233,1094.6761)"
         id="g408"><path
           inkscape:connector-curvature="0"
           id="path410"
           style="fill:#ffffff;fill-opacity:1;fill-rule:nonzero;stroke:none"
           d="m 0,0 c -0.738,0 -1.337,0.599 -1.337,1.336 0,0.738 0.599,1.337 1.337,1.337 0.738,0 1.337,-0.599 1.337,-1.337 C 1.337,0.599 0.738,0 0,0" /></g><g
         transform="translate(705.6398,1071.0482)"
         id="g412"><path
           inkscape:connector-curvature="0"
           id="path414"
           style="fill:#ffffff;fill-opacity:1;fill-rule:nonzero;stroke:none"
           d="m 0,0 c -0.738,0 -1.337,0.599 -1.337,1.337 0,0.738 0.599,1.336 1.337,1.336 0.738,0 1.336,-0.598 1.336,-1.336 C 1.336,0.599 0.738,0 0,0" /></g><g
         transform="translate(465.3241,1152.2992)"
         id="g416"><path
           inkscape:connector-curvature="0"
           id="path418"
           style="fill:#ffffff;fill-opacity:1;fill-rule:nonzero;stroke:none"
           d="m 0,0 c -0.738,0 -1.336,0.599 -1.336,1.337 0,0.738 0.598,1.336 1.336,1.336 0.738,0 1.337,-0.598 1.337,-1.336 C 1.337,0.599 0.738,0 0,0" /></g><g
         transform="translate(787.942,1125.0472)"
         id="g420"><path
           inkscape:connector-curvature="0"
           id="path422"
           style="fill:#ffffff;fill-opacity:1;fill-rule:nonzero;stroke:none"
           d="m 0,0 c -0.738,0 -1.337,0.599 -1.337,1.337 0,0.738 0.599,1.336 1.337,1.336 0.738,0 1.336,-0.598 1.336,-1.336 C 1.336,0.599 0.738,0 0,0" /></g><g
         transform="translate(806.5573,1036.9174)"
         id="g424"><path
           inkscape:connector-curvature="0"
           id="path426"
           style="fill:#ffffff;fill-opacity:1;fill-rule:nonzero;stroke:none"
           d="m 0,0 c -0.738,0 -1.336,0.599 -1.336,1.337 0,0.737 0.598,1.336 1.336,1.336 0.738,0 1.337,-0.599 1.337,-1.336 C 1.337,0.599 0.738,0 0,0" /></g><g
         transform="translate(572.6866,968.265)"
         id="g428"><path
           inkscape:connector-curvature="0"
           id="path430"
           style="fill:#ffffff;fill-opacity:1;fill-rule:nonzero;stroke:none"
           d="m 0,0 c -0.738,0 -1.337,0.599 -1.337,1.337 0,0.738 0.599,1.337 1.337,1.337 0.738,0 1.337,-0.599 1.337,-1.337 C 1.337,0.599 0.738,0 0,0" /></g><g
         transform="translate(456.0233,1072.3851)"
         id="g432"><path
           inkscape:connector-curvature="0"
           id="path434"
           style="fill:#ffffff;fill-opacity:1;fill-rule:nonzero;stroke:none"
           d="m 0,0 c -0.738,0 -1.337,0.598 -1.337,1.336 0,0.738 0.599,1.337 1.337,1.337 0.738,0 1.337,-0.599 1.337,-1.337 C 1.337,0.598 0.738,0 0,0" /></g><g
         transform="translate(466.6608,998.1478)"
         id="g436"><path
           inkscape:connector-curvature="0"
           id="path438"
           style="fill:#ffffff;fill-opacity:1;fill-rule:nonzero;stroke:none"
           d="m 0,0 c -0.738,0 -1.337,0.599 -1.337,1.337 0,0.738 0.599,1.337 1.337,1.337 0.738,0 1.337,-0.599 1.337,-1.337 C 1.337,0.599 0.738,0 0,0" /></g><g
         transform="translate(101.2918,550.4633)"
         id="g440"><path
           inkscape:connector-curvature="0"
           id="path442"
           style="fill:#ffffff;fill-opacity:1;fill-rule:nonzero;stroke:none"
           d="M 0,0 C 0,0.738 0.598,1.337 1.337,1.337 2.075,1.337 2.673,0.738 2.673,0 2.673,-0.738 2.075,-1.337 1.337,-1.337 0.598,-1.337 0,-0.738 0,0" /></g><g
         transform="translate(750.0277,1020.2592)"
         id="g444"><path
           inkscape:connector-curvature="0"
           id="path446"
           style="fill:#ffffff;fill-opacity:1;fill-rule:nonzero;stroke:none"
           d="m 0,0 c -0.738,0 -1.337,0.599 -1.337,1.337 0,0.738 0.599,1.337 1.337,1.337 0.738,0 1.337,-0.599 1.337,-1.337 C 1.337,0.599 0.738,0 0,0" /></g><g
         transform="translate(433.0233,1117.7377)"
         id="g448"><path
           inkscape:connector-curvature="0"
           id="path450"
           style="fill:#ffffff;fill-opacity:1;fill-rule:nonzero;stroke:none"
           d="m 0,0 c -0.738,0 -1.337,0.599 -1.337,1.337 0,0.738 0.599,1.337 1.337,1.337 0.738,0 1.337,-0.599 1.337,-1.337 C 1.337,0.599 0.738,0 0,0" /></g><g
         transform="translate(115.0419,242.6059)"
         id="g452"><path
           inkscape:connector-curvature="0"
           id="path454"
           style="fill:#ffffff;fill-opacity:1;fill-rule:nonzero;stroke:none"
           d="M 0,0 C 0,0.738 0.598,1.337 1.337,1.337 2.075,1.337 2.673,0.738 2.673,0 2.673,-0.738 2.075,-1.336 1.337,-1.336 0.598,-1.336 0,-0.738 0,0" /></g><g
         transform="translate(636.36,996.8119)"
         id="g456"><path
           inkscape:connector-curvature="0"
           id="path458"
           style="fill:#ffffff;fill-opacity:1;fill-rule:nonzero;stroke:none"
           d="m 0,0 c -0.738,0 -1.337,0.598 -1.337,1.336 0,0.738 0.599,1.337 1.337,1.337 0.738,0 1.337,-0.599 1.337,-1.337 C 1.337,0.598 0.738,0 0,0" /></g><g
         transform="translate(61.2385,310.1547)"
         id="g460"><path
           inkscape:connector-curvature="0"
           id="path462"
           style="fill:#ffffff;fill-opacity:1;fill-rule:nonzero;stroke:none"
           d="M 0,0 C 0,0.738 0.598,1.337 1.337,1.337 2.075,1.337 2.673,0.738 2.673,0 2.673,-0.738 2.075,-1.337 1.337,-1.337 0.598,-1.337 0,-0.738 0,0" /></g><g
         transform="translate(696.264,550.0248)"
         id="g464"><path
           inkscape:connector-curvature="0"
           id="path466"
           style="fill:#ffffff;fill-opacity:1;fill-rule:nonzero;stroke:none"
           d="m 0,0 c 0,-0.738 -0.598,-1.337 -1.337,-1.337 -0.738,0 -1.336,0.599 -1.336,1.337 0,0.737 0.598,1.336 1.336,1.336 C -0.598,1.336 0,0.737 0,0" /></g><g
         transform="translate(742.2172,726.7914)"
         id="g468"><path
           inkscape:connector-curvature="0"
           id="path470"
           style="fill:#ffffff;fill-opacity:1;fill-rule:nonzero;stroke:none"
           d="m 0,0 c 0,-0.738 -0.599,-1.337 -1.337,-1.337 -0.738,0 -1.336,0.599 -1.336,1.337 0,0.738 0.598,1.336 1.336,1.336 C -0.599,1.336 0,0.738 0,0" /></g><g
         transform="translate(820.151,567.7914)"
         id="g472"><path
           inkscape:connector-curvature="0"
           id="path474"
           style="fill:#ffffff;fill-opacity:1;fill-rule:nonzero;stroke:none"
           d="m 0,0 c 0,-0.738 -0.598,-1.337 -1.337,-1.337 -0.738,0 -1.336,0.599 -1.336,1.337 0,0.738 0.598,1.337 1.336,1.337 C -0.598,1.337 0,0.738 0,0" /></g><g
         transform="translate(727.525,155.9975)"
         id="g476"><path
           inkscape:connector-curvature="0"
           id="path478"
           style="fill:#ffffff;fill-opacity:1;fill-rule:nonzero;stroke:none"
           d="m 0,0 c 0,-0.738 -0.598,-1.337 -1.336,-1.337 -0.739,0 -1.337,0.599 -1.337,1.337 0,0.738 0.598,1.336 1.337,1.336 C -0.598,1.336 0,0.738 0,0" /></g><g
         transform="translate(704.3031,926.9633)"
         id="g480"><path
           inkscape:connector-curvature="0"
           id="path482"
           style="fill:#ffffff;fill-opacity:1;fill-rule:nonzero;stroke:none"
           d="m 0,0 c 0,-0.738 -0.598,-1.337 -1.337,-1.337 -0.738,0 -1.336,0.599 -1.336,1.337 0,0.737 0.598,1.336 1.336,1.336 C -0.598,1.336 0,0.737 0,0" /></g><g
         transform="translate(771.3702,670.7621)"
         id="g484"><path
           inkscape:connector-curvature="0"
           id="path486"
           style="fill:#ffffff;fill-opacity:1;fill-rule:nonzero;stroke:none"
           d="m 0,0 c 0,-0.738 -0.598,-1.337 -1.337,-1.337 -0.738,0 -1.336,0.599 -1.336,1.337 0,0.738 0.598,1.337 1.336,1.337 C -0.598,1.337 0,0.738 0,0" /></g><g
         transform="translate(806.5573,953.6859)"
         id="g488"><path
           inkscape:connector-curvature="0"
           id="path490"
           style="fill:#ffffff;fill-opacity:1;fill-rule:nonzero;stroke:none"
           d="m 0,0 c 0,-0.738 -0.598,-1.337 -1.336,-1.337 -0.739,0 -1.337,0.599 -1.337,1.337 0,0.738 0.598,1.337 1.337,1.337 C -0.598,1.337 0,0.738 0,0" /></g><g
         transform="translate(744.2806,524.4398)"
         id="g492"><path
           inkscape:connector-curvature="0"
           id="path494"
           style="fill:#ffffff;fill-opacity:1;fill-rule:nonzero;stroke:none"
           d="m 0,0 c 0,-0.738 -0.598,-1.337 -1.337,-1.337 -0.738,0 -1.336,0.599 -1.336,1.337 0,0.737 0.598,1.336 1.336,1.336 C -0.598,1.336 0,0.737 0,0" /></g><g
         transform="translate(646.3849,481.2123)"
         id="g496"><path
           inkscape:connector-curvature="0"
           id="path498"
           style="fill:#ffffff;fill-opacity:1;fill-rule:nonzero;stroke:none"
           d="m 0,0 c 0,-0.738 -0.598,-1.336 -1.337,-1.336 -0.738,0 -1.336,0.598 -1.336,1.336 0,0.738 0.598,1.337 1.336,1.337 C -0.598,1.337 0,0.738 0,0" /></g><g
         transform="translate(730.5304,832.2963)"
         id="g500"><path
           inkscape:connector-curvature="0"
           id="path502"
           style="fill:#ffffff;fill-opacity:1;fill-rule:nonzero;stroke:none"
           d="m 0,0 c 0,-0.738 -0.598,-1.336 -1.336,-1.336 -0.739,0 -1.337,0.598 -1.337,1.336 0,0.738 0.598,1.337 1.337,1.337 C -0.598,1.337 0,0.738 0,0" /></g><g
         transform="translate(784.3339,764.7484)"
         id="g504"><path
           inkscape:connector-curvature="0"
           id="path506"
           style="fill:#ffffff;fill-opacity:1;fill-rule:nonzero;stroke:none"
           d="m 0,0 c 0,-0.738 -0.598,-1.337 -1.337,-1.337 -0.738,0 -1.336,0.599 -1.336,1.337 0,0.737 0.598,1.336 1.336,1.336 C -0.598,1.336 0,0.737 0,0" /></g><g
         transform="translate(473.1605,935.5795)"
         id="g508"><path
           inkscape:connector-curvature="0"
           id="path510"
           style="fill:#ffffff;fill-opacity:1;fill-rule:nonzero;stroke:none"
           d="m 0,0 c -0.738,0 -1.337,0.599 -1.337,1.337 0,0.738 0.599,1.337 1.337,1.337 0.738,0 1.336,-0.599 1.336,-1.337 C 1.336,0.599 0.738,0 0,0" /></g><g
         transform="translate(628.1276,907.4203)"
         id="g512"><path
           inkscape:connector-curvature="0"
           id="path514"
           style="fill:#ffffff;fill-opacity:1;fill-rule:nonzero;stroke:none"
           d="m 0,0 c -0.738,0 -1.337,0.599 -1.337,1.337 0,0.738 0.599,1.336 1.337,1.336 0.738,0 1.336,-0.598 1.336,-1.336 C 1.336,0.599 0.738,0 0,0" /></g><g
         transform="translate(451.5598,122.0199)"
         id="g516"><path
           inkscape:connector-curvature="0"
           id="path518"
           style="fill:#ffffff;fill-opacity:1;fill-rule:nonzero;stroke:none"
           d="m 0,0 c -0.738,0 -1.337,0.598 -1.337,1.336 0,0.738 0.599,1.337 1.337,1.337 0.738,0 1.337,-0.599 1.337,-1.337 C 1.337,0.598 0.738,0 0,0" /></g><g
         transform="translate(322.3225,81.9213)"
         id="g520"><path
           inkscape:connector-curvature="0"
           id="path522"
           style="fill:#ffffff;fill-opacity:1;fill-rule:nonzero;stroke:none"
           d="m 0,0 c -0.738,0 -1.337,0.598 -1.337,1.336 0,0.738 0.599,1.337 1.337,1.337 0.738,0 1.337,-0.599 1.337,-1.337 C 1.337,0.598 0.738,0 0,0" /></g><g
         transform="translate(371.0984,276.2025)"
         id="g524"><path
           inkscape:connector-curvature="0"
           id="path526"
           style="fill:#ffffff;fill-opacity:1;fill-rule:nonzero;stroke:none"
           d="m 0,0 c -0.738,0 -1.337,0.599 -1.337,1.337 0,0.738 0.599,1.336 1.337,1.336 0.738,0 1.337,-0.598 1.337,-1.336 C 1.337,0.599 0.738,0 0,0" /></g><g
         transform="translate(210.2077,345.1479)"
         id="g528"><path
           inkscape:connector-curvature="0"
           id="path530"
           style="fill:#ffffff;fill-opacity:1;fill-rule:nonzero;stroke:none"
           d="m 0,0 c -0.738,0 -1.337,0.599 -1.337,1.337 0,0.738 0.599,1.337 1.337,1.337 0.738,0 1.337,-0.599 1.337,-1.337 C 1.337,0.599 0.738,0 0,0" /></g><g
         transform="translate(477.744,286.6996)"
         id="g532"><path
           inkscape:connector-curvature="0"
           id="path534"
           style="fill:#ffffff;fill-opacity:1;fill-rule:nonzero;stroke:none"
           d="m 0,0 c -0.738,0 -1.337,0.599 -1.337,1.337 0,0.738 0.599,1.337 1.337,1.337 0.738,0 1.337,-0.599 1.337,-1.337 C 1.337,0.599 0.738,0 0,0" /></g><g
         transform="translate(570.5743,345.1479)"
         id="g536"><path
           inkscape:connector-curvature="0"
           id="path538"
           style="fill:#ffffff;fill-opacity:1;fill-rule:nonzero;stroke:none"
           d="m 0,0 c -0.738,0 -1.337,0.599 -1.337,1.337 0,0.738 0.599,1.337 1.337,1.337 0.738,0 1.336,-0.599 1.336,-1.337 C 1.336,0.599 0.738,0 0,0" /></g><g
         transform="translate(544.8043,433.265)"
         id="g540"><path
           inkscape:connector-curvature="0"
           id="path542"
           style="fill:#ffffff;fill-opacity:1;fill-rule:nonzero;stroke:none"
           d="m 0,0 c -0.738,0 -1.337,0.599 -1.337,1.337 0,0.738 0.599,1.336 1.337,1.336 0.738,0 1.337,-0.598 1.337,-1.336 C 1.337,0.599 0.738,0 0,0" /></g><g
         transform="translate(378.6783,194.0541)"
         id="g544"><path
           inkscape:connector-curvature="0"
           id="path546"
           style="fill:#ffffff;fill-opacity:1;fill-rule:nonzero;stroke:none"
           d="m 0,0 c -0.738,0 -1.337,0.599 -1.337,1.337 0,0.737 0.599,1.336 1.337,1.336 0.738,0 1.337,-0.599 1.337,-1.336 C 1.337,0.599 0.738,0 0,0" /></g><g
         transform="translate(314.3768,225.0668)"
         id="g548"><path
           inkscape:connector-curvature="0"
           id="path550"
           style="fill:#ffffff;fill-opacity:1;fill-rule:nonzero;stroke:none"
           d="m 0,0 c -0.738,0 -1.337,0.599 -1.337,1.337 0,0.738 0.599,1.336 1.337,1.336 0.738,0 1.337,-0.598 1.337,-1.336 C 1.337,0.599 0.738,0 0,0" /></g><g
         transform="translate(470.9933,201.4389)"
         id="g552"><path
           inkscape:connector-curvature="0"
           id="path554"
           style="fill:#ffffff;fill-opacity:1;fill-rule:nonzero;stroke:none"
           d="m 0,0 c -0.738,0 -1.337,0.599 -1.337,1.337 0,0.738 0.599,1.337 1.337,1.337 0.738,0 1.336,-0.599 1.336,-1.337 C 1.336,0.599 0.738,0 0,0" /></g><g
         transform="translate(408.36,371.1479)"
         id="g556"><path
           inkscape:connector-curvature="0"
           id="path558"
           style="fill:#ffffff;fill-opacity:1;fill-rule:nonzero;stroke:none"
           d="m 0,0 c -0.738,0 -1.337,0.599 -1.337,1.337 0,0.738 0.599,1.337 1.337,1.337 0.738,0 1.337,-0.599 1.337,-1.337 C 1.337,0.599 0.738,0 0,0" /></g><g
         transform="translate(206.3629,281.3539)"
         id="g560"><path
           inkscape:connector-curvature="0"
           id="path562"
           style="fill:#ffffff;fill-opacity:1;fill-rule:nonzero;stroke:none"
           d="m 0,0 c -0.738,0 -1.337,0.599 -1.337,1.336 0,0.738 0.599,1.337 1.337,1.337 0.738,0 1.337,-0.599 1.337,-1.337 C 1.337,0.599 0.738,0 0,0" /></g><g
         transform="translate(47.2233,200.1029)"
         id="g564"><path
           inkscape:connector-curvature="0"
           id="path566"
           style="fill:#ffffff;fill-opacity:1;fill-rule:nonzero;stroke:none"
           d="m 0,0 c -0.738,0 -1.337,0.598 -1.337,1.336 0,0.738 0.599,1.337 1.337,1.337 0.738,0 1.337,-0.599 1.337,-1.337 C 1.337,0.598 0.738,0 0,0" /></g><g
         transform="translate(553.2955,255.4379)"
         id="g568"><path
           inkscape:connector-curvature="0"
           id="path570"
           style="fill:#ffffff;fill-opacity:1;fill-rule:nonzero;stroke:none"
           d="m 0,0 c -0.738,0 -1.337,0.599 -1.337,1.337 0,0.738 0.599,1.337 1.337,1.337 0.738,0 1.336,-0.599 1.336,-1.337 C 1.336,0.599 0.738,0 0,0" /></g><g
         transform="translate(571.9108,167.308)"
         id="g572"><path
           inkscape:connector-curvature="0"
           id="path574"
           style="fill:#ffffff;fill-opacity:1;fill-rule:nonzero;stroke:none"
           d="m 0,0 c -0.738,0 -1.336,0.599 -1.336,1.337 0,0.738 0.598,1.337 1.336,1.337 0.738,0 1.337,-0.599 1.337,-1.337 C 1.337,0.599 0.738,0 0,0" /></g><g
         transform="translate(693.5907,248.1293)"
         id="g576"><path
           inkscape:connector-curvature="0"
           id="path578"
           style="fill:#ffffff;fill-opacity:1;fill-rule:nonzero;stroke:none"
           d="m 0,0 c -0.738,0 -1.337,0.598 -1.337,1.336 0,0.738 0.599,1.337 1.337,1.337 0.738,0 1.337,-0.599 1.337,-1.337 C 1.337,0.598 0.738,0 0,0" /></g><g
         transform="translate(780.9159,334.1576)"
         id="g580"><path
           inkscape:connector-curvature="0"
           id="path582"
           style="fill:#ffffff;fill-opacity:1;fill-rule:nonzero;stroke:none"
           d="m 0,0 c -0.738,0 -1.337,0.599 -1.337,1.337 0,0.738 0.599,1.337 1.337,1.337 0.738,0 1.337,-0.599 1.337,-1.337 C 1.337,0.599 0.738,0 0,0" /></g><g
         transform="translate(343.072,153.3236)"
         id="g584"><path
           inkscape:connector-curvature="0"
           id="path586"
           style="fill:#ffffff;fill-opacity:1;fill-rule:nonzero;stroke:none"
           d="m 0,0 c -0.738,0 -1.337,0.599 -1.337,1.337 0,0.738 0.599,1.337 1.337,1.337 0.738,0 1.337,-0.599 1.337,-1.337 C 1.337,0.599 0.738,0 0,0" /></g><g
         transform="translate(194.8661,191.3803)"
         id="g588"><path
           inkscape:connector-curvature="0"
           id="path590"
           style="fill:#ffffff;fill-opacity:1;fill-rule:nonzero;stroke:none"
           d="m 0,0 c -0.738,0 -1.337,0.599 -1.337,1.337 0,0.738 0.599,1.337 1.337,1.337 0.738,0 1.337,-0.599 1.337,-1.337 C 1.337,0.599 0.738,0 0,0" /></g><g
         transform="translate(44.5501,21.6606)"
         id="g592"><path
           inkscape:connector-curvature="0"
           id="path594"
           style="fill:#ffffff;fill-opacity:1;fill-rule:nonzero;stroke:none"
           d="m 0,0 c -0.738,0 -1.337,0.598 -1.337,1.336 0,0.738 0.599,1.337 1.337,1.337 0.738,0 1.337,-0.599 1.337,-1.337 C 1.337,0.598 0.738,0 0,0" /></g><g
         transform="translate(25.4214,227.7397)"
         id="g596"><path
           inkscape:connector-curvature="0"
           id="path598"
           style="fill:#ffffff;fill-opacity:1;fill-rule:nonzero;stroke:none"
           d="m 0,0 c -0.738,0 -1.337,0.599 -1.337,1.337 0,0.738 0.599,1.337 1.337,1.337 0.738,0 1.337,-0.599 1.337,-1.337 C 1.337,0.599 0.738,0 0,0" /></g><g
         transform="translate(282.8929,190.0443)"
         id="g600"><path
           inkscape:connector-curvature="0"
           id="path602"
           style="fill:#ffffff;fill-opacity:1;fill-rule:nonzero;stroke:none"
           d="m 0,0 c -0.738,0 -1.337,0.599 -1.337,1.337 0,0.737 0.599,1.336 1.337,1.336 0.738,0 1.337,-0.599 1.337,-1.336 C 1.337,0.599 0.738,0 0,0" /></g><g
         transform="translate(515.3812,150.6508)"
         id="g604"><path
           inkscape:connector-curvature="0"
           id="path606"
           style="fill:#ffffff;fill-opacity:1;fill-rule:nonzero;stroke:none"
           d="m 0,0 c -0.738,0 -1.337,0.599 -1.337,1.337 0,0.737 0.599,1.336 1.337,1.336 0.738,0 1.337,-0.599 1.337,-1.336 C 1.337,0.599 0.738,0 0,0" /></g><g
         transform="translate(768.6969,412.558)"
         id="g608"><path
           inkscape:connector-curvature="0"
           id="path610"
           style="fill:#ffffff;fill-opacity:1;fill-rule:nonzero;stroke:none"
           d="m 0,0 c -0.738,0 -1.336,0.599 -1.336,1.337 0,0.738 0.598,1.337 1.336,1.337 0.738,0 1.337,-0.599 1.337,-1.337 C 1.337,0.599 0.738,0 0,0" /></g><g
         transform="translate(289.2524,282.6898)"
         id="g612"><path
           inkscape:connector-curvature="0"
           id="path614"
           style="fill:#ffffff;fill-opacity:1;fill-rule:nonzero;stroke:none"
           d="m 0,0 c -0.738,0 -1.337,0.599 -1.337,1.337 0,0.738 0.599,1.337 1.337,1.337 0.738,0 1.337,-0.599 1.337,-1.337 C 1.337,0.599 0.738,0 0,0" /></g><g
         transform="translate(420.9448,195.391)"
         id="g616"><path
           inkscape:connector-curvature="0"
           id="path618"
           style="fill:#ffffff;fill-opacity:1;fill-rule:nonzero;stroke:none"
           d="m 0,0 c -0.738,0 -1.337,0.598 -1.337,1.336 0,0.738 0.599,1.337 1.337,1.337 0.738,0 1.337,-0.599 1.337,-1.337 C 1.337,0.598 0.738,0 0,0" /></g><g
         transform="translate(469.6566,57.3539)"
         id="g620"><path
           inkscape:connector-curvature="0"
           id="path622"
           style="fill:#ffffff;fill-opacity:1;fill-rule:nonzero;stroke:none"
           d="m 0,0 c 0,-0.738 -0.598,-1.337 -1.337,-1.337 -0.738,0 -1.336,0.599 -1.336,1.337 0,0.738 0.598,1.337 1.336,1.337 C -0.598,1.337 0,0.738 0,0" /></g><g
         transform="translate(820.151,202.7758)"
         id="g624"><path
           inkscape:connector-curvature="0"
           id="path626"
           style="fill:#ffffff;fill-opacity:1;fill-rule:nonzero;stroke:none"
           d="m 0,0 c 0,-0.738 -0.598,-1.337 -1.337,-1.337 -0.738,0 -1.336,0.599 -1.336,1.337 0,0.738 0.598,1.337 1.336,1.337 C -0.598,1.337 0,0.738 0,0" /></g><g
         transform="translate(331.2076,332.8217)"
         id="g628"><path
           inkscape:connector-curvature="0"
           id="path630"
           style="fill:#ffffff;fill-opacity:1;fill-rule:nonzero;stroke:none"
           d="m 0,0 c 0,-0.738 -0.599,-1.337 -1.337,-1.337 -0.738,0 -1.336,0.599 -1.336,1.337 0,0.738 0.598,1.336 1.336,1.336 C -0.599,1.336 0,0.738 0,0" /></g><g
         transform="translate(651.1368,365.4848)"
         id="g632"><path
           inkscape:connector-curvature="0"
           id="path634"
           style="fill:#ffffff;fill-opacity:1;fill-rule:nonzero;stroke:none"
           d="m 0,0 c 0,-0.738 -0.599,-1.337 -1.337,-1.337 -0.738,0 -1.336,0.599 -1.336,1.337 0,0.738 0.598,1.337 1.336,1.337 C -0.599,1.337 0,0.738 0,0" /></g><g
         transform="translate(649.8002,200.1029)"
         id="g636"><path
           inkscape:connector-curvature="0"
           id="path638"
           style="fill:#ffffff;fill-opacity:1;fill-rule:nonzero;stroke:none"
           d="m 0,0 c 0,-0.738 -0.598,-1.337 -1.337,-1.337 -0.738,0 -1.336,0.599 -1.336,1.337 0,0.738 0.598,1.336 1.336,1.336 C -0.598,1.336 0,0.738 0,0" /></g><g
         transform="translate(807.6967,37.8109)"
         id="g640"><path
           inkscape:connector-curvature="0"
           id="path642"
           style="fill:#ffffff;fill-opacity:1;fill-rule:nonzero;stroke:none"
           d="m 0,0 c 0,-0.737 -0.599,-1.336 -1.337,-1.336 -0.738,0 -1.336,0.599 -1.336,1.336 0,0.738 0.598,1.337 1.336,1.337 C -0.599,1.337 0,0.738 0,0" /></g><g
         transform="translate(229.615,123.3559)"
         id="g644"><path
           inkscape:connector-curvature="0"
           id="path646"
           style="fill:#ffffff;fill-opacity:1;fill-rule:nonzero;stroke:none"
           d="m 0,0 c -0.738,0 -1.337,0.599 -1.337,1.337 0,0.738 0.599,1.337 1.337,1.337 0.738,0 1.337,-0.599 1.337,-1.337 C 1.337,0.599 0.738,0 0,0" /></g><g
         transform="translate(113.3318,101.3295)"
         id="g648"><path
           inkscape:connector-curvature="0"
           id="path650"
           style="fill:#ffffff;fill-opacity:1;fill-rule:nonzero;stroke:none"
           d="m 0,0 c -0.738,0 -1.337,0.599 -1.337,1.337 0,0.738 0.599,1.337 1.337,1.337 0.738,0 1.337,-0.599 1.337,-1.337 C 1.337,0.599 0.738,0 0,0" /></g><g
         transform="translate(393.481,37.8109)"
         id="g652"><path
           inkscape:connector-curvature="0"
           id="path654"
           style="fill:#ffffff;fill-opacity:1;fill-rule:nonzero;stroke:none"
           d="m 0,0 c -0.738,0 -1.337,0.599 -1.337,1.337 0,0.738 0.599,1.337 1.337,1.337 0.738,0 1.337,-0.599 1.337,-1.337 C 1.337,0.599 0.738,0 0,0" /></g><g
         transform="translate(477.712,813.0297)"
         id="g656"><path
           inkscape:connector-curvature="0"
           id="path658"
           style="fill:#ffffff;fill-opacity:1;fill-rule:nonzero;stroke:none"
           d="m 0,0 c -0.738,0 -1.337,0.598 -1.337,1.336 0,0.738 0.599,1.337 1.337,1.337 0.738,0 1.337,-0.599 1.337,-1.337 C 1.337,0.598 0.738,0 0,0" /></g><g
         transform="translate(580.6827,861.8099)"
         id="g660"><path
           inkscape:connector-curvature="0"
           id="path662"
           style="fill:#ffffff;fill-opacity:1;fill-rule:nonzero;stroke:none"
           d="m 0,0 c -0.738,0 -1.337,0.599 -1.337,1.337 0,0.738 0.599,1.337 1.337,1.337 0.738,0 1.337,-0.599 1.337,-1.337 C 1.337,0.599 0.738,0 0,0" /></g><g
         transform="translate(500.3944,874.1478)"
         id="g664"><path
           inkscape:connector-curvature="0"
           id="path666"
           style="fill:#ffffff;fill-opacity:1;fill-rule:nonzero;stroke:none"
           d="m 0,0 c -0.738,0 -1.337,0.599 -1.337,1.337 0,0.738 0.599,1.337 1.337,1.337 0.738,0 1.337,-0.599 1.337,-1.337 C 1.337,0.599 0.738,0 0,0" /></g><g
         transform="translate(434.36,888.8998)"
         id="g668"><path
           inkscape:connector-curvature="0"
           id="path670"
           style="fill:#ffffff;fill-opacity:1;fill-rule:nonzero;stroke:none"
           d="m 0,0 c -0.738,0 -1.337,0.599 -1.337,1.337 0,0.738 0.599,1.336 1.337,1.336 0.738,0 1.337,-0.598 1.337,-1.336 C 1.337,0.599 0.738,0 0,0" /></g><g
         transform="translate(742.2172,902.6498)"
         id="g672"><path
           inkscape:connector-curvature="0"
           id="path674"
           style="fill:#ffffff;fill-opacity:1;fill-rule:nonzero;stroke:none"
           d="m 0,0 c -0.738,0 -1.337,0.599 -1.337,1.337 0,0.738 0.599,1.336 1.337,1.336 0.738,0 1.336,-0.598 1.336,-1.336 C 1.336,0.599 0.738,0 0,0" /></g><g
         transform="translate(674.6686,848.8461)"
         id="g676"><path
           inkscape:connector-curvature="0"
           id="path678"
           style="fill:#ffffff;fill-opacity:1;fill-rule:nonzero;stroke:none"
           d="m 0,0 c -0.738,0 -1.337,0.599 -1.337,1.337 0,0.738 0.599,1.337 1.337,1.337 0.738,0 1.337,-0.599 1.337,-1.337 C 1.337,0.599 0.738,0 0,0" /></g><g
         transform="translate(365.2255,1096.0121)"
         id="g680"><path
           inkscape:connector-curvature="0"
           id="path682"
           style="fill:#ffffff;fill-opacity:1;fill-rule:nonzero;stroke:none"
           d="m 0,0 c -0.738,0 -1.337,0.599 -1.337,1.337 0,0.738 0.599,1.337 1.337,1.337 0.738,0 1.337,-0.599 1.337,-1.337 C 1.337,0.599 0.738,0 0,0" /></g><g
         transform="translate(382.8247,623.5004)"
         id="g684"><path
           inkscape:connector-curvature="0"
           id="path686"
           style="fill:#ffffff;fill-opacity:1;fill-rule:nonzero;stroke:none"
           d="m 0,0 c -0.738,0 -1.337,0.599 -1.337,1.336 0,0.738 0.599,1.337 1.337,1.337 0.738,0 1.337,-0.599 1.337,-1.337 C 1.337,0.599 0.738,0 0,0" /></g><g
         transform="translate(343.072,806.4847)"
         id="g688"><path
           inkscape:connector-curvature="0"
           id="path690"
           style="fill:#ffffff;fill-opacity:1;fill-rule:nonzero;stroke:none"
           d="m 0,0 c -0.738,0 -1.337,0.599 -1.337,1.337 0,0.738 0.599,1.336 1.337,1.336 0.738,0 1.337,-0.598 1.337,-1.336 C 1.337,0.599 0.738,0 0,0" /></g><g
         transform="translate(54.1455,859.2523)"
         id="g692"><path
           inkscape:connector-curvature="0"
           id="path694"
           style="fill:#ffffff;fill-opacity:1;fill-rule:nonzero;stroke:none"
           d="m 0,0 c -0.738,0 -1.337,0.599 -1.337,1.337 0,0.738 0.599,1.337 1.337,1.337 0.738,0 1.337,-0.599 1.337,-1.337 C 1.337,0.599 0.738,0 0,0" /></g><g
         transform="translate(311.5073,1014.7211)"
         id="g696"><path
           inkscape:connector-curvature="0"
           id="path698"
           style="fill:#ffffff;fill-opacity:1;fill-rule:nonzero;stroke:none"
           d="m 0,0 c -0.738,0 -1.337,0.599 -1.337,1.336 0,0.738 0.599,1.337 1.337,1.337 0.738,0 1.337,-0.599 1.337,-1.337 C 1.337,0.599 0.738,0 0,0" /></g><g
         transform="translate(272.1552,966.9291)"
         id="g700"><path
           inkscape:connector-curvature="0"
           id="path702"
           style="fill:#ffffff;fill-opacity:1;fill-rule:nonzero;stroke:none"
           d="m 0,0 c -0.738,0 -1.337,0.599 -1.337,1.336 0,0.738 0.599,1.337 1.337,1.337 0.738,0 1.337,-0.599 1.337,-1.337 C 1.337,0.599 0.738,0 0,0" /></g><g
         transform="translate(93.36,788.9047)"
         id="g704"><path
           inkscape:connector-curvature="0"
           id="path706"
           style="fill:#ffffff;fill-opacity:1;fill-rule:nonzero;stroke:none"
           d="m 0,0 c -0.738,0 -1.337,0.599 -1.337,1.337 0,0.738 0.599,1.337 1.337,1.337 0.738,0 1.337,-0.599 1.337,-1.337 C 1.337,0.599 0.738,0 0,0" /></g></g><g
       id="g1208"><g
         clip-path="url(#clipPath1214)"
         id="g1210"><g
           transform="translate(115.5095,10.9633)"
           id="g1216"><path
             inkscape:connector-curvature="0"
             id="path1218"
             style="fill:none;stroke:#ffffff;stroke-width:2.83500004;stroke-linecap:butt;stroke-linejoin:miter;stroke-miterlimit:10;stroke-dasharray:none;stroke-opacity:1"
             d="m 0,0 c 0,-49.055 -39.767,-88.822 -88.822,-88.822 -49.054,0 -88.821,39.767 -88.821,88.822 0,49.055 39.767,88.821 88.821,88.821 C -39.767,88.821 0,49.055 0,0 Z" /></g><g
           transform="translate(218.4257,10.9633)"
           id="g1220"><path
             inkscape:connector-curvature="0"
             id="path1222"
             style="fill:none;stroke:#ffffff;stroke-width:2.83500004;stroke-linecap:butt;stroke-linejoin:miter;stroke-miterlimit:10;stroke-dasharray:none;stroke-opacity:1"
             d="m 0,0 c 0,-105.895 -85.844,-191.738 -191.738,-191.738 -105.894,0 -191.737,85.843 -191.737,191.738 0,105.894 85.843,191.737 191.737,191.737 C -85.844,191.737 0,105.894 0,0 Z" /></g><g
           transform="translate(306.0881,10.9633)"
           id="g1224"><path
             inkscape:connector-curvature="0"
             id="path1226"
             style="fill:none;stroke:#ffffff;stroke-width:2.83500004;stroke-linecap:butt;stroke-linejoin:miter;stroke-miterlimit:10;stroke-dasharray:none;stroke-opacity:1"
             d="m 0,0 c 0,-154.309 -125.092,-279.4 -279.4,-279.4 -154.309,0 -279.401,125.091 -279.401,279.4 0,154.309 125.092,279.4 279.401,279.4 C -125.092,279.4 0,154.309 0,0 Z" /></g><g
           transform="translate(374.4517,10.9633)"
           id="g1228"><path
             inkscape:connector-curvature="0"
             id="path1230"
             style="fill:none;stroke:#ffffff;stroke-width:2.83500004;stroke-linecap:butt;stroke-linejoin:miter;stroke-miterlimit:10;stroke-dasharray:none;stroke-opacity:1"
             d="m 0,0 c 0,-192.064 -155.699,-347.764 -347.764,-347.764 -192.064,0 -347.763,155.7 -347.763,347.764 0,192.064 155.699,347.764 347.763,347.764 C -155.699,347.764 0,192.064 0,0 Z" /></g><g
           transform="translate(125.7609,347.8217)"
           id="g1232"><path
             inkscape:connector-curvature="0"
             id="path1234"
             style="fill:#e95d66;fill-opacity:1;fill-rule:nonzero;stroke:none"
             d="m 0,0 c 0,-13.515 -10.955,-24.47 -24.469,-24.47 -13.514,0 -24.469,10.955 -24.469,24.47 0,13.514 10.955,24.469 24.469,24.469 C -10.955,24.469 0,13.514 0,0" /></g><g
           transform="translate(229.5934,76.3979)"
           id="g1240"><path
             inkscape:connector-curvature="0"
             id="path1242"
             style="fill:#d73552;fill-opacity:1;fill-rule:nonzero;stroke:none"
             d="m 0,0 c 0,-13.567 -10.999,-24.567 -24.567,-24.567 -13.568,0 -24.567,11 -24.567,24.567 0,13.568 10.999,24.567 24.567,24.567 C -10.999,24.567 0,13.568 0,0" /></g><g
           transform="translate(55.049,94.0541)"
           id="g1248"><path
             inkscape:connector-curvature="0"
             id="path1250"
             style="fill:#fcc864;fill-opacity:1;fill-rule:nonzero;stroke:none"
             d="m 0,0 c 0,-6.536 -5.299,-11.836 -11.836,-11.836 -6.536,0 -11.835,5.3 -11.835,11.836 0,6.536 5.299,11.836 11.835,11.836 C -5.299,11.836 0,6.536 0,0" /></g></g></g><g
       id="g1799"
       transform="translate(332.95044,-316.05637)"><g
         id="g1244"
         transform="translate(753.9449,977.098)"><path
           d="m 0,0 c 0,-6.814 -5.524,-12.338 -12.338,-12.338 -6.813,0 -12.337,5.524 -12.337,12.338 0,6.813 5.524,12.338 12.337,12.338 C -5.524,12.338 0,6.813 0,0"
           style="fill:#f7b25f;fill-opacity:1;fill-rule:nonzero;stroke:none"
           id="path1246"
           inkscape:connector-curvature="0" /></g><g
         id="g1236"
         transform="translate(726.1886,1078.1371)"><path
           d="m 0,0 c 0,-12.087 -9.799,-21.886 -21.885,-21.886 -12.087,0 -21.886,9.799 -21.886,21.886 0,12.087 9.799,21.885 21.886,21.885 C -9.799,21.885 0,12.087 0,0"
           style="fill:#aa3b58;fill-opacity:1;fill-rule:nonzero;stroke:none"
           id="path1238"
           inkscape:connector-curvature="0" /></g></g></g></svg>