<?xml version="1.0" encoding="UTF-8" standalone="no"?>
<!-- Created with Inkscape (http://www.inkscape.org/) -->

<svg
   xmlns:dc="http://purl.org/dc/elements/1.1/"
   xmlns:cc="http://creativecommons.org/ns#"
   xmlns:rdf="http://www.w3.org/1999/02/22-rdf-syntax-ns#"
   xmlns:svg="http://www.w3.org/2000/svg"
   xmlns="http://www.w3.org/2000/svg"
   xmlns:sodipodi="http://sodipodi.sourceforge.net/DTD/sodipodi-0.dtd"
   xmlns:inkscape="http://www.inkscape.org/namespaces/inkscape"
   version="1.1"
   id="svg2"
   xml:space="preserve"
   width="1587.4"
   height="300"
   viewBox="0 0 1587.4 299.99999"
   sodipodi:docname="state-of-d-2018.svg"
   inkscape:version="0.92.2 5c3e80d, 2017-08-06"
   inkscape:export-filename="/home/seb/dlang/d-artwork/banner/banner_dconf_submission.png"
   inkscape:export-xdpi="50.240002"
   inkscape:export-ydpi="50.240002"><metadata
     id="metadata8"><rdf:RDF><cc:Work
         rdf:about=""><dc:format>image/svg+xml</dc:format><dc:type
           rdf:resource="http://purl.org/dc/dcmitype/StillImage" /><dc:title></dc:title></cc:Work></rdf:RDF></metadata><defs
     id="defs6"><clipPath
       clipPathUnits="userSpaceOnUse"
       id="clipPath20"><path
         d="M 0,1190.551 H 841.89 V 0 H 0 Z"
         id="path18"
         inkscape:connector-curvature="0" /></clipPath><clipPath
       clipPathUnits="userSpaceOnUse"
       id="clipPath778"><path
         d="m 458.055,787.372 -97.104,-53.483 137.137,-248.985 97.104,53.482 c 78.253,43.1 102.345,127.3 63.75,197.371 v 0 l -0.392,0.713 c -25.492,46.284 -70.648,72.437 -120.915,72.439 v 0 c -25.835,0.002 -53.015,-6.905 -79.58,-21.537 m 27.824,-91.089 24.165,13.311 c 25.587,14.093 52.579,5.933 66.448,-19.248 v 0 l 0.223,-0.406 c 13.869,-25.18 6.116,-51.948 -19.471,-66.041 v 0 l -24.165,-13.31 z"
         id="path776"
         inkscape:connector-curvature="0" /></clipPath><clipPath
       clipPathUnits="userSpaceOnUse"
       id="clipPath1214"><path
         d="M 0,1190.551 H 841.89 V 0 H 0 Z"
         id="path1212"
         inkscape:connector-curvature="0" /></clipPath><clipPath
       id="a"><path
         inkscape:connector-curvature="0"
         d="M 0,308.33 H 847.559 V 0 H 0 Z"
         id="path2" /></clipPath></defs><sodipodi:namedview
     pagecolor="#ffffff"
     bordercolor="#666666"
     borderopacity="1"
     objecttolerance="10"
     gridtolerance="10"
     guidetolerance="10"
     inkscape:pageopacity="0"
     inkscape:pageshadow="2"
     inkscape:window-width="1920"
     inkscape:window-height="1080"
     id="namedview4"
     showgrid="false"
     inkscape:zoom="0.59468312"
     inkscape:cx="806.21531"
     inkscape:cy="669.18713"
     inkscape:window-x="0"
     inkscape:window-y="0"
     inkscape:window-maximized="0"
     inkscape:current-layer="g10" /><g
     id="g10"
     inkscape:groupmode="layer"
     inkscape:label="dconf_poster"
     transform="matrix(1.3333333,0,0,-1.3333333,0,299.99998)"><path
       inkscape:connector-curvature="0"
       id="path12"
       style="fill:#522260;fill-opacity:1;fill-rule:nonzero;stroke:none;stroke-width:0.51716888"
       d="M 0.67152998,-1.4296875e-5 V 225.17496 H 1191.2235 V -1.4296875e-5 Z" /><g
       id="g1762"
       transform="matrix(0,-1.0269324,1.0269324,0,-22.243972,842.23962)"><g
         transform="translate(782.9388,96.7543)"
         id="g252"><path
           inkscape:connector-curvature="0"
           id="path254"
           style="fill:#ffffff;fill-opacity:1;fill-rule:nonzero;stroke:none"
           d="m 0,0 c -1.914,-0.001 -3.465,-1.425 -3.463,-3.18 v -0.005 c 10e-4,-1.753 1.554,-3.175 3.469,-3.174 1.914,0.002 3.464,1.425 3.463,3.179 v 0.006 C 3.467,-1.42 1.914,0.002 0,0" /></g><g
         transform="translate(86.6965,754.4847)"
         id="g256"><path
           inkscape:connector-curvature="0"
           id="path258"
           style="fill:#ffffff;fill-opacity:1;fill-rule:nonzero;stroke:none"
           d="m 0,0 c -0.738,0 -1.337,0.599 -1.337,1.337 0,0.738 0.599,1.336 1.337,1.336 0.738,0 1.337,-0.598 1.337,-1.336 C 1.337,0.599 0.738,0 0,0" /></g><g
         transform="translate(93.36,482.2777)"
         id="g260"><path
           inkscape:connector-curvature="0"
           id="path262"
           style="fill:#ffffff;fill-opacity:1;fill-rule:nonzero;stroke:none"
           d="m 0,0 c -0.738,0 -1.337,0.598 -1.337,1.336 0,0.738 0.599,1.337 1.337,1.337 0.738,0 1.337,-0.599 1.337,-1.337 C 1.337,0.598 0.738,0 0,0" /></g><g
         transform="translate(220.4866,512.0052)"
         id="g264"><path
           inkscape:connector-curvature="0"
           id="path266"
           style="fill:#ffffff;fill-opacity:1;fill-rule:nonzero;stroke:none"
           d="m 0,0 c -0.738,0 -1.337,0.599 -1.337,1.337 0,0.737 0.599,1.336 1.337,1.336 0.738,0 1.337,-0.599 1.337,-1.336 C 1.337,0.599 0.738,0 0,0" /></g><g
         transform="translate(162.5822,599.8412)"
         id="g268"><path
           inkscape:connector-curvature="0"
           id="path270"
           style="fill:#ffffff;fill-opacity:1;fill-rule:nonzero;stroke:none"
           d="m 0,0 c -0.738,0 -1.337,0.598 -1.337,1.336 0,0.738 0.599,1.337 1.337,1.337 0.738,0 1.337,-0.599 1.337,-1.337 C 1.337,0.598 0.738,0 0,0" /></g><g
         transform="translate(220.2444,605.0326)"
         id="g272"><path
           inkscape:connector-curvature="0"
           id="path274"
           style="fill:#ffffff;fill-opacity:1;fill-rule:nonzero;stroke:none"
           d="m 0,0 c -0.738,0 -1.337,0.599 -1.337,1.337 0,0.738 0.599,1.336 1.337,1.336 0.738,0 1.337,-0.598 1.337,-1.336 C 1.337,0.599 0.738,0 0,0" /></g><g
         transform="translate(296.0923,595.2875)"
         id="g276"><path
           inkscape:connector-curvature="0"
           id="path278"
           style="fill:#ffffff;fill-opacity:1;fill-rule:nonzero;stroke:none"
           d="m 0,0 c -0.738,0 -1.337,0.599 -1.337,1.337 0,0.737 0.599,1.336 1.337,1.336 0.738,0 1.337,-0.599 1.337,-1.336 C 1.337,0.599 0.738,0 0,0" /></g><g
         transform="translate(168.3472,662.0941)"
         id="g280"><path
           inkscape:connector-curvature="0"
           id="path282"
           style="fill:#ffffff;fill-opacity:1;fill-rule:nonzero;stroke:none"
           d="m 0,0 c -0.738,0 -1.337,0.599 -1.337,1.337 0,0.738 0.599,1.337 1.337,1.337 0.738,0 1.337,-0.599 1.337,-1.337 C 1.337,0.599 0.738,0 0,0" /></g><g
         transform="translate(76.2178,675.6947)"
         id="g284"><path
           inkscape:connector-curvature="0"
           id="path286"
           style="fill:#ffffff;fill-opacity:1;fill-rule:nonzero;stroke:none"
           d="m 0,0 c -0.738,0 -1.337,0.599 -1.337,1.337 0,0.738 0.599,1.336 1.337,1.336 0.738,0 1.337,-0.598 1.337,-1.336 C 1.337,0.599 0.738,0 0,0" /></g><g
         transform="translate(55.4821,611.6605)"
         id="g288"><path
           inkscape:connector-curvature="0"
           id="path290"
           style="fill:#ffffff;fill-opacity:1;fill-rule:nonzero;stroke:none"
           d="m 0,0 c -0.738,0 -1.337,0.599 -1.337,1.337 0,0.738 0.599,1.337 1.337,1.337 0.738,0 1.337,-0.599 1.337,-1.337 C 1.337,0.599 0.738,0 0,0" /></g><g
         transform="translate(352.4072,1037.2035)"
         id="g292"><path
           inkscape:connector-curvature="0"
           id="path294"
           style="fill:#ffffff;fill-opacity:1;fill-rule:nonzero;stroke:none"
           d="m 0,0 c -0.738,0 -1.337,0.598 -1.337,1.336 0,0.738 0.599,1.337 1.337,1.337 0.738,0 1.337,-0.599 1.337,-1.337 C 1.337,0.598 0.738,0 0,0" /></g><g
         transform="translate(231.9956,1098.6859)"
         id="g296"><path
           inkscape:connector-curvature="0"
           id="path298"
           style="fill:#ffffff;fill-opacity:1;fill-rule:nonzero;stroke:none"
           d="m 0,0 c -0.738,0 -1.337,0.599 -1.337,1.336 0,0.738 0.599,1.337 1.337,1.337 0.738,0 1.337,-0.599 1.337,-1.337 C 1.337,0.599 0.738,0 0,0" /></g><g
         transform="translate(173.3445,1119.0746)"
         id="g300"><path
           inkscape:connector-curvature="0"
           id="path302"
           style="fill:#ffffff;fill-opacity:1;fill-rule:nonzero;stroke:none"
           d="m 0,0 c -0.738,0 -1.337,0.599 -1.337,1.337 0,0.737 0.599,1.336 1.337,1.336 0.738,0 1.337,-0.599 1.337,-1.336 C 1.337,0.599 0.738,0 0,0" /></g><g
         transform="translate(157.9857,841.0765)"
         id="g304"><path
           inkscape:connector-curvature="0"
           id="path306"
           style="fill:#ffffff;fill-opacity:1;fill-rule:nonzero;stroke:none"
           d="m 0,0 c -0.738,0 -1.337,0.599 -1.337,1.337 0,0.738 0.599,1.337 1.337,1.337 0.738,0 1.337,-0.599 1.337,-1.337 C 1.337,0.599 0.738,0 0,0" /></g><g
         transform="translate(62.9865,1153.6361)"
         id="g308"><path
           inkscape:connector-curvature="0"
           id="path310"
           style="fill:#ffffff;fill-opacity:1;fill-rule:nonzero;stroke:none"
           d="m 0,0 c -0.738,0 -1.337,0.598 -1.337,1.336 0,0.738 0.599,1.337 1.337,1.337 0.738,0 1.337,-0.599 1.337,-1.337 C 1.337,0.598 0.738,0 0,0" /></g><g
         transform="translate(44.5501,1062.9554)"
         id="g312"><path
           inkscape:connector-curvature="0"
           id="path314"
           style="fill:#ffffff;fill-opacity:1;fill-rule:nonzero;stroke:none"
           d="m 0,0 c -0.738,0 -1.337,0.599 -1.337,1.337 0,0.738 0.599,1.337 1.337,1.337 0.738,0 1.337,-0.599 1.337,-1.337 C 1.337,0.599 0.738,0 0,0" /></g><g
         transform="translate(74.8811,1023.4281)"
         id="g316"><path
           inkscape:connector-curvature="0"
           id="path318"
           style="fill:#ffffff;fill-opacity:1;fill-rule:nonzero;stroke:none"
           d="m 0,0 c -0.738,0 -1.337,0.599 -1.337,1.337 0,0.738 0.599,1.336 1.337,1.336 0.738,0 1.337,-0.598 1.337,-1.336 C 1.337,0.599 0.738,0 0,0" /></g><g
         transform="translate(47.2233,963.559)"
         id="g320"><path
           inkscape:connector-curvature="0"
           id="path322"
           style="fill:#ffffff;fill-opacity:1;fill-rule:nonzero;stroke:none"
           d="m 0,0 c -0.738,0 -1.337,0.599 -1.337,1.337 0,0.738 0.599,1.336 1.337,1.336 0.738,0 1.337,-0.598 1.337,-1.336 C 1.337,0.599 0.738,0 0,0" /></g><g
         transform="translate(191.5531,719.9144)"
         id="g324"><path
           inkscape:connector-curvature="0"
           id="path326"
           style="fill:#ffffff;fill-opacity:1;fill-rule:nonzero;stroke:none"
           d="m 0,0 c -0.738,0 -1.337,0.599 -1.337,1.337 0,0.738 0.599,1.337 1.337,1.337 0.738,0 1.337,-0.599 1.337,-1.337 C 1.337,0.599 0.738,0 0,0" /></g><g
         transform="translate(364.3708,701.1039)"
         id="g328"><path
           inkscape:connector-curvature="0"
           id="path330"
           style="fill:#ffffff;fill-opacity:1;fill-rule:nonzero;stroke:none"
           d="m 0,0 c -0.738,0 -1.337,0.599 -1.337,1.337 0,0.738 0.599,1.336 1.337,1.336 0.738,0 1.337,-0.598 1.337,-1.336 C 1.337,0.599 0.738,0 0,0" /></g><g
         transform="translate(307.4779,625.0853)"
         id="g332"><path
           inkscape:connector-curvature="0"
           id="path334"
           style="fill:#ffffff;fill-opacity:1;fill-rule:nonzero;stroke:none"
           d="m 0,0 c -0.738,0 -1.337,0.599 -1.337,1.337 0,0.738 0.599,1.337 1.337,1.337 0.738,0 1.337,-0.599 1.337,-1.337 C 1.337,0.599 0.738,0 0,0" /></g><g
         transform="translate(316.6368,848.4847)"
         id="g336"><path
           inkscape:connector-curvature="0"
           id="path338"
           style="fill:#ffffff;fill-opacity:1;fill-rule:nonzero;stroke:none"
           d="m 0,0 c -0.738,0 -1.337,0.599 -1.337,1.337 0,0.738 0.599,1.336 1.337,1.336 0.738,0 1.337,-0.598 1.337,-1.336 C 1.337,0.599 0.738,0 0,0" /></g><g
         transform="translate(241.091,687.1478)"
         id="g340"><path
           inkscape:connector-curvature="0"
           id="path342"
           style="fill:#ffffff;fill-opacity:1;fill-rule:nonzero;stroke:none"
           d="m 0,0 c -0.738,0 -1.337,0.599 -1.337,1.337 0,0.738 0.599,1.337 1.337,1.337 0.738,0 1.337,-0.599 1.337,-1.337 C 1.337,0.599 0.738,0 0,0" /></g><g
         transform="translate(245.3584,791.5785)"
         id="g344"><path
           inkscape:connector-curvature="0"
           id="path346"
           style="fill:#ffffff;fill-opacity:1;fill-rule:nonzero;stroke:none"
           d="m 0,0 c -0.738,0 -1.337,0.598 -1.337,1.336 0,0.738 0.599,1.337 1.337,1.337 0.738,0 1.337,-0.599 1.337,-1.337 C 1.337,0.598 0.738,0 0,0" /></g><g
         transform="translate(407.0233,813.6293)"
         id="g348"><path
           inkscape:connector-curvature="0"
           id="path350"
           style="fill:#ffffff;fill-opacity:1;fill-rule:nonzero;stroke:none"
           d="m 0,0 c -0.738,0 -1.337,0.598 -1.337,1.336 0,0.738 0.599,1.337 1.337,1.337 0.738,0 1.337,-0.599 1.337,-1.337 C 1.337,0.598 0.738,0 0,0" /></g><g
         transform="translate(360.2943,951.0131)"
         id="g352"><path
           inkscape:connector-curvature="0"
           id="path354"
           style="fill:#ffffff;fill-opacity:1;fill-rule:nonzero;stroke:none"
           d="m 0,0 c -0.738,0 -1.337,0.598 -1.337,1.336 0,0.738 0.599,1.337 1.337,1.337 0.738,0 1.337,-0.599 1.337,-1.337 C 1.337,0.598 0.738,0 0,0" /></g><g
         transform="translate(179.595,949.6761)"
         id="g356"><path
           inkscape:connector-curvature="0"
           id="path358"
           style="fill:#ffffff;fill-opacity:1;fill-rule:nonzero;stroke:none"
           d="m 0,0 c -0.738,0 -1.337,0.599 -1.337,1.337 0,0.738 0.599,1.336 1.337,1.336 0.738,0 1.337,-0.598 1.337,-1.336 C 1.337,0.599 0.738,0 0,0" /></g><g
         transform="translate(317.9734,755.8217)"
         id="g360"><path
           inkscape:connector-curvature="0"
           id="path362"
           style="fill:#ffffff;fill-opacity:1;fill-rule:nonzero;stroke:none"
           d="m 0,0 c -0.738,0 -1.337,0.598 -1.337,1.336 0,0.738 0.599,1.337 1.337,1.337 0.738,0 1.337,-0.599 1.337,-1.337 C 1.337,0.598 0.738,0 0,0" /></g><g
         transform="translate(330.9788,1157.4496)"
         id="g364"><path
           inkscape:connector-curvature="0"
           id="path366"
           style="fill:#ffffff;fill-opacity:1;fill-rule:nonzero;stroke:none"
           d="m 0,0 c -0.738,0 -1.337,0.599 -1.337,1.337 0,0.738 0.599,1.336 1.337,1.336 0.738,0 1.337,-0.598 1.337,-1.336 C 1.337,0.599 0.738,0 0,0" /></g><g
         transform="translate(292.6261,1126.3842)"
         id="g368"><path
           inkscape:connector-curvature="0"
           id="path370"
           style="fill:#ffffff;fill-opacity:1;fill-rule:nonzero;stroke:none"
           d="m 0,0 c -0.738,0 -1.337,0.599 -1.337,1.336 0,0.738 0.599,1.337 1.337,1.337 0.738,0 1.337,-0.599 1.337,-1.337 C 1.337,0.599 0.738,0 0,0" /></g><g
         transform="translate(147.9717,511.6625)"
         id="g372"><path
           inkscape:connector-curvature="0"
           id="path374"
           style="fill:#ffffff;fill-opacity:1;fill-rule:nonzero;stroke:none"
           d="M 0,0 C 0,0.738 0.599,1.337 1.337,1.337 2.075,1.337 2.673,0.738 2.673,0 2.673,-0.738 2.075,-1.336 1.337,-1.336 0.599,-1.336 0,-0.738 0,0" /></g><g
         transform="translate(704.3031,1017.5863)"
         id="g376"><path
           inkscape:connector-curvature="0"
           id="path378"
           style="fill:#ffffff;fill-opacity:1;fill-rule:nonzero;stroke:none"
           d="m 0,0 c -0.738,0 -1.337,0.599 -1.337,1.337 0,0.738 0.599,1.336 1.337,1.336 0.738,0 1.337,-0.598 1.337,-1.336 C 1.337,0.599 0.738,0 0,0" /></g><g
         transform="translate(126.0001,396.1498)"
         id="g380"><path
           inkscape:connector-curvature="0"
           id="path382"
           style="fill:#ffffff;fill-opacity:1;fill-rule:nonzero;stroke:none"
           d="M 0,0 C 0,0.738 0.598,1.337 1.337,1.337 2.075,1.337 2.673,0.738 2.673,0 2.673,-0.738 2.075,-1.336 1.337,-1.336 0.598,-1.336 0,-0.738 0,0" /></g><g
         transform="translate(25.4214,507.1107)"
         id="g384"><path
           inkscape:connector-curvature="0"
           id="path386"
           style="fill:#ffffff;fill-opacity:1;fill-rule:nonzero;stroke:none"
           d="M 0,0 C 0,0.738 0.598,1.337 1.337,1.337 2.075,1.337 2.673,0.738 2.673,0 2.673,-0.737 2.075,-1.336 1.337,-1.336 0.598,-1.336 0,-0.737 0,0" /></g><g
         transform="translate(59.9019,421.2768)"
         id="g388"><path
           inkscape:connector-curvature="0"
           id="path390"
           style="fill:#ffffff;fill-opacity:1;fill-rule:nonzero;stroke:none"
           d="M 0,0 C 0,0.738 0.598,1.336 1.337,1.336 2.075,1.336 2.673,0.738 2.673,0 2.673,-0.738 2.075,-1.337 1.337,-1.337 0.598,-1.337 0,-0.738 0,0" /></g><g
         transform="translate(550.36,1033.1439)"
         id="g392"><path
           inkscape:connector-curvature="0"
           id="path394"
           style="fill:#ffffff;fill-opacity:1;fill-rule:nonzero;stroke:none"
           d="m 0,0 c -0.738,0 -1.337,0.599 -1.337,1.337 0,0.738 0.599,1.337 1.337,1.337 0.738,0 1.337,-0.599 1.337,-1.337 C 1.337,0.599 0.738,0 0,0" /></g><g
         transform="translate(605.7448,1145.8119)"
         id="g396"><path
           inkscape:connector-curvature="0"
           id="path398"
           style="fill:#ffffff;fill-opacity:1;fill-rule:nonzero;stroke:none"
           d="m 0,0 c -0.738,0 -1.336,0.598 -1.336,1.336 0,0.738 0.598,1.337 1.336,1.337 0.738,0 1.337,-0.599 1.337,-1.337 C 1.337,0.598 0.738,0 0,0" /></g><g
         transform="translate(712.3905,1156.309)"
         id="g400"><path
           inkscape:connector-curvature="0"
           id="path402"
           style="fill:#ffffff;fill-opacity:1;fill-rule:nonzero;stroke:none"
           d="m 0,0 c -0.738,0 -1.337,0.599 -1.337,1.337 0,0.738 0.599,1.336 1.337,1.336 0.738,0 1.337,-0.598 1.337,-1.336 C 1.337,0.599 0.738,0 0,0" /></g><g
         transform="translate(613.3248,1063.6625)"
         id="g404"><path
           inkscape:connector-curvature="0"
           id="path406"
           style="fill:#ffffff;fill-opacity:1;fill-rule:nonzero;stroke:none"
           d="m 0,0 c -0.738,0 -1.337,0.599 -1.337,1.337 0,0.738 0.599,1.337 1.337,1.337 0.738,0 1.337,-0.599 1.337,-1.337 C 1.337,0.599 0.738,0 0,0" /></g><g
         transform="translate(549.0233,1094.6761)"
         id="g408"><path
           inkscape:connector-curvature="0"
           id="path410"
           style="fill:#ffffff;fill-opacity:1;fill-rule:nonzero;stroke:none"
           d="m 0,0 c -0.738,0 -1.337,0.599 -1.337,1.336 0,0.738 0.599,1.337 1.337,1.337 0.738,0 1.337,-0.599 1.337,-1.337 C 1.337,0.599 0.738,0 0,0" /></g><g
         transform="translate(705.6398,1071.0482)"
         id="g412"><path
           inkscape:connector-curvature="0"
           id="path414"
           style="fill:#ffffff;fill-opacity:1;fill-rule:nonzero;stroke:none"
           d="m 0,0 c -0.738,0 -1.337,0.599 -1.337,1.337 0,0.738 0.599,1.336 1.337,1.336 0.738,0 1.336,-0.598 1.336,-1.336 C 1.336,0.599 0.738,0 0,0" /></g><g
         transform="translate(465.3241,1152.2992)"
         id="g416"><path
           inkscape:connector-curvature="0"
           id="path418"
           style="fill:#ffffff;fill-opacity:1;fill-rule:nonzero;stroke:none"
           d="m 0,0 c -0.738,0 -1.336,0.599 -1.336,1.337 0,0.738 0.598,1.336 1.336,1.336 0.738,0 1.337,-0.598 1.337,-1.336 C 1.337,0.599 0.738,0 0,0" /></g><g
         transform="translate(787.942,1125.0472)"
         id="g420"><path
           inkscape:connector-curvature="0"
           id="path422"
           style="fill:#ffffff;fill-opacity:1;fill-rule:nonzero;stroke:none"
           d="m 0,0 c -0.738,0 -1.337,0.599 -1.337,1.337 0,0.738 0.599,1.336 1.337,1.336 0.738,0 1.336,-0.598 1.336,-1.336 C 1.336,0.599 0.738,0 0,0" /></g><g
         transform="translate(806.5573,1036.9174)"
         id="g424"><path
           inkscape:connector-curvature="0"
           id="path426"
           style="fill:#ffffff;fill-opacity:1;fill-rule:nonzero;stroke:none"
           d="m 0,0 c -0.738,0 -1.336,0.599 -1.336,1.337 0,0.737 0.598,1.336 1.336,1.336 0.738,0 1.337,-0.599 1.337,-1.336 C 1.337,0.599 0.738,0 0,0" /></g><g
         transform="translate(572.6866,968.265)"
         id="g428"><path
           inkscape:connector-curvature="0"
           id="path430"
           style="fill:#ffffff;fill-opacity:1;fill-rule:nonzero;stroke:none"
           d="m 0,0 c -0.738,0 -1.337,0.599 -1.337,1.337 0,0.738 0.599,1.337 1.337,1.337 0.738,0 1.337,-0.599 1.337,-1.337 C 1.337,0.599 0.738,0 0,0" /></g><g
         transform="translate(456.0233,1072.3851)"
         id="g432"><path
           inkscape:connector-curvature="0"
           id="path434"
           style="fill:#ffffff;fill-opacity:1;fill-rule:nonzero;stroke:none"
           d="m 0,0 c -0.738,0 -1.337,0.598 -1.337,1.336 0,0.738 0.599,1.337 1.337,1.337 0.738,0 1.337,-0.599 1.337,-1.337 C 1.337,0.598 0.738,0 0,0" /></g><g
         transform="translate(466.6608,998.1478)"
         id="g436"><path
           inkscape:connector-curvature="0"
           id="path438"
           style="fill:#ffffff;fill-opacity:1;fill-rule:nonzero;stroke:none"
           d="m 0,0 c -0.738,0 -1.337,0.599 -1.337,1.337 0,0.738 0.599,1.337 1.337,1.337 0.738,0 1.337,-0.599 1.337,-1.337 C 1.337,0.599 0.738,0 0,0" /></g><g
         transform="translate(101.2918,550.4633)"
         id="g440"><path
           inkscape:connector-curvature="0"
           id="path442"
           style="fill:#ffffff;fill-opacity:1;fill-rule:nonzero;stroke:none"
           d="M 0,0 C 0,0.738 0.598,1.337 1.337,1.337 2.075,1.337 2.673,0.738 2.673,0 2.673,-0.738 2.075,-1.337 1.337,-1.337 0.598,-1.337 0,-0.738 0,0" /></g><g
         transform="translate(750.0277,1020.2592)"
         id="g444"><path
           inkscape:connector-curvature="0"
           id="path446"
           style="fill:#ffffff;fill-opacity:1;fill-rule:nonzero;stroke:none"
           d="m 0,0 c -0.738,0 -1.337,0.599 -1.337,1.337 0,0.738 0.599,1.337 1.337,1.337 0.738,0 1.337,-0.599 1.337,-1.337 C 1.337,0.599 0.738,0 0,0" /></g><g
         transform="translate(433.0233,1117.7377)"
         id="g448"><path
           inkscape:connector-curvature="0"
           id="path450"
           style="fill:#ffffff;fill-opacity:1;fill-rule:nonzero;stroke:none"
           d="m 0,0 c -0.738,0 -1.337,0.599 -1.337,1.337 0,0.738 0.599,1.337 1.337,1.337 0.738,0 1.337,-0.599 1.337,-1.337 C 1.337,0.599 0.738,0 0,0" /></g><g
         transform="translate(115.0419,242.6059)"
         id="g452"><path
           inkscape:connector-curvature="0"
           id="path454"
           style="fill:#ffffff;fill-opacity:1;fill-rule:nonzero;stroke:none"
           d="M 0,0 C 0,0.738 0.598,1.337 1.337,1.337 2.075,1.337 2.673,0.738 2.673,0 2.673,-0.738 2.075,-1.336 1.337,-1.336 0.598,-1.336 0,-0.738 0,0" /></g><g
         transform="translate(636.36,996.8119)"
         id="g456"><path
           inkscape:connector-curvature="0"
           id="path458"
           style="fill:#ffffff;fill-opacity:1;fill-rule:nonzero;stroke:none"
           d="m 0,0 c -0.738,0 -1.337,0.598 -1.337,1.336 0,0.738 0.599,1.337 1.337,1.337 0.738,0 1.337,-0.599 1.337,-1.337 C 1.337,0.598 0.738,0 0,0" /></g><g
         transform="translate(61.2385,310.1547)"
         id="g460"><path
           inkscape:connector-curvature="0"
           id="path462"
           style="fill:#ffffff;fill-opacity:1;fill-rule:nonzero;stroke:none"
           d="M 0,0 C 0,0.738 0.598,1.337 1.337,1.337 2.075,1.337 2.673,0.738 2.673,0 2.673,-0.738 2.075,-1.337 1.337,-1.337 0.598,-1.337 0,-0.738 0,0" /></g><g
         transform="translate(696.264,550.0248)"
         id="g464"><path
           inkscape:connector-curvature="0"
           id="path466"
           style="fill:#ffffff;fill-opacity:1;fill-rule:nonzero;stroke:none"
           d="m 0,0 c 0,-0.738 -0.598,-1.337 -1.337,-1.337 -0.738,0 -1.336,0.599 -1.336,1.337 0,0.737 0.598,1.336 1.336,1.336 C -0.598,1.336 0,0.737 0,0" /></g><g
         transform="translate(742.2172,726.7914)"
         id="g468"><path
           inkscape:connector-curvature="0"
           id="path470"
           style="fill:#ffffff;fill-opacity:1;fill-rule:nonzero;stroke:none"
           d="m 0,0 c 0,-0.738 -0.599,-1.337 -1.337,-1.337 -0.738,0 -1.336,0.599 -1.336,1.337 0,0.738 0.598,1.336 1.336,1.336 C -0.599,1.336 0,0.738 0,0" /></g><g
         transform="translate(820.151,567.7914)"
         id="g472"><path
           inkscape:connector-curvature="0"
           id="path474"
           style="fill:#ffffff;fill-opacity:1;fill-rule:nonzero;stroke:none"
           d="m 0,0 c 0,-0.738 -0.598,-1.337 -1.337,-1.337 -0.738,0 -1.336,0.599 -1.336,1.337 0,0.738 0.598,1.337 1.336,1.337 C -0.598,1.337 0,0.738 0,0" /></g><g
         transform="translate(727.525,155.9975)"
         id="g476"><path
           inkscape:connector-curvature="0"
           id="path478"
           style="fill:#ffffff;fill-opacity:1;fill-rule:nonzero;stroke:none"
           d="m 0,0 c 0,-0.738 -0.598,-1.337 -1.336,-1.337 -0.739,0 -1.337,0.599 -1.337,1.337 0,0.738 0.598,1.336 1.337,1.336 C -0.598,1.336 0,0.738 0,0" /></g><g
         transform="translate(704.3031,926.9633)"
         id="g480"><path
           inkscape:connector-curvature="0"
           id="path482"
           style="fill:#ffffff;fill-opacity:1;fill-rule:nonzero;stroke:none"
           d="m 0,0 c 0,-0.738 -0.598,-1.337 -1.337,-1.337 -0.738,0 -1.336,0.599 -1.336,1.337 0,0.737 0.598,1.336 1.336,1.336 C -0.598,1.336 0,0.737 0,0" /></g><g
         transform="translate(771.3702,670.7621)"
         id="g484"><path
           inkscape:connector-curvature="0"
           id="path486"
           style="fill:#ffffff;fill-opacity:1;fill-rule:nonzero;stroke:none"
           d="m 0,0 c 0,-0.738 -0.598,-1.337 -1.337,-1.337 -0.738,0 -1.336,0.599 -1.336,1.337 0,0.738 0.598,1.337 1.336,1.337 C -0.598,1.337 0,0.738 0,0" /></g><g
         transform="translate(806.5573,953.6859)"
         id="g488"><path
           inkscape:connector-curvature="0"
           id="path490"
           style="fill:#ffffff;fill-opacity:1;fill-rule:nonzero;stroke:none"
           d="m 0,0 c 0,-0.738 -0.598,-1.337 -1.336,-1.337 -0.739,0 -1.337,0.599 -1.337,1.337 0,0.738 0.598,1.337 1.337,1.337 C -0.598,1.337 0,0.738 0,0" /></g><g
         transform="translate(744.2806,524.4398)"
         id="g492"><path
           inkscape:connector-curvature="0"
           id="path494"
           style="fill:#ffffff;fill-opacity:1;fill-rule:nonzero;stroke:none"
           d="m 0,0 c 0,-0.738 -0.598,-1.337 -1.337,-1.337 -0.738,0 -1.336,0.599 -1.336,1.337 0,0.737 0.598,1.336 1.336,1.336 C -0.598,1.336 0,0.737 0,0" /></g><g
         transform="translate(646.3849,481.2123)"
         id="g496"><path
           inkscape:connector-curvature="0"
           id="path498"
           style="fill:#ffffff;fill-opacity:1;fill-rule:nonzero;stroke:none"
           d="m 0,0 c 0,-0.738 -0.598,-1.336 -1.337,-1.336 -0.738,0 -1.336,0.598 -1.336,1.336 0,0.738 0.598,1.337 1.336,1.337 C -0.598,1.337 0,0.738 0,0" /></g><g
         transform="translate(730.5304,832.2963)"
         id="g500"><path
           inkscape:connector-curvature="0"
           id="path502"
           style="fill:#ffffff;fill-opacity:1;fill-rule:nonzero;stroke:none"
           d="m 0,0 c 0,-0.738 -0.598,-1.336 -1.336,-1.336 -0.739,0 -1.337,0.598 -1.337,1.336 0,0.738 0.598,1.337 1.337,1.337 C -0.598,1.337 0,0.738 0,0" /></g><g
         transform="translate(784.3339,764.7484)"
         id="g504"><path
           inkscape:connector-curvature="0"
           id="path506"
           style="fill:#ffffff;fill-opacity:1;fill-rule:nonzero;stroke:none"
           d="m 0,0 c 0,-0.738 -0.598,-1.337 -1.337,-1.337 -0.738,0 -1.336,0.599 -1.336,1.337 0,0.737 0.598,1.336 1.336,1.336 C -0.598,1.336 0,0.737 0,0" /></g><g
         transform="translate(473.1605,935.5795)"
         id="g508"><path
           inkscape:connector-curvature="0"
           id="path510"
           style="fill:#ffffff;fill-opacity:1;fill-rule:nonzero;stroke:none"
           d="m 0,0 c -0.738,0 -1.337,0.599 -1.337,1.337 0,0.738 0.599,1.337 1.337,1.337 0.738,0 1.336,-0.599 1.336,-1.337 C 1.336,0.599 0.738,0 0,0" /></g><g
         transform="translate(628.1276,907.4203)"
         id="g512"><path
           inkscape:connector-curvature="0"
           id="path514"
           style="fill:#ffffff;fill-opacity:1;fill-rule:nonzero;stroke:none"
           d="m 0,0 c -0.738,0 -1.337,0.599 -1.337,1.337 0,0.738 0.599,1.336 1.337,1.336 0.738,0 1.336,-0.598 1.336,-1.336 C 1.336,0.599 0.738,0 0,0" /></g><g
         transform="translate(451.5598,122.0199)"
         id="g516"><path
           inkscape:connector-curvature="0"
           id="path518"
           style="fill:#ffffff;fill-opacity:1;fill-rule:nonzero;stroke:none"
           d="m 0,0 c -0.738,0 -1.337,0.598 -1.337,1.336 0,0.738 0.599,1.337 1.337,1.337 0.738,0 1.337,-0.599 1.337,-1.337 C 1.337,0.598 0.738,0 0,0" /></g><g
         transform="translate(322.3225,81.9213)"
         id="g520"><path
           inkscape:connector-curvature="0"
           id="path522"
           style="fill:#ffffff;fill-opacity:1;fill-rule:nonzero;stroke:none"
           d="m 0,0 c -0.738,0 -1.337,0.598 -1.337,1.336 0,0.738 0.599,1.337 1.337,1.337 0.738,0 1.337,-0.599 1.337,-1.337 C 1.337,0.598 0.738,0 0,0" /></g><g
         transform="translate(371.0984,276.2025)"
         id="g524"><path
           inkscape:connector-curvature="0"
           id="path526"
           style="fill:#ffffff;fill-opacity:1;fill-rule:nonzero;stroke:none"
           d="m 0,0 c -0.738,0 -1.337,0.599 -1.337,1.337 0,0.738 0.599,1.336 1.337,1.336 0.738,0 1.337,-0.598 1.337,-1.336 C 1.337,0.599 0.738,0 0,0" /></g><g
         transform="translate(210.2077,345.1479)"
         id="g528"><path
           inkscape:connector-curvature="0"
           id="path530"
           style="fill:#ffffff;fill-opacity:1;fill-rule:nonzero;stroke:none"
           d="m 0,0 c -0.738,0 -1.337,0.599 -1.337,1.337 0,0.738 0.599,1.337 1.337,1.337 0.738,0 1.337,-0.599 1.337,-1.337 C 1.337,0.599 0.738,0 0,0" /></g><g
         transform="translate(477.744,286.6996)"
         id="g532"><path
           inkscape:connector-curvature="0"
           id="path534"
           style="fill:#ffffff;fill-opacity:1;fill-rule:nonzero;stroke:none"
           d="m 0,0 c -0.738,0 -1.337,0.599 -1.337,1.337 0,0.738 0.599,1.337 1.337,1.337 0.738,0 1.337,-0.599 1.337,-1.337 C 1.337,0.599 0.738,0 0,0" /></g><g
         transform="translate(570.5743,345.1479)"
         id="g536"><path
           inkscape:connector-curvature="0"
           id="path538"
           style="fill:#ffffff;fill-opacity:1;fill-rule:nonzero;stroke:none"
           d="m 0,0 c -0.738,0 -1.337,0.599 -1.337,1.337 0,0.738 0.599,1.337 1.337,1.337 0.738,0 1.336,-0.599 1.336,-1.337 C 1.336,0.599 0.738,0 0,0" /></g><g
         transform="translate(544.8043,433.265)"
         id="g540"><path
           inkscape:connector-curvature="0"
           id="path542"
           style="fill:#ffffff;fill-opacity:1;fill-rule:nonzero;stroke:none"
           d="m 0,0 c -0.738,0 -1.337,0.599 -1.337,1.337 0,0.738 0.599,1.336 1.337,1.336 0.738,0 1.337,-0.598 1.337,-1.336 C 1.337,0.599 0.738,0 0,0" /></g><g
         transform="translate(378.6783,194.0541)"
         id="g544"><path
           inkscape:connector-curvature="0"
           id="path546"
           style="fill:#ffffff;fill-opacity:1;fill-rule:nonzero;stroke:none"
           d="m 0,0 c -0.738,0 -1.337,0.599 -1.337,1.337 0,0.737 0.599,1.336 1.337,1.336 0.738,0 1.337,-0.599 1.337,-1.336 C 1.337,0.599 0.738,0 0,0" /></g><g
         transform="translate(314.3768,225.0668)"
         id="g548"><path
           inkscape:connector-curvature="0"
           id="path550"
           style="fill:#ffffff;fill-opacity:1;fill-rule:nonzero;stroke:none"
           d="m 0,0 c -0.738,0 -1.337,0.599 -1.337,1.337 0,0.738 0.599,1.336 1.337,1.336 0.738,0 1.337,-0.598 1.337,-1.336 C 1.337,0.599 0.738,0 0,0" /></g><g
         transform="translate(470.9933,201.4389)"
         id="g552"><path
           inkscape:connector-curvature="0"
           id="path554"
           style="fill:#ffffff;fill-opacity:1;fill-rule:nonzero;stroke:none"
           d="m 0,0 c -0.738,0 -1.337,0.599 -1.337,1.337 0,0.738 0.599,1.337 1.337,1.337 0.738,0 1.336,-0.599 1.336,-1.337 C 1.336,0.599 0.738,0 0,0" /></g><g
         transform="translate(408.36,371.1479)"
         id="g556"><path
           inkscape:connector-curvature="0"
           id="path558"
           style="fill:#ffffff;fill-opacity:1;fill-rule:nonzero;stroke:none"
           d="m 0,0 c -0.738,0 -1.337,0.599 -1.337,1.337 0,0.738 0.599,1.337 1.337,1.337 0.738,0 1.337,-0.599 1.337,-1.337 C 1.337,0.599 0.738,0 0,0" /></g><g
         transform="translate(206.3629,281.3539)"
         id="g560"><path
           inkscape:connector-curvature="0"
           id="path562"
           style="fill:#ffffff;fill-opacity:1;fill-rule:nonzero;stroke:none"
           d="m 0,0 c -0.738,0 -1.337,0.599 -1.337,1.336 0,0.738 0.599,1.337 1.337,1.337 0.738,0 1.337,-0.599 1.337,-1.337 C 1.337,0.599 0.738,0 0,0" /></g><g
         transform="translate(47.2233,200.1029)"
         id="g564"><path
           inkscape:connector-curvature="0"
           id="path566"
           style="fill:#ffffff;fill-opacity:1;fill-rule:nonzero;stroke:none"
           d="m 0,0 c -0.738,0 -1.337,0.598 -1.337,1.336 0,0.738 0.599,1.337 1.337,1.337 0.738,0 1.337,-0.599 1.337,-1.337 C 1.337,0.598 0.738,0 0,0" /></g><g
         transform="translate(553.2955,255.4379)"
         id="g568"><path
           inkscape:connector-curvature="0"
           id="path570"
           style="fill:#ffffff;fill-opacity:1;fill-rule:nonzero;stroke:none"
           d="m 0,0 c -0.738,0 -1.337,0.599 -1.337,1.337 0,0.738 0.599,1.337 1.337,1.337 0.738,0 1.336,-0.599 1.336,-1.337 C 1.336,0.599 0.738,0 0,0" /></g><g
         transform="translate(571.9108,167.308)"
         id="g572"><path
           inkscape:connector-curvature="0"
           id="path574"
           style="fill:#ffffff;fill-opacity:1;fill-rule:nonzero;stroke:none"
           d="m 0,0 c -0.738,0 -1.336,0.599 -1.336,1.337 0,0.738 0.598,1.337 1.336,1.337 0.738,0 1.337,-0.599 1.337,-1.337 C 1.337,0.599 0.738,0 0,0" /></g><g
         transform="translate(693.5907,248.1293)"
         id="g576"><path
           inkscape:connector-curvature="0"
           id="path578"
           style="fill:#ffffff;fill-opacity:1;fill-rule:nonzero;stroke:none"
           d="m 0,0 c -0.738,0 -1.337,0.598 -1.337,1.336 0,0.738 0.599,1.337 1.337,1.337 0.738,0 1.337,-0.599 1.337,-1.337 C 1.337,0.598 0.738,0 0,0" /></g><g
         transform="translate(780.9159,334.1576)"
         id="g580"><path
           inkscape:connector-curvature="0"
           id="path582"
           style="fill:#ffffff;fill-opacity:1;fill-rule:nonzero;stroke:none"
           d="m 0,0 c -0.738,0 -1.337,0.599 -1.337,1.337 0,0.738 0.599,1.337 1.337,1.337 0.738,0 1.337,-0.599 1.337,-1.337 C 1.337,0.599 0.738,0 0,0" /></g><g
         transform="translate(343.072,153.3236)"
         id="g584"><path
           inkscape:connector-curvature="0"
           id="path586"
           style="fill:#ffffff;fill-opacity:1;fill-rule:nonzero;stroke:none"
           d="m 0,0 c -0.738,0 -1.337,0.599 -1.337,1.337 0,0.738 0.599,1.337 1.337,1.337 0.738,0 1.337,-0.599 1.337,-1.337 C 1.337,0.599 0.738,0 0,0" /></g><g
         transform="translate(194.8661,191.3803)"
         id="g588"><path
           inkscape:connector-curvature="0"
           id="path590"
           style="fill:#ffffff;fill-opacity:1;fill-rule:nonzero;stroke:none"
           d="m 0,0 c -0.738,0 -1.337,0.599 -1.337,1.337 0,0.738 0.599,1.337 1.337,1.337 0.738,0 1.337,-0.599 1.337,-1.337 C 1.337,0.599 0.738,0 0,0" /></g><g
         transform="translate(44.5501,21.6606)"
         id="g592"><path
           inkscape:connector-curvature="0"
           id="path594"
           style="fill:#ffffff;fill-opacity:1;fill-rule:nonzero;stroke:none"
           d="m 0,0 c -0.738,0 -1.337,0.598 -1.337,1.336 0,0.738 0.599,1.337 1.337,1.337 0.738,0 1.337,-0.599 1.337,-1.337 C 1.337,0.598 0.738,0 0,0" /></g><g
         transform="translate(25.4214,227.7397)"
         id="g596"><path
           inkscape:connector-curvature="0"
           id="path598"
           style="fill:#ffffff;fill-opacity:1;fill-rule:nonzero;stroke:none"
           d="m 0,0 c -0.738,0 -1.337,0.599 -1.337,1.337 0,0.738 0.599,1.337 1.337,1.337 0.738,0 1.337,-0.599 1.337,-1.337 C 1.337,0.599 0.738,0 0,0" /></g><g
         transform="translate(282.8929,190.0443)"
         id="g600"><path
           inkscape:connector-curvature="0"
           id="path602"
           style="fill:#ffffff;fill-opacity:1;fill-rule:nonzero;stroke:none"
           d="m 0,0 c -0.738,0 -1.337,0.599 -1.337,1.337 0,0.737 0.599,1.336 1.337,1.336 0.738,0 1.337,-0.599 1.337,-1.336 C 1.337,0.599 0.738,0 0,0" /></g><g
         transform="translate(515.3812,150.6508)"
         id="g604"><path
           inkscape:connector-curvature="0"
           id="path606"
           style="fill:#ffffff;fill-opacity:1;fill-rule:nonzero;stroke:none"
           d="m 0,0 c -0.738,0 -1.337,0.599 -1.337,1.337 0,0.737 0.599,1.336 1.337,1.336 0.738,0 1.337,-0.599 1.337,-1.336 C 1.337,0.599 0.738,0 0,0" /></g><g
         transform="translate(768.6969,412.558)"
         id="g608"><path
           inkscape:connector-curvature="0"
           id="path610"
           style="fill:#ffffff;fill-opacity:1;fill-rule:nonzero;stroke:none"
           d="m 0,0 c -0.738,0 -1.336,0.599 -1.336,1.337 0,0.738 0.598,1.337 1.336,1.337 0.738,0 1.337,-0.599 1.337,-1.337 C 1.337,0.599 0.738,0 0,0" /></g><g
         transform="translate(289.2524,282.6898)"
         id="g612"><path
           inkscape:connector-curvature="0"
           id="path614"
           style="fill:#ffffff;fill-opacity:1;fill-rule:nonzero;stroke:none"
           d="m 0,0 c -0.738,0 -1.337,0.599 -1.337,1.337 0,0.738 0.599,1.337 1.337,1.337 0.738,0 1.337,-0.599 1.337,-1.337 C 1.337,0.599 0.738,0 0,0" /></g><g
         transform="translate(420.9448,195.391)"
         id="g616"><path
           inkscape:connector-curvature="0"
           id="path618"
           style="fill:#ffffff;fill-opacity:1;fill-rule:nonzero;stroke:none"
           d="m 0,0 c -0.738,0 -1.337,0.598 -1.337,1.336 0,0.738 0.599,1.337 1.337,1.337 0.738,0 1.337,-0.599 1.337,-1.337 C 1.337,0.598 0.738,0 0,0" /></g><g
         transform="translate(469.6566,57.3539)"
         id="g620"><path
           inkscape:connector-curvature="0"
           id="path622"
           style="fill:#ffffff;fill-opacity:1;fill-rule:nonzero;stroke:none"
           d="m 0,0 c 0,-0.738 -0.598,-1.337 -1.337,-1.337 -0.738,0 -1.336,0.599 -1.336,1.337 0,0.738 0.598,1.337 1.336,1.337 C -0.598,1.337 0,0.738 0,0" /></g><g
         transform="translate(820.151,202.7758)"
         id="g624"><path
           inkscape:connector-curvature="0"
           id="path626"
           style="fill:#ffffff;fill-opacity:1;fill-rule:nonzero;stroke:none"
           d="m 0,0 c 0,-0.738 -0.598,-1.337 -1.337,-1.337 -0.738,0 -1.336,0.599 -1.336,1.337 0,0.738 0.598,1.337 1.336,1.337 C -0.598,1.337 0,0.738 0,0" /></g><g
         transform="translate(331.2076,332.8217)"
         id="g628"><path
           inkscape:connector-curvature="0"
           id="path630"
           style="fill:#ffffff;fill-opacity:1;fill-rule:nonzero;stroke:none"
           d="m 0,0 c 0,-0.738 -0.599,-1.337 -1.337,-1.337 -0.738,0 -1.336,0.599 -1.336,1.337 0,0.738 0.598,1.336 1.336,1.336 C -0.599,1.336 0,0.738 0,0" /></g><g
         transform="translate(651.1368,365.4848)"
         id="g632"><path
           inkscape:connector-curvature="0"
           id="path634"
           style="fill:#ffffff;fill-opacity:1;fill-rule:nonzero;stroke:none"
           d="m 0,0 c 0,-0.738 -0.599,-1.337 -1.337,-1.337 -0.738,0 -1.336,0.599 -1.336,1.337 0,0.738 0.598,1.337 1.336,1.337 C -0.599,1.337 0,0.738 0,0" /></g><g
         transform="translate(649.8002,200.1029)"
         id="g636"><path
           inkscape:connector-curvature="0"
           id="path638"
           style="fill:#ffffff;fill-opacity:1;fill-rule:nonzero;stroke:none"
           d="m 0,0 c 0,-0.738 -0.598,-1.337 -1.337,-1.337 -0.738,0 -1.336,0.599 -1.336,1.337 0,0.738 0.598,1.336 1.336,1.336 C -0.598,1.336 0,0.738 0,0" /></g><g
         transform="translate(807.6967,37.8109)"
         id="g640"><path
           inkscape:connector-curvature="0"
           id="path642"
           style="fill:#ffffff;fill-opacity:1;fill-rule:nonzero;stroke:none"
           d="m 0,0 c 0,-0.737 -0.599,-1.336 -1.337,-1.336 -0.738,0 -1.336,0.599 -1.336,1.336 0,0.738 0.598,1.337 1.336,1.337 C -0.599,1.337 0,0.738 0,0" /></g><g
         transform="translate(229.615,123.3559)"
         id="g644"><path
           inkscape:connector-curvature="0"
           id="path646"
           style="fill:#ffffff;fill-opacity:1;fill-rule:nonzero;stroke:none"
           d="m 0,0 c -0.738,0 -1.337,0.599 -1.337,1.337 0,0.738 0.599,1.337 1.337,1.337 0.738,0 1.337,-0.599 1.337,-1.337 C 1.337,0.599 0.738,0 0,0" /></g><g
         transform="translate(113.3318,101.3295)"
         id="g648"><path
           inkscape:connector-curvature="0"
           id="path650"
           style="fill:#ffffff;fill-opacity:1;fill-rule:nonzero;stroke:none"
           d="m 0,0 c -0.738,0 -1.337,0.599 -1.337,1.337 0,0.738 0.599,1.337 1.337,1.337 0.738,0 1.337,-0.599 1.337,-1.337 C 1.337,0.599 0.738,0 0,0" /></g><g
         transform="translate(393.481,37.8109)"
         id="g652"><path
           inkscape:connector-curvature="0"
           id="path654"
           style="fill:#ffffff;fill-opacity:1;fill-rule:nonzero;stroke:none"
           d="m 0,0 c -0.738,0 -1.337,0.599 -1.337,1.337 0,0.738 0.599,1.337 1.337,1.337 0.738,0 1.337,-0.599 1.337,-1.337 C 1.337,0.599 0.738,0 0,0" /></g><g
         transform="translate(477.712,813.0297)"
         id="g656"><path
           inkscape:connector-curvature="0"
           id="path658"
           style="fill:#ffffff;fill-opacity:1;fill-rule:nonzero;stroke:none"
           d="m 0,0 c -0.738,0 -1.337,0.598 -1.337,1.336 0,0.738 0.599,1.337 1.337,1.337 0.738,0 1.337,-0.599 1.337,-1.337 C 1.337,0.598 0.738,0 0,0" /></g><g
         transform="translate(580.6827,861.8099)"
         id="g660"><path
           inkscape:connector-curvature="0"
           id="path662"
           style="fill:#ffffff;fill-opacity:1;fill-rule:nonzero;stroke:none"
           d="m 0,0 c -0.738,0 -1.337,0.599 -1.337,1.337 0,0.738 0.599,1.337 1.337,1.337 0.738,0 1.337,-0.599 1.337,-1.337 C 1.337,0.599 0.738,0 0,0" /></g><g
         transform="translate(500.3944,874.1478)"
         id="g664"><path
           inkscape:connector-curvature="0"
           id="path666"
           style="fill:#ffffff;fill-opacity:1;fill-rule:nonzero;stroke:none"
           d="m 0,0 c -0.738,0 -1.337,0.599 -1.337,1.337 0,0.738 0.599,1.337 1.337,1.337 0.738,0 1.337,-0.599 1.337,-1.337 C 1.337,0.599 0.738,0 0,0" /></g><g
         transform="translate(434.36,888.8998)"
         id="g668"><path
           inkscape:connector-curvature="0"
           id="path670"
           style="fill:#ffffff;fill-opacity:1;fill-rule:nonzero;stroke:none"
           d="m 0,0 c -0.738,0 -1.337,0.599 -1.337,1.337 0,0.738 0.599,1.336 1.337,1.336 0.738,0 1.337,-0.598 1.337,-1.336 C 1.337,0.599 0.738,0 0,0" /></g><g
         transform="translate(742.2172,902.6498)"
         id="g672"><path
           inkscape:connector-curvature="0"
           id="path674"
           style="fill:#ffffff;fill-opacity:1;fill-rule:nonzero;stroke:none"
           d="m 0,0 c -0.738,0 -1.337,0.599 -1.337,1.337 0,0.738 0.599,1.336 1.337,1.336 0.738,0 1.336,-0.598 1.336,-1.336 C 1.336,0.599 0.738,0 0,0" /></g><g
         transform="translate(674.6686,848.8461)"
         id="g676"><path
           inkscape:connector-curvature="0"
           id="path678"
           style="fill:#ffffff;fill-opacity:1;fill-rule:nonzero;stroke:none"
           d="m 0,0 c -0.738,0 -1.337,0.599 -1.337,1.337 0,0.738 0.599,1.337 1.337,1.337 0.738,0 1.337,-0.599 1.337,-1.337 C 1.337,0.599 0.738,0 0,0" /></g><g
         transform="translate(365.2255,1096.0121)"
         id="g680"><path
           inkscape:connector-curvature="0"
           id="path682"
           style="fill:#ffffff;fill-opacity:1;fill-rule:nonzero;stroke:none"
           d="m 0,0 c -0.738,0 -1.337,0.599 -1.337,1.337 0,0.738 0.599,1.337 1.337,1.337 0.738,0 1.337,-0.599 1.337,-1.337 C 1.337,0.599 0.738,0 0,0" /></g><g
         transform="translate(382.8247,623.5004)"
         id="g684"><path
           inkscape:connector-curvature="0"
           id="path686"
           style="fill:#ffffff;fill-opacity:1;fill-rule:nonzero;stroke:none"
           d="m 0,0 c -0.738,0 -1.337,0.599 -1.337,1.336 0,0.738 0.599,1.337 1.337,1.337 0.738,0 1.337,-0.599 1.337,-1.337 C 1.337,0.599 0.738,0 0,0" /></g><g
         transform="translate(343.072,806.4847)"
         id="g688"><path
           inkscape:connector-curvature="0"
           id="path690"
           style="fill:#ffffff;fill-opacity:1;fill-rule:nonzero;stroke:none"
           d="m 0,0 c -0.738,0 -1.337,0.599 -1.337,1.337 0,0.738 0.599,1.336 1.337,1.336 0.738,0 1.337,-0.598 1.337,-1.336 C 1.337,0.599 0.738,0 0,0" /></g><g
         transform="translate(54.1455,859.2523)"
         id="g692"><path
           inkscape:connector-curvature="0"
           id="path694"
           style="fill:#ffffff;fill-opacity:1;fill-rule:nonzero;stroke:none"
           d="m 0,0 c -0.738,0 -1.337,0.599 -1.337,1.337 0,0.738 0.599,1.337 1.337,1.337 0.738,0 1.337,-0.599 1.337,-1.337 C 1.337,0.599 0.738,0 0,0" /></g><g
         transform="translate(311.5073,1014.7211)"
         id="g696"><path
           inkscape:connector-curvature="0"
           id="path698"
           style="fill:#ffffff;fill-opacity:1;fill-rule:nonzero;stroke:none"
           d="m 0,0 c -0.738,0 -1.337,0.599 -1.337,1.336 0,0.738 0.599,1.337 1.337,1.337 0.738,0 1.337,-0.599 1.337,-1.337 C 1.337,0.599 0.738,0 0,0" /></g><g
         transform="translate(272.1552,966.9291)"
         id="g700"><path
           inkscape:connector-curvature="0"
           id="path702"
           style="fill:#ffffff;fill-opacity:1;fill-rule:nonzero;stroke:none"
           d="m 0,0 c -0.738,0 -1.337,0.599 -1.337,1.336 0,0.738 0.599,1.337 1.337,1.337 0.738,0 1.337,-0.599 1.337,-1.337 C 1.337,0.599 0.738,0 0,0" /></g><g
         transform="translate(93.36,788.9047)"
         id="g704"><path
           inkscape:connector-curvature="0"
           id="path706"
           style="fill:#ffffff;fill-opacity:1;fill-rule:nonzero;stroke:none"
           d="m 0,0 c -0.738,0 -1.337,0.599 -1.337,1.337 0,0.738 0.599,1.337 1.337,1.337 0.738,0 1.337,-0.599 1.337,-1.337 C 1.337,0.599 0.738,0 0,0" /></g></g><g
       id="g1799"
       transform="translate(409.88217,-902.50316)"><g
         id="g1244"
         transform="translate(753.9449,977.098)"><path
           d="m 0,0 c 0,-6.814 -5.524,-12.338 -12.338,-12.338 -6.813,0 -12.337,5.524 -12.337,12.338 0,6.813 5.524,12.338 12.337,12.338 C -5.524,12.338 0,6.813 0,0"
           style="fill:#f7b25f;fill-opacity:1;fill-rule:nonzero;stroke:none"
           id="path1246"
           inkscape:connector-curvature="0" /></g><g
         id="g1236"
         transform="translate(726.1886,1078.1371)"><path
           d="m 0,0 c 0,-12.087 -9.799,-21.886 -21.885,-21.886 -12.087,0 -21.886,9.799 -21.886,21.886 0,12.087 9.799,21.885 21.886,21.885 C -9.799,21.885 0,12.087 0,0"
           style="fill:#aa3b58;fill-opacity:1;fill-rule:nonzero;stroke:none"
           id="path1238"
           inkscape:connector-curvature="0" /></g></g><g
       clip-path="url(#a)"
       transform="matrix(0.81908336,0,0,0.81850263,-29.676764,-8.7259421)"
       id="g57"><path
         style="fill:#a93a58"
         inkscape:connector-curvature="0"
         d="M 0,0 10.499,5.783 C 21.616,11.906 33.343,8.36 39.368,-2.58 l 0.098,-0.177 c 6.025,-10.939 2.656,-22.569 -8.46,-28.692 L 20.507,-37.232 Z M 75.191,17.15 75.02,17.46 C 58.252,47.904 21.91,58.301 -12.089,39.575 L -54.278,16.338 5.304,-91.839 47.493,-68.602 c 33.999,18.726 44.466,55.308 27.698,85.752"
         transform="translate(221.9476,184.8732)"
         id="path5" /><path
         style="fill:#d63452"
         inkscape:connector-curvature="0"
         d="m 0,0 -10.499,-5.783 -20.507,37.232 10.499,5.783 C -9.39,43.355 2.337,39.81 8.363,28.869 L 8.46,28.693 C 14.485,17.753 11.117,6.123 0,0 M 35.443,0.285 34.99,0.036 c 0.162,0.09 0.28,0.222 0.407,0.345 C 34.85,1.516 34.291,2.674 33.728,3.841 33.486,3.807 33.244,3.742 33.017,3.617 l 0.647,0.357 c -4.218,8.741 -8.562,17.727 -8.69,17.92 -0.252,0.378 -27.997,38.337 -28.375,38.337 -0.265,0 -17.309,9.47 -28.69,15.809 -3.677,-1.351 -7.354,-3.005 -11.004,-5.015 L -58.173,62.72 c 0.327,-0.926 -0.015,-1.973 -0.903,-2.462 L -77.863,49.911 c -0.989,-0.545 -1.349,-1.788 -0.804,-2.777 0.545,-0.989 1.788,-1.349 2.777,-0.805 l 13.744,7.571 c 0.989,0.544 2.232,0.184 2.777,-0.805 0.545,-0.989 0.185,-2.232 -0.804,-2.777 l -2.315,-1.275 c -0.989,-0.545 -1.349,-1.788 -0.804,-2.777 0.544,-0.989 1.788,-1.349 2.777,-0.804 l 1.709,0.941 c 0.989,0.545 2.232,0.184 2.777,-0.805 0.544,-0.988 0.184,-2.232 -0.804,-2.776 l -16.014,-8.82 c -0.989,-0.545 -1.349,-1.789 -0.804,-2.777 0.544,-0.989 1.788,-1.35 2.777,-0.805 l 14.49,7.981 c -0.08,-0.044 -0.154,-0.094 -0.225,-0.147 0.941,0.368 2.031,-0.008 2.532,-0.917 0.5,-0.908 0.235,-2.031 -0.578,-2.63 0.082,0.033 0.164,0.069 0.244,0.113 l -6.084,-3.351 c -0.989,-0.545 -1.349,-1.788 -0.804,-2.777 0.544,-0.989 1.788,-1.349 2.777,-0.805 l 3.733,2.056 c 0.989,0.545 2.232,0.185 2.776,-0.804 0.545,-0.989 0.185,-2.233 -0.804,-2.777 l -6.337,-3.491 c -0.989,-0.544 -1.349,-1.788 -0.804,-2.777 0.545,-0.989 1.788,-1.349 2.777,-0.804 l 13.44,7.402 c 0.989,0.545 2.232,0.185 2.777,-0.804 0.544,-0.989 0.184,-2.232 -0.804,-2.777 l -22.959,-12.645 1.972,-3.582 10.682,5.883 c 0.989,0.545 2.232,0.185 2.777,-0.804 0.544,-0.989 0.184,-2.233 -0.804,-2.777 l -6.991,-3.85 C -58.08,4.791 -58.44,3.548 -57.895,2.559 -57.35,1.57 -56.107,1.21 -55.118,1.754 l 12.178,6.708 c 0.989,0.544 2.232,0.184 2.777,-0.805 0.544,-0.989 0.184,-2.232 -0.805,-2.777 l -15.465,-8.518 c -0.143,-0.079 -0.243,-0.199 -0.359,-0.304 l 1.883,-3.419 c 0.151,0.042 0.305,0.062 0.448,0.141 l 22.834,12.577 c 0.989,0.544 2.232,0.184 2.777,-0.805 0.544,-0.989 0.184,-2.232 -0.805,-2.777 L -47.88,-8.263 c -0.989,-0.545 -1.349,-1.788 -0.804,-2.777 0.545,-0.989 1.788,-1.349 2.777,-0.805 L -22.786,0.89 c 0.989,0.545 2.232,0.184 2.777,-0.804 0.544,-0.989 0.184,-2.232 -0.804,-2.777 l -9.202,-5.069 c -0.989,-0.544 -1.349,-1.788 -0.805,-2.777 0.545,-0.989 1.788,-1.349 2.777,-0.804 l 4.955,2.729 c 0.989,0.544 2.232,0.184 2.777,-0.805 0.545,-0.989 0.185,-2.232 -0.804,-2.777 L -40.63,-22.942 c -0.989,-0.545 -1.349,-1.788 -0.804,-2.777 0.545,-0.989 1.788,-1.349 2.777,-0.804 l 14.369,7.914 c 0.99,0.545 2.232,0.184 2.777,-0.805 0.545,-0.988 0.185,-2.232 -0.804,-2.777 l -17.78,-9.793 c -0.362,-0.199 -0.605,-0.507 -0.785,-0.847 l 1.622,-2.945 c 0.383,-0.029 0.774,0.012 1.135,0.211 l 6.859,3.778 c 0.989,0.544 2.232,0.184 2.777,-0.805 0.545,-0.989 0.185,-2.232 -0.804,-2.777 l -5.707,-3.143 c -0.989,-0.545 -1.349,-1.788 -0.805,-2.777 0.545,-0.989 1.788,-1.35 2.777,-0.805 l 18.223,10.037 c 0.989,0.545 2.233,0.184 2.777,-0.804 0.545,-0.989 0.185,-2.233 -0.804,-2.777 l -7.14,-3.933 c -0.989,-0.545 -1.349,-1.788 -0.805,-2.777 0.545,-0.989 1.789,-1.349 2.777,-0.805 l 7.812,4.303 c 0.989,0.544 2.232,0.184 2.776,-0.805 0.545,-0.989 0.185,-2.232 -0.804,-2.777 l -13.621,-7.502 c -0.989,-0.545 -1.349,-1.788 -0.804,-2.777 0.544,-0.989 1.788,-1.349 2.777,-0.805 l 18.763,10.335 c 0.989,0.544 2.232,0.184 2.777,-0.805 0.212,-0.385 0.25,-0.805 0.204,-1.211 l 14.605,8.044 c 11.067,6.096 19.623,14.091 25.576,23.143 -0.271,0.865 -0.443,1.476 -0.443,1.476 0,0 -2.843,5.904 -6.177,12.819"
         transform="translate(252.9534,153.4238)"
         id="path7" /><path
         style="fill:#e95e67"
         inkscape:connector-curvature="0"
         d="m 0,0 -12.537,-6.905 z m 58.888,-31.431 -0.171,0.31 c -1.065,1.935 -2.211,3.786 -3.429,5.557 l -5.345,-2.944 c 0.989,0.545 1.349,1.788 0.804,2.777 -0.544,0.989 -1.788,1.349 -2.776,0.804 l 4.857,2.676 c -0.867,1.099 -1.763,2.162 -2.69,3.186 l -2.114,-1.164 c 0.891,0.491 1.232,1.542 0.9,2.47 -0.396,0.413 -0.795,0.824 -1.201,1.224 -0.534,0.192 -1.136,0.182 -1.672,-0.113 l 1.147,0.632 C 31.046,-0.489 7.56,4.67 -16.068,-3.51 c -0.148,-0.495 -0.48,-0.936 -0.969,-1.206 l -13.918,-7.665 c -0.988,-0.545 -1.349,-1.788 -0.804,-2.777 0.545,-0.989 1.788,-1.349 2.777,-0.805 l 12.539,6.906 c 0.989,0.545 2.232,0.185 2.777,-0.804 0.544,-0.989 0.184,-2.232 -0.805,-2.777 l -1.001,-0.552 c -0.989,-0.544 -1.349,-1.788 -0.804,-2.777 0.544,-0.989 1.788,-1.349 2.777,-0.804 l 7.764,4.276 c 0.989,0.545 2.232,0.185 2.777,-0.804 0.544,-0.989 0.184,-2.233 -0.805,-2.777 l -12.322,-6.788 c -0.99,-0.544 -1.349,-1.788 -0.805,-2.777 0.545,-0.988 1.788,-1.349 2.777,-0.804 l 4.957,2.73 c -0.079,-0.044 -0.154,-0.094 -0.225,-0.146 0.941,0.367 2.031,-0.009 2.532,-0.917 0.5,-0.909 0.235,-2.032 -0.579,-2.63 0.083,0.032 0.165,0.068 0.246,0.112 l -7.781,-4.285 c -0.989,-0.545 -1.349,-1.788 -0.804,-2.777 0.545,-0.989 1.788,-1.349 2.777,-0.805 l 16.541,9.111 c 0.989,0.545 2.232,0.184 2.777,-0.804 0.545,-0.989 0.185,-2.233 -0.804,-2.777 l -6.337,-3.491 c -0.989,-0.544 -1.349,-1.788 -0.804,-2.777 0.544,-0.989 1.788,-1.349 2.776,-0.804 l 2.181,1.201 c 0.989,0.545 2.233,0.184 2.777,-0.805 0.545,-0.988 0.185,-2.232 -0.804,-2.776 l -11.296,-6.222 c -0.989,-0.545 -1.349,-1.788 -0.804,-2.777 0.544,-0.989 1.787,-1.35 2.777,-0.805 l 15.452,8.511 c 0.989,0.545 2.232,0.184 2.777,-0.805 0.544,-0.988 0.184,-2.232 -0.805,-2.777 l -17.478,-9.626 c -0.989,-0.545 -1.349,-1.788 -0.804,-2.777 0.545,-0.989 1.788,-1.349 2.777,-0.805 l 21.385,11.779 c 0.989,0.544 2.232,0.184 2.777,-0.805 0.544,-0.989 0.184,-2.232 -0.804,-2.777 L 9.569,-55.414 c -0.989,-0.544 -1.349,-1.788 -0.805,-2.777 0.545,-0.989 1.788,-1.349 2.777,-0.804 l 11.698,6.443 c 0.989,0.544 2.232,0.184 2.777,-0.805 0.545,-0.989 0.185,-2.232 -0.804,-2.777 l -15.068,-8.299 c -0.989,-0.545 -1.349,-1.788 -0.804,-2.777 0.544,-0.989 1.788,-1.349 2.777,-0.804 l 18.542,10.212 c 0.989,0.545 2.232,0.185 2.777,-0.804 0.544,-0.989 0.184,-2.232 -0.805,-2.777 L 17.459,-69.74 c -0.989,-0.545 -1.349,-1.788 -0.804,-2.777 0.545,-0.989 1.788,-1.349 2.777,-0.804 l 11.697,6.443 c 0.99,0.544 2.233,0.184 2.778,-0.805 0.544,-0.989 0.184,-2.232 -0.805,-2.777 l -9.592,-5.283 c -0.989,-0.545 -1.349,-1.788 -0.805,-2.777 0.545,-0.989 1.788,-1.35 2.777,-0.805 l 14.614,8.049 c 0.989,0.545 2.233,0.185 2.777,-0.804 0.545,-0.989 0.185,-2.232 -0.804,-2.777 l -9.764,-5.378 c -0.989,-0.545 -1.349,-1.788 -0.805,-2.777 0.545,-0.989 1.788,-1.349 2.777,-0.805 l 11.041,6.081 c 0.988,0.545 2.232,0.184 2.777,-0.804 0.544,-0.989 0.184,-2.233 -0.805,-2.777 L 25.602,-93.263 c -0.989,-0.545 -1.349,-1.788 -0.805,-2.777 0.545,-0.989 1.788,-1.349 2.777,-0.805 l 15.964,8.793 c 0.989,0.545 2.232,0.184 2.777,-0.805 0.545,-0.988 0.185,-2.232 -0.804,-2.777 l -12.7,-6.994 c -0.989,-0.545 -1.349,-1.788 -0.804,-2.777 0.544,-0.989 1.788,-1.35 2.777,-0.805 l 4.255,2.344 c 0.989,0.545 2.232,0.184 2.777,-0.805 0.545,-0.988 0.185,-2.232 -0.804,-2.777 l -13.514,-7.442 c -0.989,-0.545 -1.348,-1.789 -0.804,-2.777 0.545,-0.989 1.788,-1.35 2.777,-0.805 l 19.492,10.736 c 19.339,19.913 23.283,48.052 9.925,72.305"
         transform="translate(238.2504,233.4539)"
         id="path9" /><g
         style="fill:#f7b360"
         id="g21"><path
           inkscape:connector-curvature="0"
           d="M 0,0 C -2.658,0.442 -5.367,0.699 -8.115,0.784 -8.29,0.396 -8.556,0.044 -8.959,-0.177 l -4.315,-2.377 c -0.989,-0.545 -1.349,-1.788 -0.804,-2.777 0.544,-0.989 1.788,-1.349 2.777,-0.805 l 10.927,6.019 C -0.255,-0.052 -0.125,-0.04 0,0"
           transform="translate(254.4874,232.9722)"
           id="path11" /><path
           inkscape:connector-curvature="0"
           d="m 0,0 -16.298,-8.977 c -0.989,-0.544 -1.349,-1.788 -0.804,-2.777 0.544,-0.989 1.788,-1.349 2.777,-0.804 L 0.45,-4.42 c 0.316,0.173 0.654,0.225 0.989,0.224 C 2.473,7.49 0.004,19.542 -6.175,30.762 l -0.171,0.309 c -9.005,16.35 -23.658,26.907 -40.56,30.287 0.188,-0.157 0.357,-0.342 0.482,-0.569 0.545,-0.989 0.185,-2.232 -0.804,-2.777 l -5.192,-2.86 c -0.988,-0.544 -1.348,-1.788 -0.804,-2.777 0.545,-0.989 1.788,-1.349 2.777,-0.804 l 9.487,5.225 c -0.08,-0.044 -0.155,-0.094 -0.226,-0.147 0.941,0.367 2.031,-0.008 2.531,-0.917 0.501,-0.909 0.236,-2.031 -0.578,-2.63 0.083,0.032 0.165,0.068 0.245,0.112 l -19.045,-10.49 c -0.989,-0.544 -1.349,-1.788 -0.804,-2.777 0.544,-0.989 1.788,-1.349 2.776,-0.804 l 17.543,9.662 c 0.989,0.545 2.232,0.184 2.777,-0.805 0.545,-0.988 0.184,-2.232 -0.804,-2.777 l -10.844,-5.972 c -0.989,-0.545 -1.349,-1.788 -0.805,-2.777 0.545,-0.989 1.788,-1.349 2.777,-0.805 l 6.688,3.684 c 0.989,0.544 2.232,0.184 2.777,-0.805 0.545,-0.989 0.185,-2.232 -0.804,-2.777 l -3.828,-2.108 c -0.989,-0.544 -1.349,-1.788 -0.804,-2.777 0.545,-0.989 1.788,-1.349 2.777,-0.804 l 7.984,4.397 c 0.989,0.544 2.232,0.184 2.776,-0.805 0.545,-0.989 0.185,-2.232 -0.804,-2.777 l -10.844,-5.972 c -0.989,-0.545 -1.349,-1.788 -0.804,-2.777 0.544,-0.989 1.788,-1.35 2.777,-0.805 l 14.751,8.125 c 0.988,0.544 2.232,0.184 2.776,-0.805 0.545,-0.989 0.185,-2.232 -0.804,-2.777 l -7.938,-4.372 c -0.989,-0.545 -1.349,-1.788 -0.805,-2.777 0.545,-0.989 1.789,-1.349 2.777,-0.805 l 7.939,4.373 c 0.989,0.544 2.232,0.184 2.777,-0.805 0.544,-0.989 0.184,-2.232 -0.805,-2.777 l -2.403,-1.324 c -0.989,-0.544 -1.349,-1.788 -0.804,-2.777 0.544,-0.989 1.788,-1.349 2.777,-0.804 l 5.878,3.237 c 0.989,0.545 2.232,0.184 2.776,-0.804 0.545,-0.989 0.185,-2.233 -0.804,-2.777 L -20.851,7.188 C -21.84,6.643 -22.2,5.4 -21.655,4.411 c 0.545,-0.989 1.788,-1.349 2.777,-0.805 l 7.938,4.372 c 0.989,0.545 2.233,0.185 2.777,-0.804 0.545,-0.989 0.185,-2.232 -0.804,-2.777 L -12.084,2.68 c -0.989,-0.545 -1.349,-1.788 -0.805,-2.777 0.545,-0.989 1.788,-1.349 2.777,-0.804 l 8.139,4.482 C -0.984,4.126 0.259,3.766 0.804,2.777 1.349,1.788 0.989,0.545 0,0"
           transform="translate(303.3135,171.2615)"
           id="path13" /><path
           inkscape:connector-curvature="0"
           d="M 0,0 2.219,1.222 C 0.627,1.07 -0.975,0.846 -2.582,0.574 -1.978,-0.215 -0.897,-0.494 0,0"
           transform="translate(236.131,232.2866)"
           id="path15" /><path
           inkscape:connector-curvature="0"
           d="m 0,0 c -0.989,-0.545 -1.349,-1.788 -0.804,-2.777 0.544,-0.989 1.788,-1.349 2.777,-0.805 l 2.647,1.458 c 0.029,0.017 0.063,0.015 0.093,0.03 0.472,1.761 0.856,3.539 1.161,5.33 z"
           transform="translate(298.2678,159.1463)"
           id="path17" /><path
           inkscape:connector-curvature="0"
           d="m 0,0 c -0.989,-0.545 -1.349,-1.788 -0.804,-2.777 0.359,-0.653 1.027,-0.997 1.721,-1.022 0.933,1.861 1.766,3.755 2.494,5.678 z"
           transform="translate(297.7487,149.5244)"
           id="path19" /></g><path
         style="fill:#a93a58"
         inkscape:connector-curvature="0"
         d="m 0,0 c -0.55,0.999 -1.806,1.363 -2.805,0.813 l -2.912,-1.604 c -0.999,-0.55 -1.363,-1.806 -0.812,-2.805 0.55,-0.999 1.806,-1.363 2.805,-0.813 l 2.911,1.604 C 0.186,-2.255 0.55,-0.999 0,0"
         transform="translate(255.7977,119.292)"
         id="path23" /><path
         style="fill:#a93a58"
         inkscape:connector-curvature="0"
         d="m 0,0 c -0.999,-0.55 -1.363,-1.806 -0.813,-2.805 0.551,-0.999 1.807,-1.363 2.806,-0.813 0.999,0.55 1.362,1.806 0.812,2.805 C 2.255,0.186 0.999,0.55 0,0"
         transform="translate(206.3299,169.1927)"
         id="path25" /><path
         style="fill:#a93a58"
         inkscape:connector-curvature="0"
         d="m 0,0 c -0.999,-0.55 -1.363,-1.806 -0.813,-2.805 0.551,-0.999 1.807,-1.363 2.806,-0.813 0.999,0.55 1.363,1.806 0.812,2.805 C 2.255,0.186 0.999,0.55 0,0"
         transform="translate(236.1735,157.3641)"
         id="path27" /><path
         style="fill:#a93a58"
         inkscape:connector-curvature="0"
         d="m 0,0 -2.912,-1.604 c -0.999,-0.55 -1.363,-1.806 -0.812,-2.805 0.55,-0.999 1.806,-1.363 2.805,-0.813 l 2.911,1.604 c 1,0.55 1.363,1.806 0.813,2.805 C 2.255,0.186 0.999,0.55 0,0"
         transform="translate(199.1898,212.0545)"
         id="path29" /><g
         style="fill:#fcc864"
         id="g55"><path
           inkscape:connector-curvature="0"
           d="m 0,0 c -1.105,-0.608 -1.507,-1.997 -0.899,-3.102 0.609,-1.105 1.998,-1.507 3.103,-0.899 1.104,0.609 1.507,1.998 0.898,3.102 C 2.494,0.206 1.105,0.609 0,0"
           transform="translate(143.6149,108.9987)"
           id="path31" /><path
           inkscape:connector-curvature="0"
           d="M 0,0 C 1.105,0.608 1.507,1.997 0.899,3.102 0.29,4.207 -1.099,4.609 -2.204,4.001 -3.308,3.392 -3.711,2.003 -3.102,0.899 -2.494,-0.206 -1.105,-0.609 0,0"
           transform="translate(112.7462,165.0441)"
           id="path33" /><path
           inkscape:connector-curvature="0"
           d="m 0,0 c -1.105,-0.609 -1.507,-1.997 -0.899,-3.102 0.609,-1.105 1.998,-1.507 3.103,-0.899 1.104,0.609 1.507,1.997 0.898,3.102 C 2.494,0.206 1.105,0.608 0,0"
           transform="translate(94.8766,134.3286)"
           id="path35" /><path
           inkscape:connector-curvature="0"
           d="m 0,0 c -0.609,1.105 -1.997,1.507 -3.102,0.899 l -12.167,-6.701 10e-4,-0.002 c -0.016,-0.01 -0.034,-0.017 -0.05,-0.027 -1.09,-0.635 -1.457,-2.034 -0.821,-3.123 0.626,-1.073 1.991,-1.444 3.073,-0.847 l 0.002,-0.003 12.166,6.7 -0.001,0.002 C 0.206,-2.494 0.608,-1.105 0,0"
           transform="translate(125.1552,116.9631)"
           id="path37" /><path
           inkscape:connector-curvature="0"
           d="M 0,0 C 1.105,0.608 1.507,1.997 0.899,3.102 0.29,4.207 -1.099,4.609 -2.204,4.001 -3.308,3.392 -3.711,2.003 -3.102,0.899 -2.494,-0.206 -1.105,-0.609 0,0"
           transform="translate(139.9048,80.869)"
           id="path39" /><path
           inkscape:connector-curvature="0"
           d="M 0,0 C -0.144,-0.08 -0.276,-0.173 -0.396,-0.277 L -6.065,-3.4 -6.068,-3.394 c -0.027,-0.016 -0.051,-0.034 -0.079,-0.049 -1.105,-0.608 -2.493,-0.206 -3.102,0.899 -0.609,1.105 -0.206,2.494 0.899,3.102 0.027,0.015 0.055,0.027 0.082,0.04 L -8.27,0.604 6.232,8.591 c 0.151,0.046 0.301,0.107 0.445,0.187 1.105,0.608 1.507,1.997 0.899,3.102 -0.6,1.089 -1.958,1.493 -3.055,0.922 l -0.027,0.049 -51.616,-28.429 c -1.122,-0.618 -1.537,-2.015 -0.929,-3.12 0.609,-1.105 2.012,-1.501 3.133,-0.883 l 16.322,8.989 c -0.053,-0.029 -0.1,-0.065 -0.144,-0.104 0.646,0.188 1.551,-0.405 2.111,-1.421 0.559,-1.016 0.576,-2.097 0.073,-2.543 0.057,0.016 0.112,0.036 0.165,0.065 l -7.197,-3.963 c -0.895,-0.494 -1.128,-1.79 -0.519,-2.895 0.609,-1.105 1.829,-1.602 2.724,-1.108 L 2.23,-4.048 2.204,-4.001 c 1.104,0.609 1.507,1.998 0.898,3.102 C 2.494,0.206 1.105,0.609 0,0"
           transform="translate(130.8437,81.1532)"
           id="path41" /><path
           inkscape:connector-curvature="0"
           d="m 0,0 c -6.026,10.94 -17.753,14.486 -28.869,8.363 l -10.499,-5.783 20.506,-37.232 10.499,5.783 c 11.117,6.123 14.486,17.753 8.46,28.693 z"
           transform="translate(261.316,182.2931)"
           id="path43" /><path
           inkscape:connector-curvature="0"
           d="M 0,0 C -1.105,-0.609 -2.494,-0.206 -3.102,0.899 -3.711,2.004 -3.308,3.392 -2.204,4.001 -1.099,4.609 0.29,4.207 0.899,3.102 1.507,1.997 1.105,0.609 0,0 m -6.002,-3.305 10e-4,-10e-4 -3.48,-1.917 -10e-4,10e-4 c -1.105,-0.608 -2.494,-0.206 -3.102,0.899 -0.609,1.105 -0.206,2.494 0.899,3.102 l 3.48,1.917 c 1.105,0.609 2.494,0.206 3.102,-0.899 0.609,-1.104 0.206,-2.493 -0.899,-3.102 m -47.435,99.094 v -0.001 l -3.48,-1.917 -10e-4,0.001 c -1.104,-0.608 -2.493,-0.206 -3.102,0.899 -0.608,1.105 -0.206,2.494 0.899,3.102 l 3.48,1.917 c 1.105,0.608 2.494,0.206 3.102,-0.899 0.609,-1.105 0.206,-2.493 -0.898,-3.102 m -4.793,-23.51 c -1.105,-0.608 -2.494,-0.206 -3.102,0.899 -0.609,1.104 -0.207,2.493 0.898,3.102 1.105,0.608 2.494,0.206 3.102,-0.899 0.609,-1.105 0.207,-2.494 -0.898,-3.102 M 15.593,-0.697 -43.506,106.604 -1.756,129.6 c 33.057,18.208 69.406,8.988 86.43,-21.919 l 0.17,-0.309 c 8.141,-14.781 9.97,-31.43 5.15,-46.881 C 85.084,44.755 73.489,31.192 57.344,22.299 Z M 95.971,112.86 c -20.015,36.339 -65.599,49.657 -102.01,29.897 -0.036,-0.018 -0.073,-0.033 -0.109,-0.053 l -0.312,-0.172 -0.001,-0.001 h -10e-4 l -98.102,-54.033 c -1.121,-0.617 -1.537,-2.014 -0.928,-3.12 0.609,-1.105 2.012,-1.5 3.133,-0.883 l 32.05,17.653 c 1.122,0.617 2.525,0.222 3.133,-0.883 0.609,-1.106 0.194,-2.503 -0.928,-3.12 L -95.102,83.274 c -1.122,-0.617 -1.537,-2.014 -0.929,-3.12 0.609,-1.105 2.012,-1.5 3.134,-0.883 l 15.587,8.585 c 1.121,0.618 2.524,0.223 3.133,-0.883 0.609,-1.105 0.193,-2.502 -0.928,-3.12 l -2.626,-1.446 c -1.121,-0.618 -1.537,-2.014 -0.928,-3.12 0.609,-1.105 2.012,-1.501 3.133,-0.883 l 11.47,6.317 c 1.121,0.617 2.523,0.221 3.132,-0.883 0.608,-1.106 0.193,-2.503 -0.929,-3.12 l -27.69,-15.252 c -1.122,-0.618 -1.537,-2.015 -0.928,-3.12 0.608,-1.105 2.011,-1.501 3.133,-0.883 l 16.434,9.051 c -0.091,-0.049 -0.175,-0.106 -0.257,-0.166 1.067,0.419 2.296,0.005 2.856,-1.011 0.559,-1.016 0.252,-2.276 -0.672,-2.953 0.094,0.036 0.187,0.077 0.278,0.127 l -6.901,-3.8 c -1.121,-0.618 -1.537,-2.015 -0.928,-3.12 0.609,-1.106 2.012,-1.501 3.133,-0.883 l 16.6,9.143 c 1.122,0.617 2.525,0.222 3.134,-0.883 0.608,-1.105 0.193,-2.501 -0.927,-3.12 l -19.555,-10.77 c -1.122,-0.618 -1.537,-2.015 -0.928,-3.12 0.608,-1.106 2.011,-1.501 3.133,-0.883 l 15.242,8.395 c 1.122,0.618 2.525,0.222 3.133,-0.883 0.609,-1.105 0.194,-2.502 -0.928,-3.12 L -84.813,36.766 c -1.121,-0.618 -1.537,-2.014 -0.928,-3.12 0.609,-1.105 2.012,-1.501 3.133,-0.883 l 16.398,9.032 c 1.122,0.617 2.524,0.222 3.133,-0.883 0.609,-1.106 0.193,-2.503 -0.928,-3.12 l -7.928,-4.367 c -1.121,-0.618 -1.537,-2.014 -0.928,-3.12 0.609,-1.105 2.012,-1.501 3.133,-0.883 l 13.811,7.607 c 1.122,0.617 2.524,0.222 3.133,-0.883 0.609,-1.106 0.194,-2.503 -0.928,-3.12 l -17.539,-9.661 c -1.122,-0.618 -1.538,-2.015 -0.929,-3.12 0.609,-1.105 2.012,-1.501 3.133,-0.883 l 25.896,14.263 c 1.121,0.617 2.524,0.222 3.133,-0.883 0.609,-1.106 0.193,-2.503 -0.928,-3.12 L -61.615,18.237 c -1.122,-0.617 -1.538,-2.014 -0.929,-3.12 0.609,-1.105 2.012,-1.5 3.133,-0.883 l 26.222,14.442 c 1.121,0.618 2.524,0.223 3.133,-0.883 0.609,-1.105 0.193,-2.502 -0.928,-3.12 L -41.42,18.926 c -1.122,-0.618 -1.537,-2.015 -0.928,-3.121 0.608,-1.105 2.011,-1.5 3.133,-0.883 l 5.619,3.095 c 1.121,0.618 2.524,0.222 3.133,-0.883 0.609,-1.105 0.193,-2.502 -0.928,-3.12 L -53.522,1.825 c -1.122,-0.618 -1.538,-2.015 -0.929,-3.12 0.609,-1.106 2.012,-1.501 3.133,-0.884 l 16.298,8.977 c 1.121,0.617 2.523,0.221 3.132,-0.884 0.609,-1.105 0.193,-2.502 -0.929,-3.12 L -52.981,-8.312 c -1.121,-0.618 -1.537,-2.015 -0.928,-3.12 0.609,-1.106 2.011,-1.501 3.133,-0.883 L -23.368,2.78 c 1.122,0.618 2.524,0.223 3.133,-0.883 0.609,-1.105 0.193,-2.502 -0.928,-3.12 l -26.102,-14.376 c -1.122,-0.618 -1.537,-2.015 -0.929,-3.12 0.609,-1.106 2.012,-1.501 3.134,-0.883 l 20.667,11.383 c 1.121,0.617 2.524,0.222 3.133,-0.884 0.608,-1.105 0.193,-2.502 -0.929,-3.12 l -8.097,-4.46 c -1.122,-0.617 -1.538,-2.014 -0.929,-3.12 0.609,-1.105 2.012,-1.501 3.133,-0.883 l 33.753,18.59 c 1.121,0.618 2.524,0.222 3.133,-0.883 0.608,-1.105 0.193,-2.502 -0.929,-3.12 l -40.341,-22.219 c -1.121,-0.618 -1.537,-2.015 -0.928,-3.12 0.609,-1.106 2.012,-1.501 3.133,-0.883 l 27.01,14.876 c 1.122,0.618 2.525,0.223 3.133,-0.883 0.609,-1.105 0.194,-2.502 -0.928,-3.12 l -8.759,-4.824 c -1.122,-0.618 -1.537,-2.015 -0.928,-3.12 0.608,-1.106 2.011,-1.501 3.133,-0.883 L 62.811,8.506 c 0.181,0.1 0.342,0.222 0.485,0.358 1.007,0.498 2.009,1.016 3.003,1.563 36.48,20.093 49.764,65.953 29.672,102.433"
           transform="translate(211.8557,94.4104)"
           id="path45" /><path
           inkscape:connector-curvature="0"
           d="m 0,0 c -1.105,-0.609 -1.507,-1.997 -0.899,-3.102 0.609,-1.105 1.998,-1.507 3.103,-0.899 1.104,0.609 1.507,1.998 0.898,3.102 C 2.494,0.206 1.105,0.609 0,0"
           transform="translate(138.8366,54.1898)"
           id="path47" /><path
           inkscape:connector-curvature="0"
           d="m 0,0 -12.166,-6.701 0.001,-0.002 c -0.017,-0.009 -0.034,-0.016 -0.051,-0.026 -1.089,-0.636 -1.457,-2.035 -0.821,-3.124 0.626,-1.073 1.991,-1.443 3.073,-0.847 l 0.002,-0.003 10e-4,-0.001 -6.189,-3.409 10e-4,-0.002 c -0.017,-0.009 -0.034,-0.016 -0.051,-0.026 -1.089,-0.636 -1.456,-2.034 -0.821,-3.124 0.627,-1.072 1.992,-1.443 3.074,-0.847 l 10e-4,-0.003 12.167,6.701 -0.001,10e-4 c 1.105,0.609 1.507,1.998 0.899,3.103 -0.609,1.105 -1.998,1.507 -3.103,0.898 l -0.002,0.001 6.19,3.409 v 10e-4 c 1.104,0.609 1.507,1.997 0.898,3.102 C 2.494,0.206 1.105,0.608 0,0"
           transform="translate(164.4786,68.3139)"
           id="path49" /><path
           inkscape:connector-curvature="0"
           d="M 0,0 C -0.017,-0.009 -0.034,-0.017 -0.051,-0.026 -1.14,-0.662 -1.508,-2.061 -0.872,-3.15 -0.245,-4.223 1.12,-4.593 2.202,-3.997 L 2.203,-4 6.294,-1.747 6.292,-1.75 6.286,-1.753 6.288,-1.754 C 6.271,-1.764 6.254,-1.771 6.237,-1.781 5.148,-2.417 4.78,-3.815 5.416,-4.904 6.042,-5.977 7.407,-6.348 8.489,-5.752 l 0.002,-0.003 12.166,6.701 v 0.001 c 1.104,0.609 1.507,1.998 0.898,3.103 -0.608,1.105 -1.997,1.507 -3.102,0.898 L 14.367,2.698 14.368,2.7 14.37,2.701 14.369,2.702 c 1.105,0.608 1.507,1.997 0.899,3.102 -0.609,1.105 -1.998,1.507 -3.103,0.899 L -0.001,0.002 Z"
           transform="translate(102.6864,138.6285)"
           id="path51" /><path
           inkscape:connector-curvature="0"
           d="M 0,0 C 1.105,0.608 1.507,1.997 0.899,3.102 0.29,4.207 -1.099,4.609 -2.204,4.001 -2.348,3.921 -2.48,3.828 -2.599,3.724 L -8.262,0.605 -8.265,0.61 C -8.291,0.594 -8.316,0.577 -8.343,0.562 c -1.105,-0.609 -2.494,-0.206 -3.102,0.898 -0.609,1.105 -0.207,2.494 0.898,3.103 0.027,0.015 0.055,0.026 0.083,0.04 l -0.003,0.005 1.58,0.87 c 0.152,0.046 0.301,0.107 0.445,0.187 1.105,0.609 1.508,1.997 0.899,3.102 -0.6,1.089 -1.958,1.494 -3.055,0.922 l -0.027,0.05 -26.793,-14.757 c -0.582,-0.321 -0.56,-1.477 0.049,-2.582 0.608,-1.106 1.574,-1.742 2.156,-1.421 l 4.421,2.434 c -0.053,-0.029 -0.1,-0.065 -0.144,-0.104 0.646,0.187 1.551,-0.405 2.11,-1.421 0.56,-1.016 0.577,-2.098 0.073,-2.544 0.057,0.017 0.113,0.037 0.165,0.066 l -18.305,-10.082 c -1.192,-0.656 -1.664,-2.085 -1.056,-3.19 0.609,-1.106 2.069,-1.47 3.261,-0.813 L 0.026,-0.047 Z"
           transform="translate(107.5521,157.0254)"
           id="path53" /></g></g><text
       id="text2810-3"
       y="-30.956606"
       x="270.19403"
       style="font-style:normal;font-variant:normal;font-weight:normal;font-stretch:normal;font-size:15.19678402px;line-height:1.25;font-family:monserrat;-inkscape-font-specification:monserrat;letter-spacing:0px;word-spacing:0px;fill:#000000;fill-opacity:1;stroke:none;stroke-width:0.37991962"
       xml:space="preserve"
       transform="scale(1,-1)"><tspan
         style="font-style:normal;font-variant:normal;font-weight:bold;font-stretch:normal;font-size:60px;font-family:monserrat;-inkscape-font-specification:'monserrat Bold';fill:#ffffff;stroke-width:0.37991962"
         y="-30.956606"
         x="270.19403"
         id="tspan2808-6"
         sodipodi:role="line">We want to know your opinion.</tspan></text>
<text
       transform="scale(1,-1)"
       id="text2810"
       y="-104.67758"
       x="263.49854"
       style="font-style:normal;font-variant:normal;font-weight:normal;font-stretch:normal;font-size:15.19678497px;line-height:1.25;font-family:monserrat;-inkscape-font-specification:monserrat;letter-spacing:0px;word-spacing:0px;fill:#000000;fill-opacity:1;stroke:none;stroke-width:0.37991962"
       xml:space="preserve"><tspan
         style="font-style:normal;font-variant:normal;font-weight:bold;font-stretch:normal;font-size:111.44308472px;font-family:monserrat;-inkscape-font-specification:'monserrat Bold';fill:#ffffff;stroke-width:0.37991962"
         y="-104.67758"
         x="263.49854"
         id="tspan2808"
         sodipodi:role="line">State of D</tspan></text>
<text
       id="text2810-7"
       y="-104.67758"
       x="819.68304"
       style="font-style:normal;font-variant:normal;font-weight:normal;font-stretch:normal;font-size:15.19678402px;line-height:1.25;font-family:monserrat;-inkscape-font-specification:monserrat;letter-spacing:0px;word-spacing:0px;fill:#f7b060;fill-opacity:1;stroke:none;stroke-width:0.37991962"
       xml:space="preserve"
       transform="scale(1,-1)"><tspan
         style="font-style:normal;font-variant:normal;font-weight:normal;font-stretch:normal;font-size:111.44308472px;font-family:monserrat;-inkscape-font-specification:monserrat;fill:#f7b060;fill-opacity:1;stroke-width:0.37991962"
         y="-104.67758"
         x="819.68304"
         id="tspan2808-5"
         sodipodi:role="line">2018</tspan></text>
</g></svg>