<svg version="1" xmlns="http://www.w3.org/2000/svg" width="1365.333" height="1365.333" viewBox="0 0 1024.000000 1024.000000"><path d="M700.8 122.5c-.2.1-2.8.6-5.8.9-3 .4-7.5.9-10 1.2-2.5.3-6.7.9-9.5 1.4-2.7.5-6.3 1.2-8 1.5-1.6.3-3.9.7-5 .9-31.9 7-61.1 18.5-93 36.6-2.2 1.2-6.5 3.6-9.5 5.2-3 1.7-10 5.5-15.5 8.6-5.5 3.1-10.2 5.7-10.5 5.7-.3 0-1.6.8-3 1.7-1.4.8-5.6 3.3-9.5 5.3-3.8 2.1-9.2 5.1-12 6.7-2.7 1.5-5.7 3.1-6.5 3.5-.8.4-7.1 3.8-14 7.6s-17 9.4-22.5 12.4-10.7 5.8-11.5 6.3c-.8.5-6.1 3.4-11.7 6.4-16.7 9.1-19.7 10.8-22.5 12.8-1.6 1.1-2.8 1.7-2.8 1.4 0-.2-4.4 2-9.7 5.1-5.4 3-12.3 6.9-15.3 8.5-3 1.7-9.8 5.5-15.1 8.4-5.4 3-10.2 5.4-10.8 5.4-.6 0-1.1.3-1.1.8 0 .4-1.7 1.5-3.7 2.5-2.1.9-5.1 2.5-6.8 3.5-1.6 1-6.4 3.7-10.5 5.9-7.3 3.9-12.3 6.7-22.5 12.3-2.7 1.5-7.2 4-10 5.5-2.7 1.5-9 5-14 7.8-4.9 2.7-11.2 6.2-14 7.7-2.7 1.5-6.6 3.6-8.5 4.7-4 2.3-9.7 5.4-26 14.3-6.3 3.5-14 7.7-17 9.3-3 1.7-14.3 7.9-25 13.8-21.6 11.9-23.7 13.9-21.8 20.3 1.4 4.3 5.8 7 10 6.1 1.7-.4 5.7-2.2 8.8-4.1 3.2-1.9 6.1-3.4 6.4-3.4.4 0 2.3-1 4.4-2.3 3.2-2.1 12.9-7.4 24.2-13.4 1.9-1 3.7-2 4-2.3.3-.3 2.8-1.6 5.5-3 2.8-1.4 5.2-2.8 5.3-3.3.2-.4.7-.7 1.2-.7.4 0 11-5.7 23.6-12.6 12.6-7 25.4-14 28.4-15.6 3-1.7 8.7-4.8 12.7-7 3.9-2.1 8.1-4.1 9.4-4.3 3.2-.6 8.6 3 9.3 6.3 1.2 5.8-.5 8.5-7.7 12.6-17.1 9.5-62 34.2-63.7 35-.8.4-2.4 1.2-3.5 1.9s-9.9 5.6-19.5 10.9c-20.5 11.4-20.5 11.4-21.4 15.2-1 4 .9 8.1 4.6 9.9 3.7 1.8 7.1 1.3 11-1.4 1.5-1.1 2.8-1.7 2.8-1.4 0 .3 1.2-.2 2.8-1.3 1.5-1 4.5-2.8 6.7-3.9s5.6-2.9 7.5-4c1.9-1.1 7.1-4 11.5-6.4 4.4-2.4 8.9-4.9 10-5.6 10.3-5.9 21.2-11.3 22.8-11.3 2.6 0 7.6 3.4 8.1 5.5 1.8 6.7 0 9.5-9.9 15-6.7 3.8-8.4 5.7-9.2 10.5-1 6.7 8.6 11.3 14.6 7.1 1.7-1.3 3.1-1.9 3.1-1.5 0 .3.6.1 1.3-.5 1.5-1.2 11.9-7 17.7-9.9 1.9-.9 3.7-2 4-2.3 1.1-1.3 20.6-11.3 22-11.3 5.5-.1 10.2 4.7 9.5 9.5-.7 5.4-1.3 6-16 14-3.3 1.7-8.6 4.7-11.8 6.5-3.2 1.9-6.2 3.4-6.7 3.4s-1.5.6-2.2 1.2c-.7.7-3.6 2.4-6.3 3.8-2.8 1.3-6.6 3.4-8.5 4.5-1.9 1.2-6.9 4-11 6.2-15.4 8.3-19.6 10.7-25.3 13.9-3.2 1.9-6 3.4-6.1 3.4-.2 0-4.7 2.5-10.1 5.5-5.3 3-10 5.5-10.4 5.5-1.3 0-3.9 3.8-4.5 6.6-.8 3.9 1.2 7.5 5.3 9.6 3.1 1.5 3.5 1.5 7.5-.1 2.2-1 9.7-5 16.6-8.8 17.8-9.9 20.3-11.3 31.5-17.3 5.5-3 10.2-5.7 10.5-6 .6-.7 6.9-3.4 9-3.7 2.5-.4 6.7 1.7 7.9 4 3.3 6.3 1 11-7.6 15.5-16.2 8.4-22.8 12.7-24.5 16-2.9 5.8 1 12.2 7.5 12.2 2.7 0 18.8-7.6 19.5-9.2.2-.5.7-.8 1.1-.8.7 0 13.6-7 37.6-20.3 13.8-7.6 14.3-7.8 17.5-7.9 3.7-.1 7.6 3.2 8.3 7 .8 4.2-1.6 8.5-5.9 10.8-2.1 1.1-11 5.9-19.6 10.7-8.6 4.8-16.2 8.7-16.7 8.7-.6 0-1.1.3-1.1.8 0 .4-1.7 1.5-3.7 2.5-2.1.9-5.1 2.5-6.8 3.5-1.6 1-8.9 5-16.1 9-7.1 3.9-13.9 8.1-14.9 9.2-2.7 3-2.3 8.6.8 11.8 3.6 3.6 7.9 3.1 16.5-1.8 3.9-2.2 7.5-4 8-4s1.5-.7 2.2-1.5c.7-.9 1.5-1.3 1.7-1.1.3.3 2.9-1.1 5.8-3 3-1.9 5.7-3.4 6-3.4.3 0 7.4-3.9 15.8-8.6 8.3-4.7 16.4-8.8 17.9-9.1 8.3-1.7 14.1 7.9 8.5 14.1-2.1 2.4-7.9 5.9-17.7 10.8-2.5 1.3-4.7 2.5-5 2.8-.6.6-1.2.9-12.5 7-4.4 2.3-9.5 5.2-11.5 6.3-1.9 1.1-6.9 3.8-11 6s-7.9 4.3-8.5 4.7c-.5.4-3.7 2.2-7 4-8.1 4.4-27.5 15-41 22.5-11.9 6.6-14.1 9-13 14.7.4 1.8 1.8 4.1 3.1 5.1 3.8 2.9 7.6 2.4 14.6-1.7 2.4-1.4 5.7-3.3 7.5-4.1 1.7-.8 5.5-2.8 8.3-4.5 2.8-1.7 8.1-4.6 11.8-6.6 6.7-3.6 9.2-5 25.2-13.9 4.7-2.6 9.8-4.9 11.4-5.1 8-1 13.1 9.3 7.4 15-.7.7-4 2.7-7.3 4.5-29.1 16-30.5 16.9-31.3 21.6-.5 3.3 1.8 7.3 5.2 8.9 3.6 1.7 6.3 1.3 11.6-1.7 13.3-7.5 30.4-16.7 31.1-16.7.4 0 .9-.3 1.1-.8.2-.4 2.6-1.8 5.3-3.2 2.8-1.4 5.2-2.7 5.5-3 1.5-1.6 11.5-6 13.5-6 3.5 0 8.5 4.6 8.5 7.8 0 6.7-.6 7.2-22 18.9-3 1.7-9.8 5.4-15 8.3-5.2 2.9-12.9 7.1-17 9.3-4.1 2.2-8.7 4.9-10.2 5.9-1.6 1.1-2.8 1.7-2.8 1.4 0-1.2-10.1 5.7-11 7.4-3.3 6.2 2.2 14.4 8.9 13.4 1.3-.3 5.8-2.3 10-4.6 14.2-7.7 15.8-8.6 18.2-9.9 1.3-.8 3.2-2 4.2-2.8.9-.8 1.7-1.1 1.7-.7 0 .4 1.3-.2 2.9-1.3 1.6-1.2 3.1-2.1 3.4-2.1.3 0 3.4-1.6 6.9-3.6 3.4-2 9.2-5.3 12.8-7.2 3.6-1.9 11.5-6.3 17.5-9.6 6.1-3.4 12.6-7 14.5-7.9 1.9-1 5.3-2.9 7.5-4.3 2.2-1.3 5.1-2.9 6.5-3.5 12.2-5.3 19.4 10 7.8 16.4-2.3 1.2-6.2 3.3-8.7 4.7-2.5 1.4-7.1 3.9-10.1 5.6-3 1.8-8.2 4.6-11.5 6.4-3.3 1.8-8 4.4-10.5 5.8-4.2 2.3-9.4 5.1-19.5 10.5-2.2 1.2-4.2 2.5-4.5 2.8-.3.3-2.5 1.5-5 2.8-2.5 1.3-6.2 3.2-8.2 4.2-5.2 2.7-8.2 7.2-7.4 11.2.7 3.9 3.5 6.5 7.7 7.2 2.6.5 5.3-.6 14.8-5.8 6.4-3.6 14.8-8.1 18.6-10.2 3.9-2.1 8.4-4.6 10-5.6 1.7-1 5.9-3.3 9.5-5.2 3.6-1.9 8.3-4.5 10.5-5.7 2.2-1.3 6.5-3.6 9.5-5.3 3-1.6 8-4.4 11-6.1 3-1.7 6.9-3.8 8.5-4.6 1.7-.8 3.2-1.7 3.5-2.1.3-.3 2.5-1.5 5-2.8 2.5-1.2 6.1-3.1 8-4.1 4.2-2.3 8.4-1.9 11.5 1 2.9 2.7 3.5 6 2 9.8-1 2.2-4 4.4-12.6 9.3-6.3 3.5-13.2 7.2-15.4 8.3-2.2 1.1-4.2 2.2-4.5 2.5-.3.3-2.5 1.7-5 3-9 4.8-10.8 6.2-11.9 9.2-1.4 4.2.8 9.5 4.6 11 2.7 1 10.3.3 10.3-.9 0-.4 1-1.2 2.3-1.8 1.2-.6 6-3.1 10.7-5.6 11.8-6.4 15.9-6.6 19.3-.8 3.1 5.2 1 10.4-5.5 13.9-2.4 1.2-6.5 3.5-9.3 5-2.7 1.5-20.6 11.4-39.7 21.9-19.1 10.6-35.1 19.2-35.4 19.2-.4 0-1.9 1.4-3.4 3.1-2.2 2.3-2.7 3.8-2.4 6.6.9 9.1 8.4 10.2 20.9 3.1 4.4-2.5 11.2-6.2 15-8.3 3.9-2.1 9.9-5.5 13.5-7.5 3.6-2 7.2-4 8-4.4.8-.3 5.1-2.7 9.5-5.2s9.5-5.2 11.4-6c6.9-3.1 13.8 1.6 12.8 8.9-.6 4.3-2.6 6.2-11.2 10.6-3.3 1.8-6.7 3.6-7.5 4.1-.8.6-9.8 5.6-20 11.1-10.2 5.6-20.5 11.3-23 12.7-6.5 3.6-19.2 10.4-21.5 11.6-5.5 2.6-7.6 10.6-3.9 14.7.9 1.1 3.1 2.3 4.8 2.8 3.7 1 4.1.8 58.6-29.4 5.2-2.9 11.5-6.4 14-7.7 8.7-4.8 27.6-15.2 33.5-18.5 14.5-8.2 18.9-8.1 22.5.4 1.6 3.8-.7 7.9-6.1 11.3-2.7 1.6-5.1 3-5.3 3-.2 0-4.7 2.5-10.1 5.5-5.3 3-9.8 5.5-10 5.5-.2 0-2.6 1.3-5.2 2.8-2.6 1.6-8.4 4.8-12.8 7.2-4.4 2.4-9.4 5.1-11.2 6.1-1.8 1-6.3 3.5-10 5.5s-9.8 5.4-13.5 7.5c-3.6 2.2-6.9 3.9-7.1 3.9-1.6 0-18.5 10.5-19.9 12.3-3.9 5 .7 13.7 7.3 13.7 2 0 13-5.5 32.9-16.5 16.5-9.1 30.4-16.5 31-16.5.5 0 1-.3 1-.8 0-.4 1-1.2 2.3-1.8 1.2-.6 6.5-3.4 11.8-6.2 9.6-5.2 13.3-6.1 17-4.2 4.1 2.2 5.3 8.5 2.4 13.1-.5.9-9.1 6.1-18.9 11.5-12.1 6.7-18.5 10.8-19.6 12.6-2.4 4-1.4 8.4 2.4 11.3 3.9 2.9 6.8 2.6 14.1-1.4 5.3-3 11-6.2 21.5-11.9 3.6-1.9 9.9-5.4 14-7.8 4.2-2.3 10.5-5.8 14.1-7.7 3.5-1.9 14.3-7.8 23.8-13.1s17.6-9.6 18.1-9.6c.4 0 1.3-.7 2-1.5s1.6-1.3 2-1c.5.3 1.1.1 1.5-.4.3-.5 1.8-1.6 3.3-2.4 3.8-2 14.1-7.6 17.7-9.7 11.1-6.5 15-8 18.5-7 3.8 1 6.9 5.1 6.6 8.5-.5 4.6-1.9 6.4-7.4 9.4-3.1 1.7-7 3.9-8.7 4.9-1.6.9-6.8 3.8-11.5 6.3-4.7 2.6-10.1 5.5-12 6.6-1.9 1.1-7.1 3.9-11.5 6.3-4.4 2.3-8.4 4.6-9 5-.5.5-4.4 2.6-8.5 4.8-4.1 2.2-11.2 6-15.8 8.6-4.5 2.5-8.7 4.6-9.2 4.6-.6 0-1 .4-1 .8s-1.2 1.3-2.7 1.9c-1.6.7-5.5 2.7-8.8 4.6-8.1 4.6-33.5 18.6-41.5 22.9-21 11.3-22.2 12.3-21.7 17.9.5 4.5 1.1 5.6 4.7 7.4 4.1 2.1 6 1.6 17-4.5 3.6-2 9.4-5.2 13-7.2 9.1-4.9 11.3-6.1 13.3-7.7.9-.8 1.7-1 1.7-.6s.8.2 1.8-.6c.9-.8 3.5-2.4 5.7-3.6 2.2-1.2 6.9-3.8 10.5-5.8 3.6-2 7.7-4.2 9.3-4.8 1.5-.6 2.7-1.5 2.7-1.9 0-.4.5-.8 1-.8.6 0 4.5-2 8.8-4.3 27.2-15.4 33.5-18.5 36.6-18.1 3.5.4 6.2 2.7 7.5 6.4 1.5 4.4-1.3 8.8-8 12.4-3.1 1.7-9.6 5.3-14.5 8-4.9 2.8-11.1 6.2-13.7 7.6-6.2 3.3-8.2 6.5-7.3 11.4.8 4.1 5.5 7.8 9.1 7.2 2.2-.4 7.7-2.7 8.5-3.6.3-.3 2-1.3 3.8-2.2 4.4-2.3 16.7-9 22.2-12.2 2.5-1.3 6.5-3.5 9-4.7 2.5-1.3 4.7-2.5 5-2.9.3-.3 1.6-1.1 3-1.7 1.4-.7 5.4-2.9 9-4.9 8.2-4.6 18.3-10.1 23.5-12.8 2.2-1.2 4.2-2.4 4.3-2.9.2-.4.7-.7 1.2-.7.4 0 3.9-1.7 7.7-3.9 3.7-2.1 9.7-5.4 13.3-7.3 7.6-4.1 22.8-12.5 25-13.8 2.5-1.5 29.1-16.1 35.5-19.5 3.3-1.8 7.6-4.1 9.5-5.2 2.9-1.6 20.3-11.2 39.5-21.8 10.2-5.6 16.5-9.1 22.8-12.6 3.8-2.2 7.3-3.9 7.7-3.9.5 0 1.5-.6 2.2-1.3.8-.6 2.8-2 4.6-2.9 10.7-5.7 19.4-10.5 24.2-13.3 3-1.8 8.9-5 13-7.2 10.6-5.6 13.5-7.3 21.9-12.9 4-2.7 8-5.4 8.9-5.9 13.2-8.5 47.1-39.5 56.7-51.9 1.7-2.1 3.5-4.3 4-5 2.5-2.9 8.3-10.5 10.5-13.8 1.4-2.1 2.8-3.8 3.3-3.8.4 0 .7-.4.7-1 0-.8 8.6-14.8 10.8-17.5 1.8-2.2 18.3-36.4 20.3-42 7.2-20.5 9.1-26.5 12.2-39.5 4.1-16.9 5.4-24.2 7.4-42.5 1.6-14.2.6-64.6-1.3-67.6-.2-.4-.6-2.6-.9-5-.5-5.3-2.3-14.8-4-21.9-1.2-5-1.6-6.8-2-8.5-.5-2.5-4.7-16.3-6.9-23-5.9-17.3-19.4-45.3-29.7-61.5-4.9-7.9-17.9-26.1-20.3-28.6-.6-.6-2.4-2.9-4.1-5-5.2-6.8-32.8-33.6-42.1-40.9-4.9-3.9-9-7.3-9.2-7.8-.2-.4-.8-.7-1.3-.7s-4-2.1-7.7-4.8c-7.5-5.3-7.4-5.2-19.2-12.1-17.3-10.1-47.1-23.1-61.2-26.7-.5-.1-1-.3-1.3-.4-.3-.1-.9-.4-1.5-.5-.5-.1-1.1-.3-1.2-.5-.2-.1-1-.3-1.8-.5-.8-.1-5.1-1.2-9.5-2.3-4.4-1.2-9.3-2.3-11-2.6-1.6-.3-5.5-1-8.5-1.6-3-.6-7.1-1.3-9-1.5-1.9-.3-5.3-.8-7.5-1.1-2.2-.4-6-.9-8.5-1.1-5.1-.5-51.7-1.2-52.2-.8zM394.8 330c4.9 4.6 3.9 10.9-2.3 15.1-4.9 3.3-13.7 7.9-16.3 8.4-5.2 1-11-5.4-9.7-10.6 1.1-4.4 2.3-5.4 17.5-13.5 3.6-2 8.3-1.7 10.8.6zm-18 94.5c4.1 4.8 2.2 12-3.9 14.1-9.6 3.3-16.2-9.4-8.1-15.6 3.6-2.7 8.9-2 12 1.5zm230.3 286.1c7.2 6.5.7 18-8.6 15.1-7.7-2.3-8-13.9-.5-17 2.2-.9 7.1.1 9.1 1.9zm-23.2 14c4.6 4.4 2.1 13-4.3 15-1.2.4-2.3 1-2.6 1.4-1 1.4-11.7 6-14.1 6-4.7-.1-9-5.4-8-10 1.2-4.9 3.4-6.9 14.1-12.2 1.4-.7 2.7-1.6 3-1.9.7-1 5.2-1.7 7.5-1.1 1.1.2 3.1 1.5 4.4 2.8z"/><path d="M201.5 430.6c-2.3 2.5-3 4.7-2.6 8.4.3 2.2 5.8 7 8.2 7 2.9 0 7.5-2.6 8.4-4.7 1.9-4.9 1.6-7.3-1.4-10.3-3.9-4-9.1-4.1-12.6-.4zM144.4 440.6c-3.8 2-11.6 6.3-17.3 9.5-5.7 3.3-10.7 5.9-11.2 5.9-.4 0-1.5.7-2.3 1.6-.9.9-2.2 1.7-2.9 1.8-.7.1-2.8 1.1-4.7 2.2-1.9 1.2-6.6 3.8-10.5 5.9-3.8 2.1-8.6 4.7-10.5 5.8-1.9 1.1-6.2 3.4-9.5 5.2-3.3 1.8-10.9 6-17 9.4-6 3.4-12.2 6.7-13.7 7.4-5.4 2.3-4 11.2 2.5 16.1l2.6 1.9 5.8-3.2c13.3-7.3 14-7.6 16.8-6.1 5.4 2.9 8 14.1 3.6 15.8-.9.3-3.6 1.8-6.1 3.2-2.5 1.5-9 5.1-14.5 8-5.5 2.9-12.2 6.6-14.8 8.2-2.6 1.5-5.2 2.8-5.7 2.8-.6 0-1 .4-1 1 0 .5-.3.9-.7.8-.7-.3-17.3 8.7-27.1 14.5-4.3 2.5-6.3 5.7-6 9.6.3 4 3.5 7 7.9 7.6 3.4.4 10.2-2.9 41.7-20.7 5.7-3.2 10.7-5.8 11.2-5.8.4 0 1.3-.7 2-1.5s2.1-1.5 3.1-1.5c1.1 0 1.9-.5 1.9-1 0-.6.4-1 1-1 .5 0 3.3-1.4 6.2-3.1 2.9-1.7 8.2-4.7 11.8-6.6 3.6-1.9 8.3-4.4 10.5-5.7 2.2-1.2 7.2-3.9 11-6 3.9-2.2 13.1-7.3 20.5-11.4 7.4-4.1 16.4-9 20-11 3.6-1.9 7.9-4.2 9.5-5.2 1.7-.9 6.2-3.4 10-5.5 15.2-8.2 24.3-13.5 25.5-15 2.1-2.5 2.3-8.8.3-11.2-3.1-3.9-7.6-4.5-12.5-1.9-11.1 6-13.6 7.4-18 9.9-6.7 4-9.9 4.7-13.6 3.1-3.9-1.6-5.7-5.1-4.8-9.7.7-3.9 2.2-5.3 8.9-8.8 6-3 7.7-4.9 8.1-8.5.5-5.5-3.9-10.4-9.3-10.4-1 0-4.9 1.6-8.7 3.6zM215 525.9c-3.6 2-9.6 5.4-13.5 7.5-3.8 2.2-11 6.2-16 8.9-4.9 2.8-10.4 5.7-12.1 6.5-7.3 3.4-7.6 13.7-.7 16.9 3.8 1.8 4.1 1.8 13.7-3.2 7.7-4 8.6-4.3 7.5-2.3-1.9 3.4-1.9 4.9-.2 8.5 1.1 2.3 2.5 3.5 5.1 4.3 3.7 1 7-.2 16.7-5.8 1.7-.9 6.6-3.7 11-6.1 4.4-2.4 9.4-5.2 11-6.1 1.7-.9 6.3-3.4 10.3-5.5 8.6-4.6 10.1-6.1 10.9-10.8.5-3.1.1-4-2.6-6.8-2.7-2.7-3.7-3.1-6.9-2.6-2 .2-6.5 2.1-9.9 4.1-7.1 4.2-7.8 4.3-6.3 1.6 2.9-5.4-2.1-13.1-8.3-12.9-1.8.1-6.1 1.8-9.7 3.8zM142.8 565.8c-1 .2-1.8.8-1.8 1.3s-.6.9-1.4.9c-1.5 0-2.8 3.1-2.8 6.8-.1 8 10 11.6 15.9 5.7 2.3-2.3 2.1-9.1-.3-11.5-2.2-2.2-7-3.8-9.6-3.2zM247.5 632.8c-1.6.9-3.2 1.9-3.5 2.2-.3.3-2.7 1.7-5.5 3.1-2.7 1.4-7.7 4.1-11 5.9-3.3 1.8-8.5 4.7-11.6 6.4-3.1 1.7-8.3 4.6-11.6 6.4-7.9 4.4-9.8 8.3-6.8 14.1 1.6 3.3 6.4 5.6 9.4 4.6 1.2-.3 5.8-2.7 10.4-5.2 12.6-7 17.6-9.7 25.2-13.8 3.9-2.1 8.7-4.9 10.7-6.2 2.1-1.3 4.2-2.3 4.8-2.3 1.4 0 4.7-5.6 4.5-7.7-.3-3.9-1.8-6.4-4.5-7.8-3.8-1.9-6.8-1.9-10.5.3zM333.4 668.2c-2.9 2.3-3.9 7.1-2.4 10.8 1.4 3.3 6.1 5.9 9.5 5.2 2.6-.5 7.8-5 7.1-6.1-.3-.4-.1-1.3.4-2.1 1.2-2-1.5-6.7-4.9-8.4-3.5-1.9-6.8-1.7-9.7.6zM295.3 730.4c-4.3 2.4-10 5.5-12.8 7.1-2.7 1.5-7.5 4.1-10.5 5.8-3 1.6-6.8 3.8-8.5 4.7-1.6 1-5.9 3.3-9.5 5.2-3.6 2-8.5 4.7-11 6.1-19.3 10.7-41.4 22.7-42.1 22.7-.5 0-.9.3-.9.8 0 .4-1.5 1.4-3.2 2.1-1.8.8-8.4 4.3-14.6 7.8-6.3 3.5-13.5 7.5-16 8.8-2.6 1.4-5.4 3-6.2 3.5-.8.5-9.8 5.5-20 11s-19.2 10.5-20 11c-.8.5-4 2.2-7 3.7s-5.7 3.1-6 3.4c-.3.3-3.3 2.1-6.7 3.9-6.9 3.8-8.9 6.9-7.8 11.9.9 4 5 7.3 8.5 6.8 3.8-.7 19.6-8.5 23.5-11.7.8-.7 1.5-.9 1.5-.5 0 .5.8.2 1.8-.6 1.8-1.5 3.1-2.2 11.5-6.8 2.9-1.6 10.9-6 17.8-9.8 7.6-4.2 13.5-6.8 14.8-6.6 2.4.3 7 5 7.2 7.3.1.8.3 2.7.4 4.2.5 3.4.5 3.4-14.5 11.4-3 1.6-5.7 3.1-6 3.4-.3.3-2.3 1.4-4.5 2.5-5.4 2.7-6.5 3.9-7 7.6-.4 3.6.8 6.5 3.8 9.1 4 3.6 4.2 3.5 45.2-19.2 19.7-10.9 37.7-20.7 41.5-22.8 2.5-1.3 5.9-3.2 7.5-4.2 1.7-.9 6.2-3.4 10-5.5 9-4.9 15.4-8.4 23.5-12.9 3.6-2 8.3-4.6 10.5-5.7 2.2-1.2 4.8-3.2 5.8-4.5 4-5.4 1.4-12.8-4.9-14-3.8-.7-4.8-.4-15.9 5.9-3.3 1.8-8.1 4.5-10.8 6-6 3.4-9.3 4-12.6 2.2-2.7-1.3-5.1-5.2-5.1-8 0-3.5 2.7-6.5 9.3-10.3 7.8-4.3 9.5-5.3 23.2-12.8 5-2.7 9.9-5.4 11-6.1 1.1-.7 3.7-1.9 5.8-2.9 2-.9 3.7-2 3.7-2.5s.3-.9.8-.8c1.3.2 5.2-1.3 5.2-2 0-.4 1.7-1.5 3.9-2.4 9.5-4.2 7.1-17.5-3.1-17.5-1.4 0-6.2 1.9-10.5 4.2zM310.8 763.5c-2.3 1.3-3.3 3.3-4.4 9.1-.5 2.6 4.1 6.5 8.2 7.1 8.8 1.2 13.2-9 6.8-15.5-2.1-2-7.6-2.4-10.6-.7zM416.4 829.7c-2.7 1.3-7.1 3.7-9.9 5.3-2.7 1.5-7 3.9-9.5 5.2-21.1 11.5-29 16.2-30.5 17.8-1 1.1-1.7 3.5-1.7 5.7 0 3 .6 4.3 3.2 6.5 1.9 1.5 4.1 2.5 5.3 2.2 2.7-.5 1.3.8-3.8 3.6-19.2 10.5-20.7 11.9-20.7 17.6 0 3.5 5.2 8.4 8.8 8.4 1.5 0 6.6-2.3 11.5-5 4.9-2.8 9.3-5 9.9-5 .5 0 1-.3 1-.8 0-.4 2.1-1.7 4.8-3 2.6-1.2 5.4-2.7 6.2-3.2.8-.5 5.8-3.3 11-6.1 10.8-5.9 12.9-8 13-12.7 0-4.5-4.9-9.6-8.6-8.9-3.3.6-2.1-.5 4.6-4.1 15-8.2 17.6-9.9 18.8-12.6 1.8-3.6.8-8.7-1.9-10.4-4.8-3-6.4-3.1-11.5-.5zM313.3 887.4c-3.2 3.8-2.6 9 1.2 12.3 3.7 3.2 8 3 11.6-.6 4.3-4.3 3.8-10.5-1.1-13.4-4.2-2.5-8.7-1.8-11.7 1.7z"/></svg>