<svg height="261.87109" viewBox="0 0 343.81203 261.87109" width="343.81204" xmlns="http://www.w3.org/2000/svg" xmlns:xlink="http://www.w3.org/1999/xlink"><clipPath id="a"><path d="m0 308.33h847.559v-308.33h-847.559z"/></clipPath><g clip-path="url(#a)" transform="matrix(1.3333333 0 0 -1.3333333 -79.11697870412 328.41147091215)"><path d="m0 0 10.499 5.783c11.117 6.123 22.844 2.577 28.869-8.363l.098-.177c6.025-10.939 2.656-22.569-8.46-28.692l-10.499-5.783zm75.191 17.15-.171.31c-16.768 30.444-53.11 40.841-87.109 22.115l-42.189-23.237 59.582-108.177 42.189 23.237c33.999 18.726 44.466 55.308 27.698 85.752" fill="#a93a58" transform="translate(221.9476 184.8732)"/><path d="m0 0-10.499-5.783-20.507 37.232 10.499 5.783c11.117 6.123 22.844 2.578 28.87-8.363l.097-.176c6.025-10.94 2.657-22.57-8.46-28.693m35.443.285-.453-.249c.162.09.28.222.407.345-.547 1.135-1.106 2.293-1.669 3.46-.242-.034-.484-.099-.711-.224l.647.357c-4.218 8.741-8.562 17.727-8.69 17.92-.252.378-27.997 38.337-28.375 38.337-.265 0-17.309 9.47-28.69 15.809-3.677-1.351-7.354-3.005-11.004-5.015l-15.078-8.305c.327-.926-.015-1.973-.903-2.462l-18.787-10.347c-.989-.545-1.349-1.788-.804-2.777s1.788-1.349 2.777-.805l13.744 7.571c.989.544 2.232.184 2.777-.805s.185-2.232-.804-2.777l-2.315-1.275c-.989-.545-1.349-1.788-.804-2.777.544-.989 1.788-1.349 2.777-.804l1.709.941c.989.545 2.232.184 2.777-.805.544-.988.184-2.232-.804-2.776l-16.014-8.82c-.989-.545-1.349-1.789-.804-2.777.544-.989 1.788-1.35 2.777-.805l14.49 7.981c-.08-.044-.154-.094-.225-.147.941.368 2.031-.008 2.532-.917.5-.908.235-2.031-.578-2.63.082.033.164.069.244.113l-6.084-3.351c-.989-.545-1.349-1.788-.804-2.777.544-.989 1.788-1.349 2.777-.805l3.733 2.056c.989.545 2.232.185 2.776-.804.545-.989.185-2.233-.804-2.777l-6.337-3.491c-.989-.544-1.349-1.788-.804-2.777s1.788-1.349 2.777-.804l13.44 7.402c.989.545 2.232.185 2.777-.804.544-.989.184-2.232-.804-2.777l-22.959-12.645 1.972-3.582 10.682 5.883c.989.545 2.232.185 2.777-.804.544-.989.184-2.233-.804-2.777l-6.991-3.85c-.989-.545-1.349-1.788-.804-2.777s1.788-1.349 2.777-.805l12.178 6.708c.989.544 2.232.184 2.777-.805.544-.989.184-2.232-.805-2.777l-15.465-8.518c-.143-.079-.243-.199-.359-.304l1.883-3.419c.151.042.305.062.448.141l22.834 12.577c.989.544 2.232.184 2.777-.805.544-.989.184-2.232-.805-2.777l-18.225-10.038c-.989-.545-1.349-1.788-.804-2.777s1.788-1.349 2.777-.805l23.121 12.735c.989.545 2.232.184 2.777-.804.544-.989.184-2.232-.804-2.777l-9.202-5.069c-.989-.544-1.349-1.788-.805-2.777.545-.989 1.788-1.349 2.777-.804l4.955 2.729c.989.544 2.232.184 2.777-.805s.185-2.232-.804-2.777l-19.515-10.748c-.989-.545-1.349-1.788-.804-2.777s1.788-1.349 2.777-.804l14.369 7.914c.99.545 2.232.184 2.777-.805.545-.988.185-2.232-.804-2.777l-17.78-9.793c-.362-.199-.605-.507-.785-.847l1.622-2.945c.383-.029.774.012 1.135.211l6.859 3.778c.989.544 2.232.184 2.777-.805s.185-2.232-.804-2.777l-5.707-3.143c-.989-.545-1.349-1.788-.805-2.777.545-.989 1.788-1.35 2.777-.805l18.223 10.037c.989.545 2.233.184 2.777-.804.545-.989.185-2.233-.804-2.777l-7.14-3.933c-.989-.545-1.349-1.788-.805-2.777.545-.989 1.789-1.349 2.777-.805l7.812 4.303c.989.544 2.232.184 2.776-.805.545-.989.185-2.232-.804-2.777l-13.621-7.502c-.989-.545-1.349-1.788-.804-2.777.544-.989 1.788-1.349 2.777-.805l18.763 10.335c.989.544 2.232.184 2.777-.805.212-.385.25-.805.204-1.211l14.605 8.044c11.067 6.096 19.623 14.091 25.576 23.143-.271.865-.443 1.476-.443 1.476s-2.843 5.904-6.177 12.819" fill="#d63452" transform="translate(252.9534 153.4238)"/><path d="m0 0-12.537-6.905zm58.888-31.431-.171.31c-1.065 1.935-2.211 3.786-3.429 5.557l-5.345-2.944c.989.545 1.349 1.788.804 2.777-.544.989-1.788 1.349-2.776.804l4.857 2.676c-.867 1.099-1.763 2.162-2.69 3.186l-2.114-1.164c.891.491 1.232 1.542.9 2.47-.396.413-.795.824-1.201 1.224-.534.192-1.136.182-1.672-.113l1.147.632c-16.152 15.527-39.638 20.686-63.266 12.506-.148-.495-.48-.936-.969-1.206l-13.918-7.665c-.988-.545-1.349-1.788-.804-2.777s1.788-1.349 2.777-.805l12.539 6.906c.989.545 2.232.185 2.777-.804.544-.989.184-2.232-.805-2.777l-1.001-.552c-.989-.544-1.349-1.788-.804-2.777.544-.989 1.788-1.349 2.777-.804l7.764 4.276c.989.545 2.232.185 2.777-.804.544-.989.184-2.233-.805-2.777l-12.322-6.788c-.99-.544-1.349-1.788-.805-2.777.545-.988 1.788-1.349 2.777-.804l4.957 2.73c-.079-.044-.154-.094-.225-.146.941.367 2.031-.009 2.532-.917.5-.909.235-2.032-.579-2.63.083.032.165.068.246.112l-7.781-4.285c-.989-.545-1.349-1.788-.804-2.777s1.788-1.349 2.777-.805l16.541 9.111c.989.545 2.232.184 2.777-.804.545-.989.185-2.233-.804-2.777l-6.337-3.491c-.989-.544-1.349-1.788-.804-2.777.544-.989 1.788-1.349 2.776-.804l2.181 1.201c.989.545 2.233.184 2.777-.805.545-.988.185-2.232-.804-2.776l-11.296-6.222c-.989-.545-1.349-1.788-.804-2.777.544-.989 1.787-1.35 2.777-.805l15.452 8.511c.989.545 2.232.184 2.777-.805.544-.988.184-2.232-.805-2.777l-17.478-9.626c-.989-.545-1.349-1.788-.804-2.777s1.788-1.349 2.777-.805l21.385 11.779c.989.544 2.232.184 2.777-.805.544-.989.184-2.232-.804-2.777l-11.698-6.443c-.989-.544-1.349-1.788-.805-2.777.545-.989 1.788-1.349 2.777-.804l11.698 6.443c.989.544 2.232.184 2.777-.805s.185-2.232-.804-2.777l-15.068-8.299c-.989-.545-1.349-1.788-.804-2.777.544-.989 1.788-1.349 2.777-.804l18.542 10.212c.989.545 2.232.185 2.777-.804.544-.989.184-2.232-.805-2.777l-15.172-8.357c-.989-.545-1.349-1.788-.804-2.777s1.788-1.349 2.777-.804l11.697 6.443c.99.544 2.233.184 2.778-.805.544-.989.184-2.232-.805-2.777l-9.592-5.283c-.989-.545-1.349-1.788-.805-2.777.545-.989 1.788-1.35 2.777-.805l14.614 8.049c.989.545 2.233.185 2.777-.804.545-.989.185-2.232-.804-2.777l-9.764-5.378c-.989-.545-1.349-1.788-.805-2.777.545-.989 1.788-1.349 2.777-.805l11.041 6.081c.988.545 2.232.184 2.777-.804.544-.989.184-2.233-.805-2.777l-21.688-11.946c-.989-.545-1.349-1.788-.805-2.777.545-.989 1.788-1.349 2.777-.805l15.964 8.793c.989.545 2.232.184 2.777-.805.545-.988.185-2.232-.804-2.777l-12.7-6.994c-.989-.545-1.349-1.788-.804-2.777.544-.989 1.788-1.35 2.777-.805l4.255 2.344c.989.545 2.232.184 2.777-.805.545-.988.185-2.232-.804-2.777l-13.514-7.442c-.989-.545-1.348-1.789-.804-2.777.545-.989 1.788-1.35 2.777-.805l19.492 10.736c19.339 19.913 23.283 48.052 9.925 72.305" fill="#e95e67" transform="translate(238.2504 233.4539)"/><g fill="#f7b360"><path d="m0 0c-2.658.442-5.367.699-8.115.784-.175-.388-.441-.74-.844-.961l-4.315-2.377c-.989-.545-1.349-1.788-.804-2.777.544-.989 1.788-1.349 2.777-.805l10.927 6.019c.119.065.249.077.374.117" transform="translate(254.4874 232.9722)"/><path d="m0 0-16.298-8.977c-.989-.544-1.349-1.788-.804-2.777.544-.989 1.788-1.349 2.777-.804l14.775 8.138c.316.173.654.225.989.224 1.034 11.686-1.435 23.738-7.614 34.958l-.171.309c-9.005 16.35-23.658 26.907-40.56 30.287.188-.157.357-.342.482-.569.545-.989.185-2.232-.804-2.777l-5.192-2.86c-.988-.544-1.348-1.788-.804-2.777.545-.989 1.788-1.349 2.777-.804l9.487 5.225c-.08-.044-.155-.094-.226-.147.941.367 2.031-.008 2.531-.917.501-.909.236-2.031-.578-2.63.083.032.165.068.245.112l-19.045-10.49c-.989-.544-1.349-1.788-.804-2.777.544-.989 1.788-1.349 2.776-.804l17.543 9.662c.989.545 2.232.184 2.777-.805.545-.988.184-2.232-.804-2.777l-10.844-5.972c-.989-.545-1.349-1.788-.805-2.777.545-.989 1.788-1.349 2.777-.805l6.688 3.684c.989.544 2.232.184 2.777-.805s.185-2.232-.804-2.777l-3.828-2.108c-.989-.544-1.349-1.788-.804-2.777s1.788-1.349 2.777-.804l7.984 4.397c.989.544 2.232.184 2.776-.805.545-.989.185-2.232-.804-2.777l-10.844-5.972c-.989-.545-1.349-1.788-.804-2.777.544-.989 1.788-1.35 2.777-.805l14.751 8.125c.988.544 2.232.184 2.776-.805.545-.989.185-2.232-.804-2.777l-7.938-4.372c-.989-.545-1.349-1.788-.805-2.777.545-.989 1.789-1.349 2.777-.805l7.939 4.373c.989.544 2.232.184 2.777-.805.544-.989.184-2.232-.805-2.777l-2.403-1.324c-.989-.544-1.349-1.788-.804-2.777.544-.989 1.788-1.349 2.777-.804l5.878 3.237c.989.545 2.232.184 2.776-.804.545-.989.185-2.233-.804-2.777l-11.413-6.286c-.989-.545-1.349-1.788-.804-2.777s1.788-1.349 2.777-.805l7.938 4.372c.989.545 2.233.185 2.777-.804.545-.989.185-2.232-.804-2.777l-3.117-1.717c-.989-.545-1.349-1.788-.805-2.777.545-.989 1.788-1.349 2.777-.804l8.139 4.482c.989.545 2.232.185 2.777-.804s.185-2.232-.804-2.777" transform="translate(303.3135 171.2615)"/><path d="m0 0 2.219 1.222c-1.592-.152-3.194-.376-4.801-.648.604-.789 1.685-1.068 2.582-.574" transform="translate(236.131 232.2866)"/><path d="m0 0c-.989-.545-1.349-1.788-.804-2.777.544-.989 1.788-1.349 2.777-.805l2.647 1.458c.029.017.063.015.093.03.472 1.761.856 3.539 1.161 5.33z" transform="translate(298.2678 159.1463)"/><path d="m0 0c-.989-.545-1.349-1.788-.804-2.777.359-.653 1.027-.997 1.721-1.022.933 1.861 1.766 3.755 2.494 5.678z" transform="translate(297.7487 149.5244)"/></g><path d="m0 0c-.55.999-1.806 1.363-2.805.813l-2.912-1.604c-.999-.55-1.363-1.806-.812-2.805.55-.999 1.806-1.363 2.805-.813l2.911 1.604c.999.55 1.363 1.806.813 2.805" fill="#a93a58" transform="translate(255.7977 119.292)"/><path d="m0 0c-.999-.55-1.363-1.806-.813-2.805.551-.999 1.807-1.363 2.806-.813s1.362 1.806.812 2.805-1.806 1.363-2.805.813" fill="#a93a58" transform="translate(206.3299 169.1927)"/><path d="m0 0c-.999-.55-1.363-1.806-.813-2.805.551-.999 1.807-1.363 2.806-.813s1.363 1.806.812 2.805c-.55.999-1.806 1.363-2.805.813" fill="#a93a58" transform="translate(236.1735 157.3641)"/><path d="m0 0-2.912-1.604c-.999-.55-1.363-1.806-.812-2.805.55-.999 1.806-1.363 2.805-.813l2.911 1.604c1 .55 1.363 1.806.813 2.805s-1.806 1.363-2.805.813" fill="#a93a58" transform="translate(199.1898 212.0545)"/><g fill="#fcc864"><path d="m0 0c-1.105-.608-1.507-1.997-.899-3.102.609-1.105 1.998-1.507 3.103-.899 1.104.609 1.507 1.998.898 3.102-.608 1.105-1.997 1.508-3.102.899" transform="translate(143.6149 108.9987)"/><path d="m0 0c1.105.608 1.507 1.997.899 3.102-.609 1.105-1.998 1.507-3.103.899-1.104-.609-1.507-1.998-.898-3.102.608-1.105 1.997-1.508 3.102-.899" transform="translate(112.7462 165.0441)"/><path d="m0 0c-1.105-.609-1.507-1.997-.899-3.102.609-1.105 1.998-1.507 3.103-.899 1.104.609 1.507 1.997.898 3.102-.608 1.105-1.997 1.507-3.102.899" transform="translate(94.8766 134.3286)"/><path d="m0 0c-.609 1.105-1.997 1.507-3.102.899l-12.167-6.701.001-.002c-.016-.01-.034-.017-.05-.027-1.09-.635-1.457-2.034-.821-3.123.626-1.073 1.991-1.444 3.073-.847l.002-.003 12.166 6.7-.001.002c1.105.608 1.507 1.997.899 3.102" transform="translate(125.1552 116.9631)"/><path d="m0 0c1.105.608 1.507 1.997.899 3.102-.609 1.105-1.998 1.507-3.103.899-1.104-.609-1.507-1.998-.898-3.102.608-1.105 1.997-1.508 3.102-.899" transform="translate(139.9048 80.869)"/><path d="m0 0c-.144-.08-.276-.173-.396-.277l-5.669-3.123-.003.006c-.027-.016-.051-.034-.079-.049-1.105-.608-2.493-.206-3.102.899s-.206 2.494.899 3.102c.027.015.055.027.082.04l-.002.006 14.502 7.987c.151.046.301.107.445.187 1.105.608 1.507 1.997.899 3.102-.6 1.089-1.958 1.493-3.055.922l-.027.049-51.616-28.429c-1.122-.618-1.537-2.015-.929-3.12.609-1.105 2.012-1.501 3.133-.883l16.322 8.989c-.053-.029-.1-.065-.144-.104.646.188 1.551-.405 2.111-1.421.559-1.016.576-2.097.073-2.543.057.016.112.036.165.065l-7.197-3.963c-.895-.494-1.128-1.79-.519-2.895s1.829-1.602 2.724-1.108l33.613 18.513-.026.047c1.104.609 1.507 1.998.898 3.102-.608 1.105-1.997 1.508-3.102.899" transform="translate(130.8437 81.1532)"/><path d="m0 0c-6.026 10.94-17.753 14.486-28.869 8.363l-10.499-5.783 20.506-37.232 10.499 5.783c11.117 6.123 14.486 17.753 8.46 28.693z" transform="translate(261.316 182.2931)"/><path d="m0 0c-1.105-.609-2.494-.206-3.102.899-.609 1.105-.206 2.493.898 3.102 1.105.608 2.494.206 3.103-.899.608-1.105.206-2.493-.899-3.102m-6.002-3.305.001-.001-3.48-1.917-.001.001c-1.105-.608-2.494-.206-3.102.899-.609 1.105-.206 2.494.899 3.102l3.48 1.917c1.105.609 2.494.206 3.102-.899.609-1.104.206-2.493-.899-3.102m-47.435 99.094v-.001l-3.48-1.917-.001.001c-1.104-.608-2.493-.206-3.102.899-.608 1.105-.206 2.494.899 3.102l3.48 1.917c1.105.608 2.494.206 3.102-.899.609-1.105.206-2.493-.898-3.102m-4.793-23.51c-1.105-.608-2.494-.206-3.102.899-.609 1.104-.207 2.493.898 3.102 1.105.608 2.494.206 3.102-.899.609-1.105.207-2.494-.898-3.102m73.823-72.976-59.099 107.301 41.75 22.996c33.057 18.208 69.406 8.988 86.43-21.919l.17-.309c8.141-14.781 9.97-31.43 5.15-46.881-4.91-15.736-16.505-29.299-32.65-38.192zm80.378 113.557c-20.015 36.339-65.599 49.657-102.01 29.897-.036-.018-.073-.033-.109-.053l-.312-.172-.001-.001h-.001l-98.102-54.033c-1.121-.617-1.537-2.014-.928-3.12.609-1.105 2.012-1.5 3.133-.883l32.05 17.653c1.122.617 2.525.222 3.133-.883.609-1.106.194-2.503-.928-3.12l-26.998-14.871c-1.122-.617-1.537-2.014-.929-3.12.609-1.105 2.012-1.5 3.134-.883l15.587 8.585c1.121.618 2.524.223 3.133-.883.609-1.105.193-2.502-.928-3.12l-2.626-1.446c-1.121-.618-1.537-2.014-.928-3.12.609-1.105 2.012-1.501 3.133-.883l11.47 6.317c1.121.617 2.523.221 3.132-.883.608-1.106.193-2.503-.929-3.12l-27.69-15.252c-1.122-.618-1.537-2.015-.928-3.12.608-1.105 2.011-1.501 3.133-.883l16.434 9.051c-.091-.049-.175-.106-.257-.166 1.067.419 2.296.005 2.856-1.011.559-1.016.252-2.276-.672-2.953.094.036.187.077.278.127l-6.901-3.8c-1.121-.618-1.537-2.015-.928-3.12.609-1.106 2.012-1.501 3.133-.883l16.6 9.143c1.122.617 2.525.222 3.134-.883.608-1.105.193-2.501-.927-3.12l-19.555-10.77c-1.122-.618-1.537-2.015-.928-3.12.608-1.106 2.011-1.501 3.133-.883l15.242 8.395c1.122.618 2.525.222 3.133-.883.609-1.105.194-2.502-.928-3.12l-30.322-16.701c-1.121-.618-1.537-2.014-.928-3.12.609-1.105 2.012-1.501 3.133-.883l16.398 9.032c1.122.617 2.524.222 3.133-.883.609-1.106.193-2.503-.928-3.12l-7.928-4.367c-1.121-.618-1.537-2.014-.928-3.12.609-1.105 2.012-1.501 3.133-.883l13.811 7.607c1.122.617 2.524.222 3.133-.883.609-1.106.194-2.503-.928-3.12l-17.539-9.661c-1.122-.618-1.538-2.015-.929-3.12s2.012-1.501 3.133-.883l25.896 14.263c1.121.617 2.524.222 3.133-.883.609-1.106.193-2.503-.928-3.12l-20.669-11.385c-1.122-.617-1.538-2.014-.929-3.12.609-1.105 2.012-1.5 3.133-.883l26.222 14.442c1.121.618 2.524.223 3.133-.883.609-1.105.193-2.502-.928-3.12l-10.436-5.747c-1.122-.618-1.537-2.015-.928-3.121.608-1.105 2.011-1.5 3.133-.883l5.619 3.095c1.121.618 2.524.222 3.133-.883s.193-2.502-.928-3.12l-22.131-12.189c-1.122-.618-1.538-2.015-.929-3.12.609-1.106 2.012-1.501 3.133-.884l16.298 8.977c1.121.617 2.523.221 3.132-.884s.193-2.502-.929-3.12l-20.164-11.106c-1.121-.618-1.537-2.015-.928-3.12.609-1.106 2.011-1.501 3.133-.883l27.408 15.095c1.122.618 2.524.223 3.133-.883.609-1.105.193-2.502-.928-3.12l-26.102-14.376c-1.122-.618-1.537-2.015-.929-3.12.609-1.106 2.012-1.501 3.134-.883l20.667 11.383c1.121.617 2.524.222 3.133-.884.608-1.105.193-2.502-.929-3.12l-8.097-4.46c-1.122-.617-1.538-2.014-.929-3.12.609-1.105 2.012-1.501 3.133-.883l33.753 18.59c1.121.618 2.524.222 3.133-.883.608-1.105.193-2.502-.929-3.12l-40.341-22.219c-1.121-.618-1.537-2.015-.928-3.12.609-1.106 2.012-1.501 3.133-.883l27.01 14.876c1.122.618 2.525.223 3.133-.883.609-1.105.194-2.502-.928-3.12l-8.759-4.824c-1.122-.618-1.537-2.015-.928-3.12.608-1.106 2.011-1.501 3.133-.883l70.411 38.781c.181.1.342.222.485.358 1.007.498 2.009 1.016 3.003 1.563 36.48 20.093 49.764 65.953 29.672 102.433" transform="translate(211.8557 94.4104)"/><path d="m0 0c-1.105-.609-1.507-1.997-.899-3.102.609-1.105 1.998-1.507 3.103-.899 1.104.609 1.507 1.998.898 3.102-.608 1.105-1.997 1.508-3.102.899" transform="translate(138.8366 54.1898)"/><path d="m0 0-12.166-6.701.001-.002c-.017-.009-.034-.016-.051-.026-1.089-.636-1.457-2.035-.821-3.124.626-1.073 1.991-1.443 3.073-.847l.002-.003.001-.001-6.189-3.409.001-.002c-.017-.009-.034-.016-.051-.026-1.089-.636-1.456-2.034-.821-3.124.627-1.072 1.992-1.443 3.074-.847l.001-.003 12.167 6.701-.001.001c1.105.609 1.507 1.998.899 3.103-.609 1.105-1.998 1.507-3.103.898l-.002.001 6.19 3.409v.001c1.104.609 1.507 1.997.898 3.102-.608 1.105-1.997 1.507-3.102.899" transform="translate(164.4786 68.3139)"/><path d="m0 0c-.017-.009-.034-.017-.051-.026-1.089-.636-1.457-2.035-.821-3.124.627-1.073 1.992-1.443 3.074-.847l.001-.003 4.091 2.253-.002-.003-.006-.003.002-.001c-.017-.01-.034-.017-.051-.027-1.089-.636-1.457-2.034-.821-3.123.626-1.073 1.991-1.444 3.073-.848l.002-.003 12.166 6.701v.001c1.104.609 1.507 1.998.898 3.103-.608 1.105-1.997 1.507-3.102.898l-4.086-2.25.001.002.002.001-.001.001c1.105.608 1.507 1.997.899 3.102-.609 1.105-1.998 1.507-3.103.899l-12.166-6.701z" transform="translate(102.6864 138.6285)"/><path d="m0 0c1.105.608 1.507 1.997.899 3.102-.609 1.105-1.998 1.507-3.103.899-.144-.08-.276-.173-.395-.277l-5.663-3.119-.003.005c-.026-.016-.051-.033-.078-.048-1.105-.609-2.494-.206-3.102.898-.609 1.105-.207 2.494.898 3.103.027.015.055.026.083.04l-.003.005 1.58.87c.152.046.301.107.445.187 1.105.609 1.508 1.997.899 3.102-.6 1.089-1.958 1.494-3.055.922l-.027.05-26.793-14.757c-.582-.321-.56-1.477.049-2.582.608-1.106 1.574-1.742 2.156-1.421l4.421 2.434c-.053-.029-.1-.065-.144-.104.646.187 1.551-.405 2.11-1.421.56-1.016.577-2.098.073-2.544.057.017.113.037.165.066l-18.305-10.082c-1.192-.656-1.664-2.085-1.056-3.19.609-1.106 2.069-1.47 3.261-.813l44.714 24.628z" transform="translate(107.5521 157.0254)"/></g></g></svg>